<?xml version="1.0" standalone="no"?>
<!DOCTYPE svg PUBLIC "-//W3C//DTD SVG 20010904//EN"
 "http://www.w3.org/TR/2001/REC-SVG-20010904/DTD/svg10.dtd">
<svg version="1.0" xmlns="http://www.w3.org/2000/svg"
 width="1043.000000pt" height="664.000000pt" viewBox="0 0 1043.000000 664.000000"
 preserveAspectRatio="xMidYMid meet">

<g transform="translate(0.000000,664.000000) scale(0.100000,-0.100000)"
fill="#000000" stroke="none">
<path d="M5174 4828 c34 -79 231 -529 436 -1000 l374 -858 1328 0 1328 0 0
1000 0 1000 -1764 0 -1765 0 63 -142z m2006 -208 l0 -230 -65 0 -65 0 0 165 0
165 -720 0 -720 0 0 -165 0 -165 -65 0 -65 0 0 230 0 230 850 0 850 0 0 -230z
m1338 168 l-3 -63 -542 -3 -543 -2 0 -745 0 -745 543 -2 542 -3 3 -62 3 -63
-611 0 -610 0 0 875 0 875 610 0 611 0 -3 -62z m-2348 -1043 l0 -645 -65 0
-65 0 0 645 0 645 65 0 65 0 0 -645z m450 0 l0 -645 -65 0 -65 0 0 645 0 645
65 0 65 0 0 -645z m1270 555 l0 -90 230 0 231 0 -3 -62 -3 -63 -290 0 -290 0
-3 153 -3 152 66 0 65 0 0 -90z m458 -497 l3 -63 -230 0 -230 0 -3 -92 -3 -93
-60 0 -60 0 -3 145 c-1 79 0 150 2 157 4 11 63 13 293 11 l288 -3 3 -62z"/>
<path d="M1790 3975 l0 -875 60 0 60 0 0 815 0 815 88 0 88 0 344 -375 c188
-206 346 -375 350 -375 3 0 159 168 346 374 l339 375 88 0 87 1 0 -815 0 -815
60 0 60 0 0 875 0 875 -177 -1 -178 -1 -310 -343 c-170 -189 -313 -343 -316
-342 -4 1 -148 156 -320 345 l-314 342 -177 0 -178 0 0 -875z"/>
<path d="M4293 3993 c-210 -472 -385 -866 -389 -876 -6 -16 0 -18 60 -15 l67
3 362 812 362 813 90 0 90 0 355 -812 356 -813 68 -3 c41 -2 67 1 64 7 -1 5
-174 399 -382 875 l-380 866 -171 0 -170 0 -382 -857z"/>
<path d="M4705 3884 c-72 -169 -132 -311 -133 -316 -2 -5 26 -8 64 -6 l69 3
64 153 c35 83 67 152 71 152 3 0 35 -70 70 -155 l63 -155 68 0 68 0 -45 108
c-25 59 -84 200 -132 315 -47 114 -88 207 -92 207 -3 0 -64 -138 -135 -306z"/>
<path d="M2250 3562 l0 -462 60 0 60 0 0 311 0 311 89 -81 90 -82 80 3 81 3
-230 230 -230 230 0 -463z"/>
<path d="M3065 3790 l-230 -230 90 0 90 0 82 82 83 83 0 -313 0 -312 60 0 60
0 0 460 c0 253 -1 460 -3 460 -1 0 -106 -103 -232 -230z"/>
<path d="M2082 2608 c2 -68 9 -133 16 -145 28 -50 144 -54 182 -6 18 23 20 41
20 149 0 69 -4 124 -9 124 -5 0 -11 -54 -13 -121 -3 -113 -5 -122 -27 -140
-36 -29 -94 -25 -120 7 -18 23 -21 41 -21 140 0 98 -2 114 -16 114 -15 0 -16
-14 -12 -122z"/>
<path d="M2785 2716 c-42 -18 -83 -69 -91 -112 -8 -44 18 -116 53 -144 57 -45
156 -49 208 -8 30 23 55 68 55 98 0 18 -6 20 -60 20 -68 0 -82 -17 -18 -22 23
-2 43 -8 45 -15 2 -6 -9 -26 -26 -45 -27 -30 -34 -33 -90 -33 -55 0 -63 3 -95
34 -63 61 -56 146 16 192 43 26 122 22 166 -9 19 -14 33 -18 37 -12 10 16 -4
31 -49 51 -48 22 -108 24 -151 5z"/>
<path d="M4480 2602 c0 -125 1 -129 25 -152 21 -20 37 -24 81 -24 46 0 59 4
81 27 26 25 27 32 31 152 4 110 3 125 -12 125 -14 0 -16 -16 -16 -114 0 -99
-3 -117 -21 -140 -28 -36 -89 -37 -124 -1 -24 23 -25 30 -25 140 0 70 -4 115
-10 115 -6 0 -10 -49 -10 -128z"/>
<path d="M6000 2710 c-22 -22 -26 -60 -10 -90 5 -10 32 -34 60 -54 55 -39 64
-70 32 -99 -26 -24 -55 -21 -82 8 -16 17 -27 22 -34 15 -14 -14 29 -57 65 -65
37 -8 87 18 95 50 11 44 -5 73 -61 116 -44 33 -55 47 -55 70 0 37 40 51 70 24
12 -11 26 -15 37 -10 16 6 15 9 -10 31 -34 29 -80 31 -107 4z"/>
<path d="M6930 2711 c-52 -27 -80 -74 -80 -134 0 -91 61 -151 155 -151 123 0
191 114 134 225 -35 70 -136 99 -209 60z m161 -50 c32 -32 39 -46 39 -77 0
-51 -18 -83 -59 -111 -68 -46 -161 -16 -190 60 -12 33 -12 42 4 83 21 56 62
84 124 84 37 0 49 -6 82 -39z"/>
<path d="M1790 2575 c0 -85 4 -145 10 -145 5 0 10 30 12 68 l3 67 78 3 77 3 0
-71 c0 -56 3 -70 15 -70 13 0 15 23 15 145 0 122 -2 145 -15 145 -12 0 -15
-13 -15 -60 l0 -60 -80 0 -80 0 0 60 c0 33 -4 60 -10 60 -6 0 -10 -55 -10
-145z"/>
<path d="M2390 2578 c0 -125 2 -148 15 -148 12 0 15 19 15 108 l1 107 37 -40
c20 -23 65 -72 99 -110 l62 -70 1 148 c0 91 -4 147 -10 147 -6 0 -10 -43 -10
-110 0 -60 -3 -110 -7 -110 -5 1 -27 24 -51 53 -23 29 -67 79 -97 112 l-54 60
-1 -147z"/>
<path d="M3107 2580 c-37 -78 -67 -143 -67 -145 0 -3 6 -5 13 -5 6 0 23 21 37
48 l25 47 62 3 62 3 26 -51 c14 -27 32 -50 40 -50 10 0 2 27 -31 98 -26 53
-55 118 -66 145 -12 26 -24 47 -28 47 -4 0 -37 -63 -73 -140z m98 30 c14 -27
25 -52 25 -55 0 -3 -23 -5 -51 -5 -37 0 -50 3 -46 13 28 71 40 97 43 97 2 0
15 -22 29 -50z"/>
<path d="M3380 2575 c0 -85 4 -145 10 -145 5 0 10 30 12 67 4 94 24 96 78 11
22 -35 41 -67 43 -72 1 -4 11 -7 20 -5 15 4 13 11 -17 59 -39 60 -44 80 -21
80 27 0 55 38 55 75 0 57 -27 75 -110 75 l-70 0 0 -145z m128 109 c12 -8 22
-26 22 -39 0 -33 -36 -55 -87 -55 l-43 0 0 55 0 55 43 0 c23 0 53 -7 65 -16z"/>
<path d="M3630 2575 c0 -122 2 -145 15 -145 13 0 15 23 15 145 0 122 -2 145
-15 145 -13 0 -15 -23 -15 -145z"/>
<path d="M3785 2583 c-36 -75 -65 -140 -65 -145 0 -4 6 -8 14 -8 7 0 23 23 35
50 l22 50 65 0 66 0 21 -50 c11 -27 27 -50 34 -50 7 0 13 4 13 9 0 13 -128
281 -134 281 -3 0 -35 -61 -71 -137z m95 31 c11 -26 20 -50 20 -55 0 -5 -20
-9 -45 -9 -25 0 -45 4 -45 10 0 10 42 100 47 100 1 0 11 -21 23 -46z"/>
<path d="M4050 2576 c0 -122 2 -146 15 -146 12 0 15 21 17 111 l3 111 95 -111
c52 -61 98 -111 102 -111 5 0 8 65 8 145 0 121 -2 145 -15 145 -12 0 -15 -21
-17 -111 l-3 -111 -94 108 c-51 60 -97 111 -102 112 -5 2 -9 -62 -9 -142z"/>
<path d="M4780 2578 c0 -124 2 -148 15 -148 12 0 15 21 17 109 l3 110 94 -110
c51 -60 95 -109 97 -109 2 0 4 65 4 145 0 90 -4 145 -10 145 -6 0 -10 -44 -10
-112 l-1 -113 -62 70 c-34 38 -81 90 -104 115 l-43 45 0 -147z"/>
<path d="M5100 2575 c0 -90 4 -145 10 -145 6 0 10 55 10 145 0 90 -4 145 -10
145 -6 0 -10 -55 -10 -145z"/>
<path d="M5193 2688 c83 -196 111 -258 116 -258 3 0 19 31 35 68 16 37 44 102
62 145 28 64 31 78 17 75 -10 -2 -33 -44 -62 -110 -25 -59 -49 -108 -52 -108
-3 0 -26 48 -52 108 -28 66 -51 108 -62 110 -14 3 -15 0 -2 -30z"/>
<path d="M5500 2575 l0 -145 85 0 c104 0 114 18 13 22 l-73 3 0 60 0 60 43 3
c23 2 42 7 42 12 0 5 -19 10 -42 12 l-43 3 0 45 0 45 73 3 c101 4 91 22 -13
22 l-85 0 0 -145z"/>
<path d="M5730 2575 c0 -90 4 -145 10 -145 6 0 10 28 10 65 0 49 4 67 15 71
21 9 40 -10 76 -73 29 -51 53 -73 65 -60 3 3 -10 31 -30 61 -40 62 -43 76 -21
76 29 0 55 38 55 79 0 55 -25 71 -112 71 l-68 0 0 -145z m134 112 c21 -15 25
-62 7 -80 -6 -6 -35 -11 -64 -12 l-52 0 -3 39 c-2 21 -1 44 2 52 7 18 86 19
110 1z"/>
<path d="M6200 2575 c0 -90 4 -145 10 -145 6 0 10 55 10 145 0 90 -4 145 -10
145 -6 0 -10 -55 -10 -145z"/>
<path d="M6270 2710 c0 -5 16 -10 35 -10 l35 0 0 -135 c0 -113 2 -135 15 -135
13 0 15 22 15 135 l0 135 30 0 c17 0 30 5 30 10 0 6 -33 10 -80 10 -47 0 -80
-4 -80 -10z"/>
<path d="M6501 2683 c13 -21 33 -54 46 -73 19 -28 23 -48 23 -107 0 -58 3 -73
15 -73 12 0 15 14 15 70 0 64 3 75 41 137 23 38 43 71 46 76 2 4 -3 7 -12 7
-8 0 -31 -25 -50 -55 -20 -30 -38 -55 -40 -55 -2 0 -20 25 -40 55 -19 30 -42
55 -51 55 -13 0 -12 -6 7 -37z"/>
<path d="M7230 2575 c0 -122 2 -145 15 -145 12 0 15 14 15 70 l0 70 40 0 c29
0 40 4 40 15 0 11 -11 15 -40 15 l-40 0 0 50 0 50 65 0 c37 0 65 4 65 10 0 6
-33 10 -80 10 l-80 0 0 -145z"/>
<path d="M1885 2074 c-92 -194 -96 -204 -80 -204 8 0 26 23 40 50 l25 50 63 0
64 0 23 -50 c13 -27 29 -50 37 -50 7 0 13 2 13 5 0 5 -130 288 -135 294 -2 2
-25 -41 -50 -95z m95 -71 c0 -13 -81 -19 -93 -7 -3 4 5 29 20 57 l25 51 24
-44 c13 -25 23 -51 24 -57z"/>
<path d="M2180 2152 c-49 -27 -72 -63 -77 -119 -8 -96 57 -163 159 -163 90 0
136 32 152 108 l8 32 -66 0 c-37 0 -66 -4 -66 -10 0 -5 23 -10 50 -10 28 0 50
-3 50 -6 0 -20 -39 -66 -66 -79 -40 -19 -65 -19 -107 -1 -56 23 -82 61 -82
116 0 40 5 54 30 80 51 53 122 59 189 15 42 -28 56 -3 15 26 -46 32 -140 38
-189 11z"/>
<path d="M2490 2020 c0 -93 4 -150 10 -150 6 0 10 30 10 70 0 64 2 70 20 70
14 0 34 -21 66 -70 25 -38 52 -70 60 -70 15 0 -1 35 -54 118 -13 19 -12 22 1
22 8 0 26 9 41 21 28 22 35 64 16 99 -12 22 -68 40 -127 40 l-43 0 0 -150z
m134 104 c21 -20 20 -58 0 -75 -9 -7 -37 -13 -62 -13 l-47 -1 -3 53 -3 52 50
0 c32 0 55 -6 65 -16z"/>
<path d="M2740 2020 c0 -127 2 -150 15 -150 13 0 15 23 15 150 0 127 -2 150
-15 150 -13 0 -15 -23 -15 -150z"/>
<path d="M2912 2150 c-89 -54 -97 -175 -18 -250 50 -46 182 -38 225 13 22 27
-6 28 -45 2 -114 -78 -252 43 -188 166 15 30 80 68 115 69 8 0 37 -11 64 -25
51 -25 75 -24 53 2 -37 45 -150 57 -206 23z"/>
<path d="M3191 2046 c4 -115 6 -126 28 -150 21 -22 33 -26 83 -26 49 0 63 4
83 25 24 23 25 30 25 150 0 69 -4 125 -9 125 -5 0 -11 -54 -13 -121 -3 -113
-5 -122 -27 -140 -33 -27 -86 -25 -116 6 -24 23 -25 30 -25 140 0 99 -2 115
-16 115 -14 0 -16 -15 -13 -124z"/>
<path d="M3500 2020 l0 -150 70 0 c84 0 94 18 13 22 l-58 3 -3 138 c-4 190
-22 179 -22 -13z"/>
<path d="M3650 2155 c0 -10 10 -15 30 -15 l30 0 0 -135 c0 -113 2 -135 15
-135 13 0 15 22 15 135 l0 135 35 0 c24 0 35 5 35 15 0 12 -16 15 -80 15 -64
0 -80 -3 -80 -15z"/>
<path d="M3860 2054 c0 -158 15 -183 111 -184 41 0 63 5 80 19 23 18 24 27 27
150 3 89 0 131 -7 131 -7 0 -11 -35 -11 -99 0 -54 -5 -113 -11 -130 -18 -52
-85 -67 -133 -30 -25 20 -26 23 -26 140 0 99 -3 119 -15 119 -12 0 -15 -20
-15 -116z"/>
<path d="M4170 2020 c0 -93 4 -150 10 -150 6 0 10 30 10 70 0 63 2 70 20 70
14 0 34 -21 65 -70 25 -39 52 -70 61 -70 16 0 0 34 -54 118 -13 19 -12 22 1
22 8 0 26 9 41 21 28 22 35 64 16 99 -12 22 -68 40 -127 40 l-43 0 0 -150z
m134 104 c21 -20 20 -58 0 -75 -9 -7 -37 -13 -62 -13 l-47 -1 -3 53 -3 52 50
0 c32 0 55 -6 65 -16z"/>
<path d="M4430 2020 l0 -150 80 0 c97 0 107 18 13 22 l-68 3 0 60 0 60 43 3
c56 4 54 22 -3 22 l-45 0 0 50 0 50 70 0 c56 0 70 3 70 15 0 12 -16 15 -80 15
l-80 0 0 -150z"/>
<path d="M4823 2037 c-79 -167 -78 -167 -61 -167 8 0 25 23 38 50 l23 50 64 0
63 0 25 -50 c14 -27 32 -50 40 -50 10 0 3 24 -27 88 -22 48 -53 115 -69 150
-15 34 -29 62 -31 62 -2 0 -31 -60 -65 -133z m91 14 c14 -27 22 -51 19 -55
-10 -10 -93 -7 -93 4 0 10 42 100 47 100 1 0 14 -22 27 -49z"/>
<path d="M5288 2056 l-3 -115 -94 110 c-51 60 -95 109 -97 109 -2 0 -4 -65 -4
-145 0 -90 4 -145 10 -145 6 0 10 44 10 113 l1 112 62 -70 c34 -38 81 -90 104
-115 l43 -45 0 153 c0 127 -2 152 -15 152 -12 0 -15 -22 -17 -114z"/>
<path d="M5400 2021 l0 -151 76 0 c128 0 174 38 174 145 0 105 -44 144 -171
152 l-79 6 0 -152z m171 96 c40 -27 66 -89 55 -131 -12 -50 -56 -83 -119 -91
-30 -4 -60 -4 -66 0 -7 4 -11 51 -11 126 l0 119 54 0 c39 0 62 -6 87 -23z"/>
<path d="M5830 2020 l0 -150 70 0 c84 0 94 18 13 22 l-58 3 -3 138 c-4 190
-22 179 -22 -13z"/>
<path d="M6020 2020 c0 -127 2 -150 15 -150 13 0 15 23 15 150 0 127 -2 150
-15 150 -13 0 -15 -23 -15 -150z"/>
<path d="M6130 2020 c0 -125 2 -150 15 -150 11 0 15 17 17 73 l3 72 38 3 c50
4 48 22 -3 22 l-40 0 0 50 0 50 70 0 c56 0 70 3 70 15 0 12 -16 15 -85 15
l-85 0 0 -150z"/>
<path d="M6360 2020 l0 -150 80 0 c97 0 107 18 13 22 l-68 3 0 60 0 60 43 3
c56 4 54 22 -3 22 l-45 0 0 50 0 50 70 0 c56 0 70 3 70 15 0 12 -16 15 -80 15
l-80 0 0 -150z"/>
<path d="M6716 2151 c-12 -13 -16 -32 -14 -57 3 -33 10 -44 56 -78 62 -47 76
-81 42 -108 -30 -24 -43 -23 -78 7 -38 32 -54 15 -21 -21 33 -35 100 -34 128
2 38 49 26 84 -48 138 -55 41 -66 59 -51 87 13 23 47 25 72 2 15 -13 21 -14
31 -4 9 10 7 16 -12 32 -30 25 -83 25 -105 0z"/>
<path d="M6972 2151 c-93 -59 -97 -205 -7 -261 57 -35 157 -26 208 18 29 26
-2 33 -35 9 -44 -32 -127 -31 -163 3 -82 75 -54 188 53 221 38 11 46 10 94
-14 61 -30 85 -21 37 14 -47 33 -141 38 -187 10z"/>
<path d="M7250 2020 c0 -127 2 -150 15 -150 13 0 15 23 15 150 0 127 -2 150
-15 150 -13 0 -15 -23 -15 -150z"/>
<path d="M7360 2020 l0 -150 85 0 c101 0 115 18 18 22 l-68 3 0 60 0 60 43 3
c56 4 54 22 -3 22 l-45 0 0 50 0 50 70 0 c56 0 70 3 70 15 0 12 -16 15 -85 15
l-85 0 0 -150z"/>
<path d="M7590 2020 c0 -125 2 -150 15 -150 12 0 15 21 17 111 l3 111 94 -108
c51 -60 97 -110 102 -112 5 -2 9 64 9 147 0 126 -2 151 -15 151 -12 0 -15 -22
-17 -116 l-3 -115 -99 115 c-55 64 -101 116 -103 116 -2 0 -3 -67 -3 -150z"/>
<path d="M7972 2151 c-47 -30 -72 -77 -72 -136 0 -91 57 -145 153 -145 58 0
86 9 120 38 28 25 -1 34 -33 10 -60 -44 -157 -29 -196 30 -24 37 -22 102 4
139 20 28 84 63 116 63 7 0 35 -11 61 -26 58 -30 83 -18 34 17 -47 33 -141 38
-187 10z"/>
<path d="M8250 2020 l0 -150 85 0 c101 0 115 18 18 22 l-68 3 0 60 0 60 43 3
c56 4 54 22 -3 22 l-45 0 0 50 0 50 70 0 c56 0 70 3 70 15 0 12 -16 15 -85 15
l-85 0 0 -150z"/>
<path d="M8506 2154 c-43 -43 -27 -92 48 -143 49 -34 63 -60 46 -91 -18 -33
-57 -36 -88 -7 -38 36 -62 21 -28 -16 42 -46 126 -34 147 20 14 39 -4 73 -61
117 -27 21 -52 46 -55 57 -14 43 41 65 77 32 13 -12 22 -13 29 -6 8 8 4 17
-12 32 -27 25 -81 28 -103 5z"/>
</g>
</svg>
