<?xml version="1.0" standalone="no"?>
<!DOCTYPE svg PUBLIC "-//W3C//DTD SVG 20010904//EN"
 "http://www.w3.org/TR/2001/REC-SVG-20010904/DTD/svg10.dtd">
<svg version="1.0" xmlns="http://www.w3.org/2000/svg"
 width="1055.000000pt" height="905.000000pt" viewBox="0 0 1055.000000 905.000000"
 preserveAspectRatio="xMidYMid meet">

<g transform="translate(0.000000,905.000000) scale(0.100000,-0.100000)"
fill="#000000" stroke="none">
<path d="M4030 8445 c-34 -35 -68 -59 -90 -64 -43 -11 -454 -31 -496 -24 -16
2 -116 -3 -222 -11 -105 -9 -211 -13 -234 -10 -52 9 -87 32 -88 59 0 26 -17
51 -27 41 -4 -4 -13 -42 -20 -84 -10 -64 -17 -81 -41 -103 -22 -19 -27 -30
-20 -42 11 -20 32 -13 81 29 59 50 97 56 332 52 182 -3 215 -5 238 -21 l27
-17 0 -450 0 -449 -37 -6 c-77 -12 -149 -28 -168 -37 -53 -28 -159 -125 -178
-165 -12 -24 -24 -43 -27 -43 -4 0 -72 55 -152 123 -367 310 -577 481 -583
475 -3 -2 -7 -18 -11 -34 -5 -25 -1 -32 25 -47 46 -27 406 -327 645 -537 46
-41 69 -96 63 -152 -5 -42 -2 -53 26 -95 18 -26 58 -66 91 -88 33 -22 61 -46
64 -53 3 -9 -96 -12 -445 -14 l-448 -3 -3 -31 -3 -31 453 -6 c249 -4 491 -4
537 0 58 4 83 3 80 -5 -2 -6 -69 -60 -149 -121 l-145 -110 -28 32 c-16 18 -35
47 -42 65 -8 17 -19 32 -24 32 -11 0 -12 -12 -13 -137 0 -38 -6 -64 -16 -76
-34 -38 -513 -416 -582 -459 -52 -32 -56 -38 -41 -53 5 -6 11 -19 13 -30 3
-18 8 -15 48 21 25 22 63 54 85 70 35 25 380 299 457 362 l28 23 0 -34 c0 -23
-10 -47 -30 -72 -48 -60 -16 -77 45 -24 25 22 37 43 41 71 4 22 13 42 20 45 7
3 57 0 111 -7 54 -6 138 -14 187 -17 l88 -6 -4 -381 c-3 -279 -8 -387 -17
-404 -16 -30 -69 -62 -102 -62 -14 0 -34 -7 -45 -15 -17 -15 -11 -15 75 -9 67
4 129 1 221 -12 121 -17 129 -17 154 -1 14 10 26 26 26 37 0 24 -4 25 -35 4
-26 -17 -104 -23 -141 -11 -11 4 -26 17 -32 30 -17 34 -26 811 -10 824 7 6 31
16 53 23 73 23 159 74 211 127 l52 51 23 -25 c37 -39 200 -179 360 -309 81
-66 218 -185 305 -265 173 -160 396 -349 411 -349 6 0 15 12 22 27 11 25 10
29 -8 42 -44 29 -401 340 -511 444 -41 40 -127 111 -190 158 -63 48 -177 144
-252 214 -128 119 -138 131 -138 164 0 20 -4 50 -9 67 l-9 31 152 7 c83 3 284
8 446 11 162 3 377 8 478 11 l182 6 0 30 c0 29 -1 30 -37 24 -65 -10 -885 -19
-1080 -11 -162 6 -188 10 -204 26 -22 22 -25 77 -6 101 6 9 75 62 152 118 77
57 157 116 177 132 21 16 73 55 115 88 43 32 101 77 128 99 28 22 70 55 95 73
25 17 88 67 140 110 52 44 126 105 164 136 38 31 116 99 175 150 58 51 123
103 144 114 29 17 37 28 37 49 0 15 -4 30 -9 33 -5 3 -75 -45 -156 -107 -81
-61 -171 -130 -200 -152 -80 -60 -146 -113 -222 -180 -38 -33 -120 -100 -182
-150 -62 -49 -134 -107 -159 -128 -26 -21 -96 -74 -157 -117 -60 -44 -162
-118 -225 -165 -126 -93 -128 -94 -223 -59 -33 11 -52 25 -58 41 -15 39 -11
356 4 377 12 16 17 14 65 -25 33 -27 61 -61 75 -91 12 -26 25 -47 28 -48 4 0
9 14 13 31 3 17 22 66 41 109 19 43 35 79 35 81 0 2 -35 5 -78 6 -42 1 -97 8
-122 15 -37 11 -46 18 -48 41 -4 34 25 47 101 47 59 -1 86 -13 117 -52 24 -31
57 -37 67 -13 3 9 -1 23 -9 33 -23 26 -27 46 -18 85 10 46 2 53 -26 26 -37
-35 -195 -54 -222 -27 -15 15 -16 237 -2 289 5 19 19 45 30 56 18 20 27 21 97
16 104 -8 160 -40 258 -148 54 -59 87 -87 119 -99 36 -14 47 -24 56 -51 11
-34 26 -45 60 -45 21 0 34 29 24 53 -4 12 2 20 19 26 41 16 41 38 -1 46 -20 4
-48 17 -62 29 -14 13 -45 28 -69 35 -33 9 -62 30 -108 76 -46 46 -77 68 -113
80 -27 9 -52 21 -56 26 -3 5 20 32 50 60 43 39 59 62 71 102 28 94 15 153 -51
226 l-46 51 60 0 c56 0 64 -3 107 -40 25 -22 55 -40 66 -40 17 0 19 8 19 73 1
39 7 102 14 139 19 98 12 100 -64 23z m-262 -191 c42 -29 64 -90 64 -175 0
-93 -13 -122 -70 -166 -36 -27 -52 -33 -93 -33 -62 0 -107 22 -115 57 -4 14
-4 69 0 122 11 175 33 211 131 211 39 0 69 -6 83 -16z m-312 -1005 c20 -22 20
-27 16 -248 l-2 -134 -82 5 c-99 5 -137 22 -179 81 -29 39 -31 47 -26 103 6
76 35 132 91 172 46 33 64 39 122 41 30 1 46 -5 60 -20z m169 -705 c31 -23 45
-47 60 -100 3 -12 -4 -47 -15 -78 -22 -59 -62 -99 -111 -111 -24 -6 -27 -4
-32 34 -5 43 1 229 9 269 4 20 9 23 31 17 14 -3 40 -17 58 -31z m-165 -113 c0
-54 -3 -119 -6 -145 l-7 -46 -52 0 c-67 0 -205 35 -228 59 -18 18 -17 20 45
68 90 72 221 162 236 163 9 0 12 -26 12 -99z"/>
<path d="M8796 3963 c-16 -49 -31 -94 -33 -100 -3 -8 4 -13 19 -13 16 0 48 25
104 83 123 126 121 117 22 117 l-84 0 -28 -87z"/>
<path d="M1215 3793 c-166 -21 -248 -147 -184 -280 25 -52 76 -93 198 -157
113 -60 161 -110 161 -165 0 -92 -108 -147 -208 -105 -51 21 -85 56 -112 114
-19 40 -28 50 -48 50 -20 0 -23 -4 -18 -27 3 -16 10 -64 16 -107 6 -44 12 -82
15 -85 3 -2 15 1 28 8 19 10 35 9 88 -5 81 -22 202 -23 250 -2 83 36 148 123
149 197 1 115 -70 193 -268 296 -94 49 -132 86 -132 129 0 70 94 106 185 72
48 -19 101 -72 117 -118 7 -21 16 -28 35 -28 21 0 24 3 19 28 -3 15 -8 57 -12
95 -7 71 -14 84 -40 69 -10 -5 -38 -4 -72 4 -75 16 -130 22 -167 17z"/>
<path d="M4396 3753 c-3 -27 -8 -78 -12 -115 -6 -68 -6 -68 19 -68 21 0 26 6
32 37 9 51 31 90 54 98 11 3 62 6 113 7 l93 1 0 -301 c0 -231 -3 -304 -13
-314 -7 -7 -36 -15 -65 -18 -44 -4 -52 -8 -55 -27 l-3 -23 221 0 221 0 -3 23
c-2 18 -10 23 -48 25 -83 6 -80 -5 -80 336 l0 301 110 -5 c124 -6 121 -4 146
-87 12 -42 20 -53 36 -53 20 0 21 3 14 107 -4 59 -10 111 -12 115 -7 11 -42
10 -49 -2 -4 -6 -127 -10 -335 -10 -208 0 -331 4 -335 10 -3 6 -14 10 -25 10
-14 0 -19 -10 -24 -47z"/>
<path d="M6319 3790 c-61 -10 -99 -31 -137 -74 -40 -46 -56 -104 -43 -153 24
-87 68 -129 223 -210 48 -25 101 -61 119 -79 63 -65 45 -156 -37 -190 -95 -40
-216 24 -256 134 -9 23 -18 32 -35 32 -13 0 -23 -6 -23 -12 1 -36 28 -199 33
-205 4 -3 17 -1 30 6 19 10 35 9 88 -5 94 -25 192 -23 257 6 95 41 151 136
136 231 -14 87 -99 170 -259 251 -83 42 -113 65 -130 99 -46 88 76 152 191
100 43 -19 85 -66 103 -114 7 -17 18 -27 31 -27 22 0 25 25 11 132 -8 65 -13
74 -36 60 -11 -6 -37 -4 -73 4 -86 18 -142 23 -193 14z"/>
<path d="M6804 3698 c-5 -56 -9 -107 -9 -113 0 -5 10 -11 22 -13 17 -3 24 3
28 25 22 100 37 110 163 115 l102 4 0 -296 c0 -344 1 -340 -81 -340 -46 0 -49
-2 -49 -25 l0 -25 215 0 215 0 0 25 c0 23 -4 25 -45 25 -32 0 -51 6 -65 20
-20 20 -20 31 -18 317 l3 297 95 -2 c52 -2 103 -5 113 -8 21 -7 43 -47 52 -97
6 -31 11 -37 32 -37 24 0 25 2 19 48 -3 26 -8 77 -12 115 -5 54 -10 67 -23 67
-9 0 -22 -5 -27 -10 -12 -12 -653 -8 -696 4 l-26 8 -8 -104z"/>
<path d="M8725 3781 c5 -17 -96 -316 -205 -603 -24 -65 -59 -98 -101 -98 -24
0 -29 -4 -29 -25 l0 -25 160 0 160 0 0 25 c0 23 -4 25 -41 25 -52 0 -79 15
-79 43 0 12 13 58 29 102 l29 80 129 3 130 3 37 -85 c52 -122 47 -146 -31
-146 -39 0 -43 -2 -43 -25 l0 -25 195 0 c187 0 195 1 195 20 0 13 -13 25 -43
38 -27 12 -48 31 -60 53 -10 19 -73 174 -140 344 l-123 310 -88 3 c-83 3 -87
2 -81 -17z m155 -404 c0 -4 -45 -7 -100 -6 -74 1 -100 5 -100 14 0 8 21 71 46
140 l47 127 53 -133 c30 -73 54 -137 54 -142z"/>
<path d="M1736 3772 c-2 -4 -6 -51 -7 -103 -2 -85 0 -94 16 -94 13 0 23 14 34
49 27 83 38 87 245 84 l178 -3 -109 -125 c-381 -438 -423 -490 -423 -520 l0
-30 385 0 385 0 0 74 c0 40 3 94 6 120 6 44 6 46 -18 46 -20 0 -27 -6 -32 -31
-3 -17 -15 -51 -26 -75 -29 -68 -52 -74 -280 -74 -104 0 -190 3 -190 8 1 4
120 144 266 312 233 269 264 309 262 335 l-3 30 -342 3 c-188 1 -344 -1 -347
-6z"/>
<path d="M2560 3755 c0 -20 5 -25 26 -25 28 0 65 -16 76 -34 4 -6 8 -138 8
-293 0 -270 -1 -284 -20 -303 -15 -15 -33 -20 -70 -20 -47 0 -50 -2 -50 -25
l0 -25 359 0 359 0 6 48 c14 114 12 137 -10 140 -16 2 -23 -6 -34 -37 -18 -57
-38 -70 -116 -83 -71 -11 -221 -7 -242 6 -8 5 -12 46 -12 137 l0 129 118 0
c130 0 147 -6 160 -55 6 -20 16 -31 30 -33 22 -3 22 -1 22 117 l0 121 -25 0
c-18 0 -25 -5 -25 -20 0 -11 -9 -29 -20 -40 -18 -18 -33 -20 -140 -20 l-120 0
0 135 0 135 144 0 c162 0 178 -6 194 -70 6 -25 14 -36 31 -38 22 -3 22 -2 16
75 -4 43 -8 84 -10 91 -3 9 -78 12 -330 12 l-325 0 0 -25z"/>
<path d="M3370 3756 c0 -20 6 -25 39 -31 22 -4 45 -13 51 -20 8 -9 10 -101 8
-303 -3 -319 -4 -322 -64 -322 -30 0 -34 -3 -34 -25 l0 -25 146 0 c145 0 145
0 142 22 -2 18 -12 24 -42 29 -74 12 -76 19 -76 295 0 134 2 244 4 244 2 0
131 -133 287 -295 259 -271 285 -295 315 -295 l33 0 3 336 c3 319 4 336 22
350 11 8 35 14 53 14 29 0 33 3 33 25 l0 26 -152 -3 c-150 -3 -153 -3 -156
-25 -3 -21 1 -23 38 -23 30 0 47 -6 65 -25 25 -24 25 -25 25 -230 0 -113 -1
-205 -3 -205 -2 0 -113 115 -247 255 l-244 255 -123 0 -123 0 0 -24z"/>
<path d="M5627 3774 c-4 -4 -7 -16 -7 -26 0 -13 8 -18 29 -18 16 0 39 -9 52
-19 l24 -19 3 -273 c4 -330 4 -328 -83 -341 -12 -2 -21 -12 -23 -26 l-3 -22
196 0 196 0 -3 23 c-2 17 -10 23 -39 25 -72 6 -74 12 -77 301 -4 311 0 330 68
347 34 8 45 15 45 30 0 18 -10 19 -186 22 -102 1 -188 -1 -192 -4z"/>
<path d="M7657 3773 c-4 -3 -7 -15 -7 -25 0 -13 8 -18 30 -18 57 0 80 -37 241
-387 l153 -333 36 0 37 0 142 334 c81 190 151 342 164 354 13 12 37 25 55 28
25 5 32 12 32 30 l0 24 -150 0 -150 0 0 -24 c0 -20 6 -24 42 -29 52 -7 71 -29
57 -66 -21 -55 -173 -416 -179 -424 -9 -10 -212 430 -208 451 4 22 45 42 86
42 27 0 32 3 32 25 l0 25 -203 0 c-112 0 -207 -3 -210 -7z"/>
<path d="M9337 3773 c-15 -14 -7 -43 12 -43 10 0 32 -5 50 -11 l31 -11 0 -286
c0 -325 -2 -335 -63 -340 -32 -3 -37 -7 -37 -28 l0 -24 145 0 145 0 0 25 c0
22 -4 25 -35 25 -25 0 -44 8 -60 25 l-25 24 0 248 1 248 151 -155 c83 -85 212
-219 286 -297 121 -127 139 -143 168 -143 l33 0 3 336 c3 319 4 336 22 350 11
8 35 14 53 14 29 0 33 3 33 25 l0 26 -152 -3 c-147 -3 -153 -4 -156 -24 -3
-19 3 -22 49 -26 35 -4 57 -12 66 -24 10 -13 13 -69 13 -228 l0 -211 -58 60
c-31 33 -142 149 -246 258 l-190 197 -116 0 c-64 0 -120 -3 -123 -7z"/>
<path d="M2136 2459 c-210 -52 -335 -233 -306 -440 12 -82 50 -157 109 -212
136 -128 327 -151 574 -71 l77 26 0 109 c0 96 2 111 20 129 11 11 32 20 46 20
21 0 25 4 22 23 -3 22 -4 22 -200 25 l-198 2 0 -23 c0 -22 5 -25 57 -30 31 -3
63 -13 71 -21 11 -10 16 -45 20 -114 4 -97 4 -100 -19 -113 -13 -7 -56 -14
-94 -17 -90 -6 -156 21 -216 85 -63 69 -82 121 -87 238 -3 85 -1 109 18 159
56 148 201 219 354 174 51 -15 129 -91 145 -141 10 -29 18 -37 37 -37 24 0 24
0 24 110 0 113 -3 121 -40 98 -15 -10 -33 -8 -92 6 -84 21 -265 30 -322 15z"/>
<path d="M4516 2408 c-4 -34 -9 -84 -12 -110 -6 -46 -5 -48 19 -48 22 0 27 7
37 50 19 77 41 90 161 90 l99 0 0 -294 c0 -338 1 -334 -83 -343 -37 -5 -47 -9
-47 -24 0 -18 12 -19 215 -19 203 0 215 1 215 19 0 14 -10 19 -45 24 -88 9
-85 -1 -85 339 l0 298 98 0 c119 0 135 -9 158 -85 13 -48 19 -55 40 -55 19 0
24 4 20 18 -2 9 -8 59 -11 110 l-7 94 -32 -8 c-41 -10 -661 -10 -702 0 l-32 8
-6 -64z"/>
<path d="M990 2431 c0 -14 10 -21 38 -26 74 -14 72 -4 72 -325 0 -329 3 -319
-90 -328 -40 -4 -50 -8 -50 -23 0 -18 15 -19 360 -19 l359 0 5 33 c3 17 7 58
10 90 4 55 4 57 -19 57 -18 0 -26 -8 -35 -34 -6 -18 -22 -44 -36 -57 -24 -23
-34 -24 -165 -27 -100 -3 -144 0 -154 8 -12 10 -15 40 -15 141 l0 129 104 0
c128 0 163 -11 174 -53 6 -22 15 -33 30 -35 22 -3 22 -1 22 117 l0 121 -25 0
c-20 0 -25 -5 -25 -23 0 -49 -31 -62 -161 -66 l-119 -3 0 141 0 141 138 0
c163 0 183 -7 196 -68 8 -35 14 -42 34 -42 24 0 25 1 18 61 -3 34 -6 73 -6 85
l0 24 -330 0 c-317 0 -330 -1 -330 -19z"/>
<path d="M2730 2431 c0 -13 11 -20 43 -27 40 -9 48 -17 189 -204 l148 -195 0
-95 c0 -121 -10 -142 -73 -154 -36 -7 -47 -14 -47 -28 0 -17 13 -18 205 -18
198 0 205 1 205 20 0 15 -7 20 -25 20 -14 0 -41 6 -59 14 -38 16 -46 43 -46
164 l0 74 107 164 c133 205 149 224 193 233 26 5 36 13 38 29 3 22 2 22 -137
22 -132 0 -141 -1 -141 -19 0 -14 10 -21 36 -25 64 -13 58 -39 -49 -208 -34
-54 -65 -98 -68 -98 -15 0 -211 270 -206 283 3 8 22 17 41 21 27 5 36 12 36
26 0 19 -8 20 -195 20 -183 0 -195 -1 -195 -19z"/>
<path d="M3680 2430 c0 -11 6 -20 13 -20 6 0 28 -5 49 -10 27 -8 39 -18 47
-42 14 -40 15 -500 1 -550 -11 -40 -44 -58 -106 -58 -27 0 -34 -4 -34 -20 0
-20 7 -20 365 -20 l365 0 0 44 c0 24 3 64 6 90 6 44 6 46 -19 46 -18 0 -26 -7
-31 -26 -20 -78 -58 -94 -228 -94 -93 0 -120 3 -132 16 -13 12 -16 40 -16 140
l0 124 113 0 c128 0 157 -10 171 -58 9 -32 39 -45 49 -19 2 6 4 59 3 117 -1
104 -1 105 -25 105 -19 0 -27 -7 -33 -32 -11 -43 -54 -55 -178 -51 l-95 3 0
135 0 135 135 3 c159 2 179 -4 198 -66 10 -30 19 -42 33 -42 16 0 19 7 19 48
0 26 -3 64 -6 85 l-7 37 -328 0 c-322 0 -329 0 -329 -20z"/>
<path d="M5380 2432 c0 -14 11 -21 47 -28 72 -14 73 -16 73 -330 0 -317 1
-313 -88 -322 -42 -4 -52 -8 -52 -23 0 -18 15 -19 359 -19 l358 0 7 53 c11 96
8 127 -13 127 -13 0 -27 -16 -42 -47 -18 -37 -32 -51 -59 -60 -36 -12 -256
-18 -284 -7 -14 5 -16 27 -16 140 l0 134 104 0 c138 0 175 -14 176 -67 0 -18
6 -23 25 -23 l25 0 0 120 0 120 -24 0 c-19 0 -26 -7 -31 -29 -11 -49 -28 -56
-157 -60 l-118 -3 0 141 0 141 133 -1 c173 -1 178 -3 197 -62 12 -38 19 -47
39 -47 19 0 22 4 17 23 -3 12 -6 50 -6 85 l0 62 -335 0 c-318 0 -335 -1 -335
-18z"/>
<path d="M6232 2428 c2 -16 12 -24 32 -28 16 -3 34 -13 39 -22 8 -12 6 -96 -5
-293 -18 -306 -22 -319 -83 -331 -25 -4 -35 -11 -35 -25 0 -18 9 -19 135 -19
127 0 135 1 135 20 0 14 -9 21 -36 26 -65 12 -68 25 -54 266 7 117 15 226 19
241 5 24 25 -13 140 -262 97 -210 138 -291 150 -291 12 0 52 79 146 293 71
160 132 296 135 300 7 8 32 -331 34 -455 1 -68 -13 -87 -73 -95 -31 -4 -41
-10 -41 -24 0 -18 11 -19 190 -19 180 0 190 1 190 19 0 20 -18 31 -51 31 -39
0 -47 35 -64 290 -9 135 -15 268 -13 295 3 49 4 50 38 55 27 4 36 10 38 28 3
22 2 22 -125 22 l-129 0 -109 -245 c-60 -135 -112 -245 -115 -245 -3 0 -57
110 -119 245 l-114 245 -129 0 c-128 0 -129 0 -126 -22z"/>
</g>
</svg>
