<?xml version="1.0" standalone="no"?>
<!DOCTYPE svg PUBLIC "-//W3C//DTD SVG 20010904//EN"
 "http://www.w3.org/TR/2001/REC-SVG-20010904/DTD/svg10.dtd">
<svg version="1.0" xmlns="http://www.w3.org/2000/svg"
 width="1876.000000pt" height="800.000000pt" viewBox="0 0 1876.000000 800.000000"
 preserveAspectRatio="xMidYMid meet">

<g transform="translate(0.000000,800.000000) scale(0.100000,-0.100000)"
fill="#000000" stroke="none">
<path d="M2390 7990 c-666 -47 -1217 -206 -1620 -468 -389 -252 -642 -616
-729 -1052 -55 -273 -55 -555 0 -839 67 -347 242 -648 504 -869 285 -240 611
-388 1320 -602 571 -172 785 -269 946 -429 127 -127 179 -266 166 -446 -11
-145 -58 -246 -159 -341 -146 -137 -354 -202 -716 -225 -559 -35 -1226 96
-1741 342 -79 38 -146 68 -148 66 -7 -7 -145 -1368 -140 -1380 12 -31 500
-143 831 -192 924 -135 1799 -95 2435 110 712 230 1153 666 1312 1295 41 162
59 298 66 495 25 701 -224 1208 -757 1547 -250 158 -558 278 -1140 443 -364
103 -488 143 -618 196 -197 82 -348 192 -405 297 -101 186 -65 418 88 568 153
150 412 223 845 240 488 19 1031 -74 1441 -245 l94 -39 7 36 c6 28 85 994 101
1232 l2 34 -110 33 c-283 86 -632 148 -1020 183 -161 15 -700 21 -855 10z"/>
<path d="M4940 7260 l0 -620 1450 0 c798 0 1450 -2 1450 -5 0 -3 -251 -317
-558 -697 -601 -746 -789 -980 -1251 -1553 -164 -203 -499 -619 -745 -924
l-446 -554 0 -663 0 -664 2475 0 2475 0 0 625 0 625 -1556 2 -1556 3 295 355
c163 195 856 1030 1541 1855 l1245 1500 1 668 0 667 -2410 0 -2410 0 0 -620z"/>
<path d="M9880 7260 l0 -620 770 0 770 0 0 -2530 0 -2530 840 0 840 0 0 -790
0 -790 2830 0 2830 0 0 3940 0 3940 -670 0 -670 0 0 -620 0 -620 -1380 0
-1380 0 0 620 0 620 -2390 0 -2390 0 0 -620z m4782 -1237 l3 -618 1303 -3
1302 -2 0 -600 0 -600 -1305 0 -1305 0 0 -685 0 -685 1430 0 1430 0 0 -625 0
-625 -2210 0 -2210 0 0 648 c0 356 3 1494 7 2530 l6 1882 774 0 773 0 2 -617z"/>
<path d="M4385 1166 c-93 -29 -155 -84 -174 -153 -35 -126 19 -204 219 -311
173 -93 216 -146 191 -239 -32 -117 -193 -163 -355 -102 -28 10 -51 18 -52 16
-1 -1 -4 -20 -6 -42 -3 -39 -2 -40 37 -54 65 -23 226 -26 287 -6 77 25 133 67
158 121 72 148 12 264 -190 368 -132 68 -175 99 -195 142 -31 67 1 140 79 175
48 22 162 25 232 8 25 -6 46 -10 48 -8 2 2 6 20 8 39 3 34 2 35 -47 46 -67 16
-190 16 -240 0z"/>
<path d="M7187 1170 c-187 -47 -300 -215 -300 -446 0 -212 79 -363 226 -430
57 -27 71 -29 182 -29 109 0 125 2 176 26 150 71 228 219 229 433 0 150 -36
251 -121 342 -71 74 -147 106 -264 110 -49 2 -107 -1 -128 -6z m213 -85 c127
-45 210 -191 210 -370 0 -224 -130 -380 -315 -379 -130 1 -236 75 -287 202
-31 77 -33 270 -4 348 36 97 104 171 182 199 52 19 161 19 214 0z"/>
<path d="M8905 1166 c-60 -19 -96 -40 -132 -78 -40 -42 -53 -76 -53 -142 0
-95 60 -158 245 -254 49 -26 109 -65 132 -88 40 -38 43 -44 43 -95 0 -93 -62
-156 -168 -173 -51 -8 -163 9 -204 30 -36 19 -38 17 -45 -34 l-5 -39 48 -14
c29 -8 94 -14 159 -14 94 0 117 3 160 23 100 46 148 117 148 219 0 113 -52
170 -242 269 -52 27 -114 68 -138 91 -37 37 -43 48 -43 85 0 98 72 148 211
148 46 -1 101 -7 121 -14 l38 -13 6 33 c3 18 3 37 0 43 -18 28 -208 40 -281
17z"/>
<path d="M11010 1163 c-130 -36 -221 -112 -279 -233 -33 -70 -36 -83 -39 -186
-6 -163 26 -260 116 -356 49 -53 133 -98 221 -118 74 -17 268 -8 346 17 l60
19 3 227 2 227 -150 0 -150 0 0 -40 0 -40 105 0 105 0 0 -160 0 -159 -42 -12
c-69 -19 -224 -16 -289 5 -115 37 -205 137 -230 254 -19 91 -8 216 25 289 33
73 103 144 174 176 70 32 252 36 340 9 69 -22 76 -19 70 34 -2 24 -10 30 -48
42 -75 23 -264 25 -340 5z"/>
<path d="M14 1156 c-3 -8 -4 -160 -2 -339 l3 -324 35 -69 c59 -116 168 -170
326 -162 142 7 248 76 291 187 15 40 18 93 21 384 l3 337 -45 0 -45 0 -3 -327
c-3 -289 -5 -333 -21 -368 -42 -93 -116 -138 -227 -138 -81 0 -122 14 -173 62
-62 57 -62 55 -67 426 l-5 340 -43 3 c-30 2 -44 -1 -48 -12z"/>
<path d="M887 1163 c-4 -3 -7 -206 -7 -450 l0 -443 50 0 50 0 2 381 3 382 230
-382 230 -381 63 0 62 0 0 450 0 450 -45 0 -45 0 0 -390 c0 -214 -3 -390 -7
-390 -5 1 -113 176 -241 390 l-233 390 -53 0 c-29 0 -56 -3 -59 -7z"/>
<path d="M1760 720 l0 -450 45 0 45 0 0 450 0 450 -45 0 -45 0 0 -450z"/>
<path d="M1954 1153 c4 -10 82 -213 174 -451 l167 -433 50 3 49 3 72 180 c179
452 274 695 274 705 0 7 -16 10 -42 8 l-42 -3 -151 -393 c-84 -215 -154 -394
-157 -397 -6 -6 -16 21 -186 475 l-117 315 -49 3 c-43 3 -48 1 -42 -15z"/>
<path d="M2860 720 l0 -450 235 0 235 0 0 40 0 40 -190 0 -190 0 0 170 0 170
170 0 170 0 0 40 0 40 -170 0 -170 0 0 160 0 160 180 0 180 0 0 40 0 40 -225
0 -225 0 0 -450z"/>
<path d="M3510 721 l0 -451 45 0 45 0 0 210 0 210 87 0 86 0 36 -38 c24 -26
60 -93 111 -206 41 -93 80 -170 86 -173 6 -2 29 -3 51 -1 l40 3 -89 195 c-88
193 -125 249 -166 250 -9 1 4 9 30 19 68 27 106 57 130 104 40 79 21 205 -39
259 -10 10 -41 27 -68 39 -43 19 -73 23 -217 27 l-168 5 0 -452z m350 346 c48
-23 70 -63 70 -127 0 -111 -70 -162 -232 -168 l-98 -4 0 162 0 163 113 -5 c77
-3 123 -10 147 -21z"/>
<path d="M4880 720 l0 -450 45 0 45 0 0 450 0 450 -45 0 -45 0 0 -450z"/>
<path d="M5077 1163 c-4 -3 -7 -21 -7 -40 l0 -33 140 0 140 0 0 -410 0 -410
45 0 45 0 0 410 0 410 135 0 135 0 0 40 0 40 -313 0 c-173 0 -317 -3 -320 -7z"/>
<path d="M5745 1143 c10 -16 87 -131 172 -257 l153 -230 0 -193 0 -193 50 0
50 0 0 193 0 193 170 254 c94 140 170 255 170 257 0 2 -22 3 -48 3 l-49 0
-143 -215 c-79 -118 -146 -215 -150 -215 -4 0 -69 97 -146 215 l-139 214 -54
1 -53 0 17 -27z"/>
<path d="M7867 1163 c-4 -3 -7 -206 -7 -450 l0 -443 50 0 50 0 0 210 0 210
165 0 165 0 0 40 0 40 -165 0 -165 0 0 160 0 160 175 0 175 0 0 40 0 40 -218
0 c-120 0 -222 -3 -225 -7z"/>
<path d="M9337 1163 c-4 -3 -7 -21 -7 -40 l0 -33 235 0 c129 0 235 -2 235 -4
0 -3 -108 -170 -240 -371 -211 -322 -240 -371 -240 -406 l0 -39 300 0 300 0 0
40 0 40 -246 0 c-193 0 -245 3 -241 13 2 6 109 171 236 365 214 327 231 357
231 398 l0 44 -278 0 c-153 0 -282 -3 -285 -7z"/>
<path d="M10060 720 l0 -450 235 0 235 0 0 40 0 40 -190 0 -190 0 0 170 0 170
175 0 175 0 0 40 0 40 -175 0 -175 0 0 160 0 160 186 0 185 0 -3 38 -3 37
-227 3 -228 2 0 -450z"/>
<path d="M11667 1163 c-4 -3 -7 -206 -7 -450 l0 -443 240 0 240 0 0 40 0 40
-190 0 -190 0 0 170 0 170 170 0 170 0 0 40 0 40 -170 0 -170 0 0 160 0 160
180 0 180 0 0 40 0 40 -223 0 c-123 0 -227 -3 -230 -7z"/>
<path d="M12310 720 l0 -453 153 6 c225 8 335 44 431 139 147 147 149 464 5
622 -89 98 -174 125 -416 133 l-173 6 0 -453z m404 340 c70 -27 131 -84 166
-155 19 -40 25 -71 28 -151 7 -164 -35 -267 -135 -333 -68 -45 -132 -62 -260
-68 l-113 -6 0 373 0 373 128 -5 c99 -4 140 -10 186 -28z"/>
</g>
</svg>
