<svg xmlns="http://www.w3.org/2000/svg" xmlns:xlink="http://www.w3.org/1999/xlink" width="1284" zoomAndPan="magnify" viewBox="0 0 962.88 203.249992" height="271" preserveAspectRatio="xMidYMid meet" version="1.0"><path fill="#0d274e" d="M 271.210938 150.441406 C 267.074219 150.441406 262.933594 150.441406 258.792969 150.292969 C 258.332031 140.667969 258.488281 128.191406 258.488281 105.035156 L 258.488281 104.886719 C 292.527344 104.886719 294.066406 106.089844 296.210938 111.347656 L 296.980469 110.902344 C 296.371094 108.046875 296.210938 106.238281 296.210938 103.085938 C 296.210938 100.082031 296.371094 97.976562 296.980469 95.121094 L 296.210938 94.972656 C 294.523438 100.230469 292.6875 100.984375 258.488281 101.433594 C 258.488281 80.386719 258.332031 70.761719 258.792969 58.734375 C 263.089844 58.285156 267.230469 58.433594 271.0625 58.433594 C 286.550781 58.433594 298.664062 60.691406 306.484375 67.761719 L 307.253906 67.003906 C 306.335938 64.898438 303.570312 57.082031 303.570312 55.28125 L 252.503906 55.28125 C 250.203125 55.28125 243.917969 55.28125 241.765625 54.527344 L 241.609375 55.28125 C 244.671875 56.335938 246.210938 58.441406 246.363281 61.597656 C 246.824219 71.21875 246.667969 81.289062 246.667969 104.59375 C 246.667969 128.199219 246.824219 137.671875 246.363281 147.445312 C 246.207031 150 244.671875 152.257812 241.609375 153.90625 L 241.765625 154.503906 C 244.066406 154.058594 250.046875 153.90625 252.503906 153.90625 L 308.789062 153.90625 C 308.789062 152.554688 313.539062 143.6875 314.308594 142.183594 L 313.539062 141.429688 C 303.878906 148.492188 288.082031 150.441406 271.210938 150.441406 Z M 271.210938 150.441406 " fill-opacity="1" fill-rule="nonzero"/><path fill="#0d274e" d="M 360.773438 150.441406 C 357.859375 150.441406 354.796875 150.441406 351.726562 150.292969 C 351.261719 140.667969 351.421875 128.039062 351.421875 104.585938 C 351.421875 81.285156 351.261719 71.210938 351.726562 61.589844 C 351.882812 58.429688 353.414062 56.328125 356.476562 55.273438 L 356.320312 54.519531 C 354.328125 55.273438 347.886719 55.273438 345.585938 55.273438 C 343.285156 55.273438 337 55.273438 334.699219 54.519531 L 334.542969 55.273438 C 337.605469 56.328125 339.144531 58.433594 339.292969 61.589844 C 339.757812 71.210938 339.601562 81.285156 339.601562 104.585938 C 339.601562 128.191406 339.757812 137.664062 339.292969 147.4375 C 339.136719 149.992188 337.605469 152.25 334.542969 153.898438 L 334.699219 154.496094 C 337 154.050781 342.976562 153.898438 345.433594 153.898438 L 399.113281 153.898438 C 399.113281 152.398438 403.714844 143.679688 404.476562 142.175781 L 403.707031 141.421875 C 393.285156 149.089844 378.101562 150.589844 360.773438 150.441406 Z M 360.773438 150.441406 " fill-opacity="1" fill-rule="nonzero"/><path fill="#0d274e" d="M 394.359375 55.273438 C 394.359375 56.476562 391.445312 65.195312 390.675781 67.15625 L 391.445312 67.753906 C 401.875 60.683594 414.449219 58.734375 429.019531 58.882812 L 429.019531 104.585938 C 429.019531 128.191406 429.175781 137.664062 428.714844 147.4375 C 428.558594 150.441406 427.023438 152.25 423.804688 153.898438 L 423.960938 154.496094 C 426.105469 154.050781 432.398438 153.898438 434.847656 153.898438 C 437.296875 153.898438 443.433594 154.050781 445.585938 154.496094 L 445.890625 153.898438 C 442.671875 152.398438 441.140625 150.292969 440.980469 147.4375 C 440.519531 137.664062 440.675781 128.191406 440.675781 104.585938 L 440.675781 58.882812 C 455.394531 58.734375 467.664062 60.386719 478.09375 67.753906 L 478.863281 66.996094 C 478.09375 65.039062 475.179688 56.46875 475.179688 55.273438 Z M 394.359375 55.273438 " fill-opacity="1" fill-rule="nonzero"/><path fill="#0d274e" d="M 527.617188 150.441406 C 523.476562 150.441406 519.335938 150.441406 515.199219 150.292969 C 514.734375 140.667969 514.890625 128.191406 514.890625 105.035156 L 514.890625 104.886719 C 548.933594 104.886719 550.472656 106.089844 552.617188 111.347656 L 553.386719 110.902344 C 552.773438 108.046875 552.617188 106.238281 552.617188 103.085938 C 552.617188 100.082031 552.773438 97.976562 553.386719 95.121094 L 552.617188 94.972656 C 550.925781 100.230469 549.089844 100.984375 514.890625 101.433594 C 514.890625 80.386719 514.734375 70.761719 515.199219 58.734375 C 519.492188 58.285156 523.632812 58.433594 527.464844 58.433594 C 542.953125 58.433594 555.066406 60.691406 562.890625 67.761719 L 563.660156 67.003906 C 562.738281 64.898438 559.976562 57.082031 559.976562 55.28125 L 508.90625 55.28125 C 506.605469 55.28125 500.320312 55.28125 498.167969 54.527344 L 498.011719 55.28125 C 501.078125 56.335938 502.617188 58.441406 502.765625 61.597656 C 503.226562 71.21875 503.070312 81.289062 503.070312 104.59375 C 503.070312 128.199219 503.226562 137.671875 502.765625 147.445312 C 502.609375 150 501.078125 152.257812 498.011719 153.90625 L 498.167969 154.503906 C 500.472656 154.058594 506.449219 153.90625 508.90625 153.90625 L 565.191406 153.90625 C 565.191406 152.554688 569.941406 143.6875 570.710938 142.183594 L 569.941406 141.429688 C 560.28125 148.492188 544.484375 150.441406 527.617188 150.441406 Z M 527.617188 150.441406 " fill-opacity="1" fill-rule="nonzero"/><path fill="#0d274e" d="M 180.296875 101.449219 C 180.296875 99.042969 180.1875 96.617188 179.960938 94.222656 C 179.941406 93.984375 179.722656 93.804688 179.476562 93.828125 L 178.8125 93.894531 C 178.570312 93.917969 178.398438 94.132812 178.421875 94.375 C 178.640625 96.710938 178.75 99.097656 178.75 101.449219 C 178.75 142.902344 145.023438 176.628906 103.574219 176.628906 C 62.121094 176.628906 28.394531 142.902344 28.394531 101.449219 C 28.394531 81.941406 35.828125 63.457031 49.335938 49.386719 C 62.703125 35.46875 80.621094 27.300781 99.835938 26.359375 C 100.074219 26.34375 100.261719 26.144531 100.253906 25.902344 L 100.226562 25.238281 C 100.21875 24.992188 100.007812 24.804688 99.761719 24.8125 C 80.148438 25.777344 61.859375 34.117188 48.222656 48.320312 C 34.4375 62.671875 26.847656 81.546875 26.847656 101.449219 C 26.847656 143.753906 61.269531 178.175781 103.574219 178.175781 C 145.875 178.175781 180.296875 143.753906 180.296875 101.449219 Z M 180.296875 101.449219 " fill-opacity="1" fill-rule="nonzero"/><path fill="#0d274e" d="M 103.75 0.539062 C 76.898438 0.539062 51.644531 11 32.660156 29.984375 C 13.667969 48.976562 3.207031 74.222656 3.207031 101.082031 C 3.207031 121.773438 9.429688 141.617188 21.210938 158.515625 C 21.355469 158.71875 21.632812 158.765625 21.832031 158.628906 L 22.371094 158.25 C 22.574219 158.105469 22.617188 157.835938 22.476562 157.636719 C 10.753906 140.824219 4.617188 121.054688 4.746094 100.464844 C 4.910156 74.027344 15.707031 48.671875 34.625 30.207031 C 53.234375 12.042969 77.757812 2.070312 103.8125 2.085938 C 130.058594 2.105469 155.1875 12.523438 173.746094 31.082031 C 192.523438 49.859375 202.832031 74.859375 202.742188 101.425781 C 202.652344 127.601562 192.253906 152.585938 173.746094 171.09375 C 155.042969 189.792969 130.1875 200.089844 103.746094 200.089844 C 100.816406 200.089844 97.863281 199.960938 94.957031 199.707031 C 94.71875 199.6875 94.5 199.867188 94.480469 200.105469 L 94.417969 200.761719 C 94.398438 201.007812 94.578125 201.226562 94.824219 201.246094 C 97.773438 201.507812 100.769531 201.636719 103.746094 201.636719 C 130.597656 201.636719 155.851562 191.175781 174.835938 172.191406 C 193.828125 153.199219 204.28125 127.949219 204.28125 101.097656 C 204.28125 74.246094 193.820312 48.992188 174.835938 30.007812 C 155.859375 11 130.605469 0.539062 103.75 0.539062 Z M 103.75 0.539062 " fill-opacity="1" fill-rule="nonzero"/><path fill="#0d274e" d="M 102.527344 38.671875 C 102.429688 38.710938 102.332031 38.734375 102.242188 38.753906 C 102.109375 38.792969 101.988281 38.828125 101.867188 38.875 C 100.988281 39.167969 100.21875 39.757812 99.71875 40.511719 C 99.621094 40.609375 99.566406 40.707031 99.523438 40.796875 C 99.425781 40.988281 99.230469 41.125 99.015625 41.132812 C 98.886719 41.152344 98.777344 41.175781 98.664062 41.191406 C 98.550781 41.214844 98.4375 41.226562 98.320312 41.25 C 97.402344 41.398438 96.445312 41.625 95.300781 41.953125 C 90.914062 43.1875 86.84375 45.496094 83.527344 48.648438 C 81.179688 50.867188 79.253906 53.480469 77.78125 56.417969 C 77.734375 56.5 77.699219 56.597656 77.652344 56.695312 C 77.617188 56.785156 77.570312 56.875 77.542969 56.941406 C 77.429688 57.105469 77.453125 57.308594 77.59375 57.441406 C 77.699219 57.570312 77.796875 57.6875 77.890625 57.800781 L 78.167969 58.136719 C 78.550781 58.585938 79.035156 59.183594 79.429688 59.847656 C 79.796875 60.402344 80.15625 61.050781 80.53125 61.84375 C 81.507812 63.890625 82.25 65.78125 82.777344 67.617188 C 83.03125 68.441406 83.257812 69.304688 83.472656 70.144531 C 83.570312 70.515625 83.667969 70.898438 83.765625 71.273438 C 83.890625 71.765625 84.011719 72.25 84.136719 72.730469 C 84.265625 73.214844 84.386719 73.691406 84.511719 74.199219 C 84.558594 74.335938 84.632812 74.453125 84.871094 74.460938 L 87.382812 74.171875 C 87.910156 74.089844 88.398438 74.050781 88.933594 74.007812 L 90.207031 73.886719 C 90.742188 73.847656 91.3125 73.804688 91.886719 73.765625 L 93.8125 73.648438 C 94.636719 73.609375 95.457031 73.566406 96.199219 73.527344 L 96.308594 73.519531 C 97.011719 73.484375 97.667969 73.445312 98.371094 73.445312 C 100.472656 73.386719 102.652344 73.347656 104.753906 73.386719 C 105.402344 73.394531 106.046875 73.410156 106.710938 73.410156 C 107.585938 73.410156 108.472656 73.445312 109.332031 73.484375 C 109.773438 73.503906 110.207031 73.519531 110.65625 73.535156 C 110.835938 73.535156 111.007812 73.542969 111.179688 73.558594 C 111.359375 73.566406 111.523438 73.582031 111.714844 73.582031 L 113.769531 73.699219 L 115.945312 73.863281 C 116.320312 73.910156 116.683594 73.945312 117.097656 73.992188 L 119.515625 74.238281 L 121.757812 74.527344 L 121.886719 74.527344 C 121.988281 74.527344 122.058594 74.453125 122.109375 74.402344 C 122.183594 74.328125 122.191406 74.246094 122.191406 74.191406 C 122.296875 73.8125 122.394531 73.4375 122.496094 73.066406 C 122.601562 72.683594 122.707031 72.300781 122.804688 71.914062 L 122.839844 71.75 C 122.910156 71.464844 122.984375 71.175781 123.089844 70.882812 C 123.109375 70.785156 123.140625 70.695312 123.164062 70.613281 C 123.191406 70.515625 123.230469 70.417969 123.246094 70.316406 C 123.648438 68.828125 124.066406 67.28125 124.597656 65.800781 C 125.105469 64.316406 125.679688 62.933594 126.351562 61.589844 C 127.117188 60.109375 127.96875 58.824219 128.960938 57.679688 L 129.027344 57.605469 C 129.289062 57.398438 129.296875 57.046875 129.164062 56.800781 L 129.148438 56.730469 C 125.328125 48.8125 117.871094 43.097656 109.191406 41.445312 C 108.742188 41.363281 108.25 41.28125 107.765625 41.199219 L 107.726562 41.191406 C 107.570312 41.191406 107.425781 41.09375 107.367188 40.953125 L 107.34375 40.898438 L 107.324219 40.878906 C 107.316406 40.855469 107.300781 40.824219 107.269531 40.792969 C 106.726562 39.847656 105.804688 39.152344 104.691406 38.851562 C 104.589844 38.816406 104.484375 38.785156 104.355469 38.746094 C 104.347656 38.734375 104.34375 38.710938 104.335938 38.6875 C 104.320312 38.65625 104.304688 38.613281 104.296875 38.605469 C 104.257812 38.082031 104.257812 37.550781 104.289062 37.058594 L 104.320312 36.960938 L 104.363281 36.917969 C 104.378906 36.910156 104.445312 36.910156 104.476562 36.910156 L 105.132812 36.910156 C 105.222656 36.910156 105.3125 36.902344 105.394531 36.886719 C 105.46875 36.878906 105.542969 36.863281 105.628906 36.863281 C 105.785156 36.863281 105.894531 36.722656 105.894531 36.625 L 105.941406 36.410156 C 105.984375 36.117188 105.949219 35.863281 105.910156 35.601562 L 105.902344 35.570312 C 105.902344 35.429688 105.792969 35.324219 105.671875 35.3125 C 105.566406 35.265625 105.46875 35.265625 105.386719 35.265625 L 104.65625 35.273438 C 104.535156 35.304688 104.410156 35.273438 104.3125 35.242188 L 104.265625 35.199219 C 104.257812 35.183594 104.257812 35.117188 104.257812 35.085938 L 104.257812 33.523438 L 104.238281 33.441406 L 104.191406 33.398438 C 104.15625 33.347656 104.082031 33.257812 103.945312 33.257812 L 102.914062 33.257812 C 102.765625 33.257812 102.5625 33.285156 102.5625 33.5625 L 102.5625 35.070312 C 102.5625 35.078125 102.554688 35.09375 102.554688 35.109375 C 102.546875 35.140625 102.535156 35.175781 102.527344 35.222656 L 102.496094 35.25 C 102.480469 35.257812 102.414062 35.257812 102.382812 35.257812 L 101.726562 35.257812 C 101.554688 35.257812 101.339844 35.257812 101.1875 35.296875 C 101.070312 35.296875 100.917969 35.445312 100.925781 35.527344 C 100.835938 35.878906 100.835938 36.273438 100.941406 36.65625 C 100.972656 36.707031 101.046875 36.855469 101.234375 36.855469 L 102.511719 36.855469 C 102.546875 36.855469 102.570312 36.871094 102.570312 36.878906 L 102.570312 38.605469 C 102.585938 38.621094 102.554688 38.65625 102.527344 38.671875 Z M 101.765625 52.808594 C 102.109375 52.503906 102.527344 52.308594 103.011719 52.226562 C 103.160156 52.195312 103.316406 52.1875 103.476562 52.1875 C 103.757812 52.1875 104.050781 52.226562 104.34375 52.308594 C 104.722656 52.421875 105.074219 52.613281 105.359375 52.855469 C 106.007812 53.421875 106.472656 54.214844 106.628906 55.035156 C 106.710938 55.4375 106.746094 55.851562 106.746094 56.285156 L 106.746094 63.226562 C 106.746094 63.230469 106.726562 63.246094 106.6875 63.246094 L 100.367188 63.246094 C 100.359375 63.246094 100.34375 63.226562 100.34375 63.1875 L 100.34375 55.910156 C 100.34375 55.453125 100.398438 55.082031 100.5 54.75 C 100.671875 54.050781 101.128906 53.363281 101.765625 52.808594 Z M 101.414062 47.167969 C 101.683594 47.28125 101.921875 47.371094 102.25 47.460938 C 103.152344 47.707031 104.164062 47.644531 105.089844 47.296875 L 105.433594 47.183594 C 105.351562 47.601562 105.304688 47.988281 105.269531 48.386719 C 105.230469 48.953125 105.140625 49.535156 105.058594 50.121094 C 105.058594 50.351562 105.023438 50.574219 104.976562 50.835938 L 103.828125 50.589844 C 103.699219 50.566406 103.558594 50.558594 103.40625 50.558594 C 103.257812 50.558594 103.101562 50.566406 102.945312 50.597656 L 102.011719 50.808594 C 101.972656 50.828125 101.9375 50.828125 101.882812 50.828125 L 101.855469 50.800781 L 101.644531 49.082031 C 101.601562 48.5 101.519531 47.914062 101.433594 47.316406 C 101.421875 47.273438 101.414062 47.21875 101.414062 47.167969 Z M 99.574219 45.898438 C 99.597656 45.890625 99.605469 45.890625 99.605469 45.890625 C 99.613281 45.898438 99.621094 45.914062 99.632812 45.957031 L 99.671875 46.019531 C 99.671875 46.023438 99.671875 46.0625 99.679688 46.105469 C 99.722656 46.390625 99.753906 46.667969 99.785156 46.960938 C 99.8125 47.21875 99.84375 47.480469 99.882812 47.75 C 99.917969 48.035156 99.964844 48.332031 100 48.632812 C 100.046875 48.929688 100.082031 49.230469 100.128906 49.515625 L 100.375 51.546875 C 100.40625 51.667969 100.375 51.777344 100.292969 51.859375 L 100.261719 51.898438 C 100.234375 51.957031 100.15625 52.03125 100.074219 52.113281 C 99.320312 52.953125 98.851562 54.003906 98.722656 55.148438 C 98.640625 55.691406 98.640625 56.203125 98.640625 56.730469 L 98.640625 62.566406 L 98.65625 63.203125 L 97.574219 63.261719 C 97.574219 63.261719 97.519531 63.226562 97.511719 63.082031 C 97.492188 62.925781 97.492188 62.820312 97.492188 62.648438 L 97.363281 59.234375 C 97.363281 58.332031 97.320312 57.40625 97.28125 56.507812 C 97.238281 56.023438 97.191406 55.617188 97.070312 55.171875 C 96.855469 54.296875 96.371094 53.496094 95.71875 52.921875 C 95.390625 52.59375 94.972656 52.292969 94.539062 52.078125 C 93.792969 51.660156 92.894531 51.480469 92.035156 51.570312 C 90.847656 51.652344 89.78125 52.210938 89.019531 53.136719 C 88.40625 53.832031 88 54.640625 87.828125 55.46875 C 87.734375 56.035156 87.710938 56.53125 87.746094 56.984375 C 87.792969 57.523438 87.875 58.078125 87.992188 58.605469 C 88.324219 60.378906 88.695312 62.171875 89.0625 63.910156 L 89.0625 63.941406 L 89.09375 63.972656 C 89.101562 63.988281 89.101562 64.015625 89.101562 64.015625 C 89.09375 64.023438 89.085938 64.039062 89.070312 64.046875 C 89.011719 64.078125 88.949219 64.105469 88.882812 64.105469 L 88.121094 64.226562 L 88.03125 64.226562 C 87.957031 64.097656 87.925781 63.972656 87.890625 63.792969 C 87.394531 62.277344 86.761719 60.683594 85.945312 58.921875 L 85.574219 58.175781 C 85.15625 57.464844 84.527344 56.867188 83.789062 56.46875 L 83.644531 56.402344 C 83.617188 56.378906 83.554688 56.335938 83.546875 56.34375 C 83.546875 56.34375 83.554688 56.320312 83.601562 56.261719 C 85.15625 53.804688 87.21875 51.628906 89.5625 49.96875 C 91.945312 48.289062 94.570312 47.0625 97.363281 46.339844 C 98.019531 46.195312 98.78125 46.023438 99.574219 45.898438 Z M 96.019531 63.015625 L 96.019531 63.390625 C 96.019531 63.433594 96.003906 63.449219 95.945312 63.449219 L 90.855469 63.859375 C 90.855469 63.859375 90.847656 63.851562 90.824219 63.816406 C 90.8125 63.792969 90.804688 63.746094 90.796875 63.710938 C 90.789062 63.65625 90.773438 63.605469 90.75 63.546875 L 90.585938 62.785156 C 90.265625 61.296875 89.964844 59.890625 89.683594 58.429688 C 89.636719 58.203125 89.601562 57.988281 89.554688 57.769531 C 89.519531 57.554688 89.472656 57.335938 89.4375 57.113281 C 89.242188 56.015625 89.621094 54.878906 90.472656 54.066406 C 90.660156 53.839844 90.894531 53.683594 91.175781 53.519531 C 91.746094 53.175781 92.484375 53.09375 93.164062 53.289062 C 94.375 53.601562 95.285156 54.527344 95.609375 55.777344 C 95.683594 56.035156 95.726562 56.351562 95.726562 56.640625 C 95.765625 57.710938 95.808594 58.816406 95.847656 60.378906 C 95.847656 60.96875 95.9375 62.015625 96.019531 63.015625 Z M 99.207031 44.34375 C 99.203125 44.34375 99.203125 44.34375 99.207031 44.34375 C 99.203125 44.34375 99.203125 44.34375 99.207031 44.34375 Z M 80.132812 55.976562 C 83.90625 49.453125 90.257812 44.808594 97.550781 43.222656 C 97.878906 43.140625 98.246094 43.058594 98.617188 42.976562 C 98.691406 42.953125 98.769531 42.945312 98.851562 42.9375 C 98.917969 42.933594 98.984375 42.925781 99.058594 42.910156 L 99.058594 43.007812 C 99.058594 43.402344 99.105469 43.820312 99.179688 44.15625 L 99.179688 44.351562 C 99.121094 44.367188 99.066406 44.375 99.015625 44.382812 C 98.933594 44.394531 98.859375 44.402344 98.804688 44.425781 C 96.625 44.808594 94.523438 45.472656 92.558594 46.414062 C 89.457031 47.878906 86.761719 49.894531 84.542969 52.40625 C 83.808594 53.25 83.109375 54.183594 82.382812 55.265625 C 82.292969 55.4375 82.171875 55.632812 82.070312 55.78125 L 82.046875 55.828125 C 82.03125 55.878906 81.957031 55.894531 81.90625 55.894531 L 81.410156 55.859375 L 81.398438 55.859375 C 80.984375 55.859375 80.550781 55.878906 80.105469 56.042969 C 80.117188 56.015625 80.125 56 80.132812 55.976562 Z M 84.09375 65.144531 C 84.070312 65.160156 84.027344 65.167969 83.988281 65.175781 C 83.945312 65.183594 83.898438 65.191406 83.855469 65.210938 C 83.847656 65.210938 83.839844 65.203125 83.832031 65.195312 C 83.824219 65.175781 83.816406 65.152344 83.808594 65.121094 C 83.796875 65.078125 83.789062 65.023438 83.765625 64.988281 C 83.363281 63.785156 82.839844 62.523438 82.113281 61.027344 C 81.605469 59.972656 80.949219 58.882812 80.179688 57.824219 L 80.074219 57.621094 L 80.082031 57.621094 C 80.851562 57.40625 81.554688 57.398438 82.226562 57.574219 C 82.472656 57.644531 82.742188 57.753906 83.027344 57.898438 C 83.609375 58.167969 84.078125 58.644531 84.355469 59.226562 C 84.796875 60.191406 85.25 61.191406 85.625 62.214844 C 85.753906 62.566406 85.871094 62.902344 86 63.246094 C 86.117188 63.582031 86.246094 63.925781 86.363281 64.269531 C 86.394531 64.359375 86.425781 64.441406 86.433594 64.515625 C 86.359375 64.5625 86.296875 64.59375 86.214844 64.613281 Z M 122.765625 66.691406 L 122.648438 67.042969 C 122.484375 67.527344 122.324219 67.992188 122.191406 68.492188 C 122.109375 68.796875 122.019531 69.097656 121.921875 69.390625 C 121.832031 69.6875 121.734375 69.988281 121.652344 70.292969 L 120.914062 72.640625 L 120.898438 72.660156 C 120.855469 72.78125 120.683594 72.722656 120.539062 72.699219 L 116.910156 72.289062 C 116.625 72.265625 116.328125 72.234375 116.027344 72.207031 C 115.730469 72.175781 115.429688 72.144531 115.136719 72.125 L 111.035156 71.839844 L 110.65625 71.792969 C 110.191406 71.78125 109.722656 71.765625 109.257812 71.742188 C 108.339844 71.703125 107.390625 71.667969 106.457031 71.667969 C 105.859375 71.667969 105.269531 71.660156 104.671875 71.644531 C 104.074219 71.636719 103.484375 71.621094 102.886719 71.621094 C 102.886719 71.621094 102.886719 71.621094 102.878906 71.621094 C 102.136719 71.644531 101.414062 71.652344 100.679688 71.660156 C 99.949219 71.667969 99.222656 71.683594 98.484375 71.703125 C 97.738281 71.703125 96.988281 71.75 96.257812 71.789062 L 93.875 71.914062 C 93.179688 71.953125 92.515625 71.996094 91.855469 72.042969 L 88.890625 72.289062 L 87.375 72.453125 L 85.992188 72.570312 C 85.910156 72.570312 85.894531 72.550781 85.878906 72.503906 C 85.84375 72.386719 85.796875 72.21875 85.761719 72.0625 C 85.589844 71.382812 85.402344 70.695312 85.222656 70.007812 C 84.976562 69.066406 84.722656 68.117188 84.476562 67.148438 C 84.398438 66.996094 84.363281 66.847656 84.324219 66.722656 C 84.324219 66.707031 84.324219 66.699219 84.347656 66.683594 L 84.640625 66.570312 C 85.484375 66.316406 86.296875 66.117188 87.136719 65.960938 C 87.769531 65.824219 88.441406 65.726562 89.085938 65.628906 C 89.4375 65.578125 89.789062 65.527344 90.125 65.464844 C 90.40625 65.429688 90.707031 65.390625 90.996094 65.363281 C 91.296875 65.332031 91.59375 65.300781 91.886719 65.257812 C 92.617188 65.175781 93.394531 65.09375 94.179688 65.011719 C 94.425781 64.988281 94.652344 64.980469 94.875 64.972656 C 95.097656 64.964844 95.332031 64.949219 95.578125 64.929688 C 95.824219 64.90625 96.078125 64.898438 96.332031 64.890625 C 96.59375 64.882812 96.847656 64.867188 97.09375 64.847656 C 98.886719 64.765625 100.726562 64.726562 102.554688 64.726562 C 103.667969 64.726562 104.789062 64.765625 105.875 64.800781 C 106.433594 64.816406 106.996094 64.839844 107.570312 64.851562 C 108.144531 64.851562 108.75 64.890625 109.332031 64.929688 C 109.625 64.941406 109.910156 64.964844 110.183594 64.980469 L 114.871094 65.308594 C 115.5625 65.347656 116.230469 65.4375 116.878906 65.511719 C 117.804688 65.628906 118.761719 65.757812 119.703125 65.921875 L 119.785156 65.9375 C 120.621094 66.09375 121.460938 66.257812 122.25 66.414062 C 122.347656 66.4375 122.4375 66.460938 122.519531 66.488281 C 122.601562 66.519531 122.691406 66.550781 122.78125 66.566406 C 122.773438 66.609375 122.765625 66.652344 122.765625 66.691406 Z M 116.191406 63.777344 L 116.15625 63.816406 L 115.886719 63.816406 C 115.640625 63.816406 115.445312 63.816406 115.199219 63.777344 L 111.164062 63.433594 L 111.058594 63.433594 L 111.058594 63.269531 C 111.058594 62.621094 111.058594 62 111.097656 61.394531 C 111.117188 61.164062 111.125 60.9375 111.140625 60.707031 C 111.148438 60.484375 111.164062 60.257812 111.179688 60.035156 L 111.179688 60.027344 C 111.222656 58.996094 111.222656 57.972656 111.222656 56.976562 C 111.222656 56.695312 111.253906 56.441406 111.289062 56.148438 L 111.304688 56.050781 C 111.34375 55.730469 111.449219 55.417969 111.621094 55.117188 C 111.949219 54.542969 112.425781 54.035156 112.972656 53.691406 C 114.136719 52.953125 115.722656 53.152344 116.648438 54.152344 C 117.117188 54.707031 117.410156 55.304688 117.523438 55.933594 C 117.605469 56.402344 117.605469 56.84375 117.523438 57.277344 C 117.441406 57.652344 117.363281 58.015625 117.296875 58.390625 C 117.222656 58.757812 117.15625 59.128906 117.074219 59.503906 C 116.96875 60.058594 116.855469 60.609375 116.746094 61.164062 C 116.632812 61.714844 116.519531 62.277344 116.414062 62.820312 L 116.207031 63.71875 C 116.191406 63.734375 116.191406 63.777344 116.191406 63.777344 Z M 126.921875 57.703125 C 126.890625 57.746094 126.867188 57.792969 126.824219 57.835938 C 126.210938 58.683594 125.621094 59.660156 125.082031 60.738281 C 124.457031 61.945312 123.871094 63.292969 123.34375 64.757812 C 123.328125 64.832031 123.296875 64.898438 123.265625 64.957031 C 123.238281 65.023438 123.214844 65.085938 123.191406 65.160156 C 123.179688 65.167969 123.164062 65.183594 123.15625 65.183594 L 123.089844 65.183594 L 120.71875 64.570312 L 120.683594 64.5625 C 120.667969 64.5625 120.621094 64.5625 120.621094 64.5625 L 120.59375 64.53125 C 120.609375 64.503906 120.613281 64.472656 120.621094 64.441406 C 120.628906 64.421875 120.636719 64.390625 120.660156 64.34375 C 121.136719 62.917969 121.75 61.363281 122.550781 59.585938 C 122.601562 59.453125 122.675781 59.316406 122.746094 59.191406 C 122.773438 59.128906 122.804688 59.070312 122.835938 59.027344 C 123.117188 58.503906 123.507812 58.121094 124.007812 57.890625 C 124.695312 57.523438 125.417969 57.375 126.136719 57.457031 L 126.1875 57.464844 C 126.429688 57.5 126.703125 57.539062 126.945312 57.628906 C 126.949219 57.636719 126.949219 57.644531 126.957031 57.652344 C 126.945312 57.660156 126.929688 57.679688 126.921875 57.703125 Z M 107.914062 44.230469 C 107.929688 44.1875 107.9375 44.132812 107.9375 44.105469 C 107.972656 43.910156 108.019531 43.648438 108.019531 43.378906 C 108.019531 43.304688 108.023438 43.214844 108.039062 43.125 C 108.046875 43.027344 108.0625 42.933594 108.0625 42.84375 C 108.070312 42.835938 108.085938 42.828125 108.113281 42.828125 C 108.527344 42.910156 108.972656 42.992188 109.453125 43.066406 C 112.484375 43.714844 115.496094 44.941406 118.15625 46.621094 C 121.722656 48.871094 124.71875 51.972656 126.808594 55.542969 C 126.839844 55.640625 126.90625 55.746094 126.964844 55.835938 C 126.988281 55.871094 127.011719 55.910156 127.027344 55.933594 C 127.03125 55.949219 127.039062 55.960938 127.039062 55.96875 C 127.027344 55.96875 127.027344 55.96875 127.019531 55.96875 C 126.605469 55.871094 126.175781 55.828125 125.753906 55.828125 C 125.613281 55.828125 125.480469 55.835938 125.34375 55.84375 L 125.136719 55.84375 C 125.074219 55.84375 125 55.835938 124.984375 55.777344 L 124.976562 55.746094 L 124.933594 55.707031 C 121.488281 50.171875 115.886719 46.152344 109.558594 44.671875 C 109.308594 44.613281 109.050781 44.5625 108.789062 44.507812 C 108.535156 44.457031 108.28125 44.402344 108.039062 44.351562 L 107.890625 44.320312 C 107.890625 44.300781 107.898438 44.261719 107.914062 44.230469 Z M 106.472656 51.507812 C 106.480469 51.433594 106.492188 51.351562 106.492188 51.277344 C 106.574219 50.582031 106.65625 49.925781 106.742188 49.269531 L 106.988281 47.542969 C 107.007812 47.378906 107.03125 47.207031 107.046875 47.027344 C 107.070312 46.855469 107.082031 46.675781 107.105469 46.53125 C 107.128906 46.445312 107.136719 46.347656 107.152344 46.25 C 107.160156 46.167969 107.167969 46.078125 107.210938 45.988281 C 107.367188 45.988281 107.570312 46.011719 107.847656 46.070312 C 108.609375 46.195312 109.332031 46.359375 110.003906 46.5625 C 113.433594 47.542969 116.527344 49.246094 119.195312 51.628906 C 120.609375 52.957031 121.757812 54.265625 122.714844 55.640625 C 122.835938 55.796875 122.953125 55.960938 123.035156 56.121094 L 123.132812 56.277344 C 123.179688 56.351562 123.230469 56.425781 123.238281 56.425781 C 123.222656 56.449219 123.125 56.5 123.035156 56.550781 L 122.921875 56.621094 C 122.09375 57.097656 121.429688 57.824219 121.054688 58.652344 C 120.816406 59.128906 120.609375 59.59375 120.398438 60.09375 C 119.859375 61.296875 119.398438 62.550781 118.949219 63.777344 C 118.910156 63.917969 118.835938 64.113281 118.753906 64.285156 L 118.738281 64.285156 L 117.714844 64.128906 C 117.707031 64.121094 117.707031 64.121094 117.707031 64.121094 C 117.722656 64.015625 117.753906 63.90625 117.777344 63.785156 C 117.8125 63.628906 117.851562 63.464844 117.871094 63.300781 C 118.195312 61.804688 118.53125 60.257812 118.820312 58.734375 L 119.070312 57.375 C 119.285156 56.121094 119.015625 54.855469 118.304688 53.816406 C 118.007812 53.371094 117.714844 53.027344 117.425781 52.765625 C 116.796875 52.183594 115.953125 51.785156 115.042969 51.660156 C 114.113281 51.53125 113.152344 51.726562 112.320312 52.210938 C 111.105469 52.863281 110.175781 54.035156 109.789062 55.425781 C 109.699219 55.738281 109.660156 56 109.660156 56.277344 C 109.640625 56.648438 109.632812 57.015625 109.617188 57.390625 C 109.609375 57.753906 109.59375 58.128906 109.578125 58.496094 L 109.453125 62.074219 C 109.453125 62.253906 109.445312 62.425781 109.429688 62.597656 C 109.421875 62.777344 109.421875 62.886719 109.421875 63.074219 C 109.421875 63.097656 109.414062 63.3125 109.394531 63.367188 L 109.273438 63.367188 L 108.324219 63.328125 C 108.316406 63.328125 108.300781 63.308594 108.300781 63.269531 L 108.300781 59.363281 C 108.300781 58.261719 108.300781 57.136719 108.175781 55.992188 C 108.175781 55.410156 108.09375 54.855469 107.921875 54.304688 C 107.644531 53.382812 107.203125 52.613281 106.613281 52.023438 L 106.53125 51.941406 C 106.480469 51.890625 106.449219 51.808594 106.449219 51.71875 C 106.457031 51.644531 106.464844 51.578125 106.472656 51.507812 Z M 103.429688 40.273438 C 103.871094 40.273438 104.304688 40.355469 104.679688 40.503906 C 104.707031 40.519531 104.738281 40.535156 104.769531 40.546875 C 104.835938 40.578125 104.917969 40.609375 104.992188 40.660156 C 106.34375 41.496094 106.785156 43.253906 105.96875 44.566406 C 105.648438 45.089844 105.214844 45.472656 104.679688 45.703125 C 104.273438 45.890625 103.847656 45.980469 103.386719 45.980469 C 103.144531 45.980469 102.960938 45.980469 102.726562 45.90625 C 102.078125 45.710938 101.519531 45.332031 101.085938 44.777344 C 100.851562 44.410156 100.71875 44.105469 100.652344 43.804688 C 100.605469 43.558594 100.570312 43.328125 100.570312 43.089844 C 100.578125 41.535156 101.859375 40.273438 103.429688 40.273438 Z M 103.429688 40.273438 " fill-opacity="1" fill-rule="nonzero"/><path fill="#0d274e" d="M 96.960938 155.910156 C 96.878906 155.886719 96.78125 155.863281 96.691406 155.851562 C 96.601562 155.828125 96.511719 155.8125 96.429688 155.789062 L 95.53125 155.582031 L 95.367188 155.582031 C 95.25 155.582031 95.144531 155.6875 95.144531 155.804688 L 95.144531 155.84375 L 95.167969 155.878906 C 95.300781 156.105469 95.441406 156.285156 95.660156 156.417969 C 95.980469 156.648438 96.28125 156.804688 96.59375 156.925781 C 97.25 157.210938 97.960938 157.351562 98.679688 157.351562 C 98.917969 157.351562 99.15625 157.335938 99.394531 157.308594 C 100.054688 157.179688 100.671875 157.058594 101.285156 156.941406 C 101.429688 156.917969 101.570312 156.886719 101.710938 156.859375 C 102.019531 156.792969 102.339844 156.722656 102.675781 156.703125 C 103.542969 156.613281 104.28125 156.632812 104.933594 156.785156 C 105.304688 156.867188 105.664062 156.941406 106.023438 157.007812 C 106.382812 157.082031 106.742188 157.148438 107.113281 157.230469 C 107.546875 157.320312 107.929688 157.359375 108.332031 157.359375 C 108.839844 157.359375 109.304688 157.277344 109.757812 157.195312 C 110.28125 157.074219 110.753906 156.875 111.238281 156.558594 C 111.492188 156.410156 111.648438 156.277344 111.761719 156.125 C 111.804688 156.082031 111.820312 156.03125 111.84375 155.960938 L 111.886719 155.917969 L 111.886719 155.589844 L 111.640625 155.589844 C 111.386719 155.625 111.082031 155.691406 110.730469 155.796875 C 110.328125 155.878906 109.914062 155.960938 109.503906 156 C 108.871094 156.082031 108.21875 156.035156 107.585938 155.878906 L 104.289062 155.058594 C 103.863281 154.976562 103.386719 154.976562 102.929688 155.058594 C 102.59375 155.101562 102.257812 155.183594 101.929688 155.265625 C 101.519531 155.371094 101.121094 155.46875 100.726562 155.574219 C 100.320312 155.679688 99.917969 155.78125 99.507812 155.886719 C 98.671875 156.058594 97.828125 156.074219 96.960938 155.910156 Z M 96.960938 155.910156 " fill-opacity="1" fill-rule="nonzero"/><path fill="#0d274e" d="M 81.328125 150.53125 C 81.539062 150.738281 81.753906 150.957031 82.015625 151.082031 C 82.578125 151.425781 83.203125 151.671875 83.832031 151.800781 C 84.40625 151.898438 84.855469 151.921875 85.304688 151.882812 C 85.671875 151.851562 86.035156 151.785156 86.386719 151.726562 C 86.566406 151.695312 86.738281 151.664062 86.925781 151.636719 C 87.6875 151.472656 88.480469 151.308594 89.257812 151.1875 C 89.792969 151.097656 90.273438 151.066406 90.699219 151.105469 C 91.148438 151.144531 91.601562 151.234375 92.035156 151.308594 C 92.445312 151.398438 92.859375 151.480469 93.277344 151.5625 C 93.613281 151.628906 93.949219 151.6875 94.285156 151.761719 C 94.667969 151.875 95.085938 151.933594 95.5625 151.933594 C 95.945312 151.933594 96.332031 151.898438 96.734375 151.859375 L 96.855469 151.84375 C 97.574219 151.726562 98.253906 151.449219 98.933594 150.992188 C 99.105469 150.867188 99.277344 150.730469 99.402344 150.566406 C 99.449219 150.523438 99.464844 150.46875 99.484375 150.402344 L 99.53125 150.359375 L 99.53125 150.15625 L 99.484375 150.113281 C 99.425781 150.050781 99.394531 150.03125 99.296875 150.03125 C 99.164062 150.03125 99.03125 150.03125 98.886719 150.074219 C 98.34375 150.238281 97.8125 150.359375 97.257812 150.441406 C 96.625 150.558594 95.972656 150.558594 95.347656 150.441406 L 94.996094 150.367188 C 94.324219 150.222656 93.628906 150.082031 92.96875 149.910156 C 92.476562 149.769531 91.820312 149.589844 91.160156 149.453125 C 90.714844 149.335938 90.214844 149.320312 89.699219 149.410156 C 89.25 149.492188 88.785156 149.574219 88.335938 149.699219 C 87.523438 149.902344 86.671875 150.105469 85.789062 150.320312 C 84.871094 150.558594 83.863281 150.558594 82.949219 150.320312 C 82.511719 150.1875 82.113281 150.105469 81.761719 150.039062 C 81.621094 149.992188 81.480469 149.992188 81.34375 149.992188 C 81.300781 149.992188 81.15625 150.007812 81.15625 150.214844 L 81.171875 150.285156 C 81.226562 150.386719 81.269531 150.476562 81.328125 150.53125 Z M 81.328125 150.53125 " fill-opacity="1" fill-rule="nonzero"/><path fill="#0d274e" d="M 108.273438 150.761719 C 108.285156 150.785156 108.300781 150.820312 108.332031 150.851562 C 108.488281 151.054688 108.707031 151.234375 108.945312 151.382812 C 109.234375 151.546875 109.527344 151.71875 109.863281 151.84375 C 110.445312 152.09375 111.082031 152.210938 111.769531 152.210938 C 111.964844 152.210938 112.164062 152.203125 112.375 152.179688 C 112.492188 152.160156 112.628906 152.144531 112.761719 152.121094 C 112.898438 152.097656 113.03125 152.078125 113.160156 152.0625 C 113.546875 151.980469 113.949219 151.890625 114.355469 151.792969 C 114.757812 151.703125 115.152344 151.605469 115.550781 151.523438 C 116.453125 151.300781 117.445312 151.269531 118.476562 151.441406 C 118.925781 151.554688 119.375 151.628906 119.808594 151.703125 C 120.023438 151.742188 120.242188 151.777344 120.464844 151.816406 L 120.570312 151.832031 C 121.027344 151.90625 121.460938 151.980469 121.921875 151.980469 C 122.386719 151.980469 122.804688 151.925781 123.265625 151.816406 C 123.828125 151.703125 124.457031 151.441406 125.082031 151.054688 C 125.320312 150.894531 125.53125 150.695312 125.769531 150.410156 L 125.800781 150.375 L 125.800781 150.359375 C 125.824219 150.335938 125.835938 150.292969 125.835938 150.238281 L 125.824219 150.171875 C 125.800781 150.121094 125.726562 150.007812 125.613281 150.007812 C 125.480469 150.007812 125.34375 150.007812 125.203125 150.050781 C 124.546875 150.261719 123.925781 150.382812 123.296875 150.5 C 122.9375 150.539062 122.535156 150.539062 122.140625 150.5 C 121.578125 150.417969 120.996094 150.335938 120.464844 150.214844 L 118.164062 149.722656 C 117.296875 149.542969 116.46875 149.566406 115.714844 149.804688 C 115.324219 149.910156 114.945312 150.015625 114.5625 150.113281 C 114.183594 150.214844 113.800781 150.320312 113.40625 150.425781 C 112.957031 150.574219 112.433594 150.703125 111.910156 150.792969 C 111.394531 150.875 110.871094 150.875 110.355469 150.792969 L 108.964844 150.507812 C 108.796875 150.464844 108.625 150.417969 108.4375 150.417969 C 108.316406 150.417969 108.210938 150.523438 108.210938 150.640625 L 108.226562 150.722656 Z M 108.273438 150.761719 " fill-opacity="1" fill-rule="nonzero"/><path fill="#0d274e" d="M 84.609375 111.773438 C 85.3125 112.761719 86.378906 113.335938 87.566406 113.300781 C 88.390625 113.300781 89.210938 113.015625 89.871094 112.515625 C 90.734375 111.894531 91.230469 110.910156 91.265625 109.839844 C 91.265625 109.308594 91.183594 108.773438 90.9375 108.316406 C 90.691406 107.742188 90.242188 107.246094 89.660156 106.957031 C 89.085938 106.664062 88.425781 106.582031 87.769531 106.664062 C 87.03125 106.746094 86.328125 107.195312 85.917969 107.859375 C 85.855469 107.957031 85.761719 108.023438 85.699219 108.089844 C 85.671875 108.121094 85.617188 108.144531 85.582031 108.144531 C 85.582031 108.046875 85.59375 107.980469 85.59375 107.898438 C 85.632812 107.359375 85.714844 106.785156 85.84375 106.253906 C 86.132812 105.140625 86.664062 104.070312 87.402344 103.210938 C 87.734375 102.800781 88.1875 102.429688 88.636719 102.144531 L 88.839844 101.980469 L 88.882812 101.941406 C 88.964844 101.859375 88.964844 101.734375 88.882812 101.652344 C 88.839844 101.613281 88.800781 101.613281 88.757812 101.613281 C 88.710938 101.613281 88.628906 101.613281 88.589844 101.652344 C 87.394531 102.1875 86.371094 102.929688 85.507812 103.914062 C 84.109375 105.558594 83.488281 107.695312 83.824219 109.832031 C 83.953125 110.542969 84.199219 111.199219 84.609375 111.773438 Z M 85.84375 109.554688 C 85.925781 109.101562 86.089844 108.652344 86.378906 108.277344 C 86.5 108.078125 86.664062 107.914062 86.828125 107.785156 C 87.402344 107.375 88.1875 107.410156 88.71875 107.867188 C 88.964844 108.078125 89.175781 108.359375 89.292969 108.6875 C 89.457031 109.101562 89.539062 109.464844 89.539062 109.878906 L 89.539062 110.085938 C 89.585938 110.542969 89.457031 111.035156 89.339844 111.363281 C 89.210938 111.65625 89.046875 111.902344 88.800781 112.105469 C 88.507812 112.351562 88.179688 112.46875 87.816406 112.515625 C 87.402344 112.558594 87.039062 112.386719 86.746094 112.140625 C 86.582031 112.023438 86.453125 111.855469 86.335938 111.691406 C 86.042969 111.28125 85.84375 110.789062 85.796875 110.25 C 85.804688 110.050781 85.804688 109.800781 85.84375 109.554688 Z M 85.84375 109.554688 " fill-opacity="1" fill-rule="nonzero"/><path fill="#0d274e" d="M 77.625 104.421875 C 77.660156 104.421875 77.75 104.378906 77.789062 104.378906 L 78.820312 104.050781 L 79.066406 103.96875 C 79.101562 103.929688 79.183594 104.011719 79.183594 104.050781 C 79.222656 104.214844 79.222656 104.339844 79.222656 104.503906 C 79.222656 105.78125 79.222656 107.054688 79.222656 108.332031 C 79.222656 109.519531 79.222656 110.714844 79.222656 111.910156 C 79.222656 111.945312 79.222656 112.035156 79.222656 112.117188 C 79.222656 112.367188 79.101562 112.613281 78.9375 112.8125 C 78.917969 112.84375 78.902344 112.859375 78.894531 112.894531 C 78.886719 112.976562 78.976562 113.015625 79.019531 113.015625 L 81.238281 113.015625 C 81.320312 113.015625 81.34375 112.949219 81.320312 112.894531 C 81.300781 112.84375 81.277344 112.8125 81.238281 112.769531 C 81.074219 112.605469 81.039062 112.394531 81.039062 112.195312 C 81.039062 112.148438 81.039062 112.109375 81.039062 112.066406 C 81.039062 110.878906 80.992188 109.71875 80.992188 108.53125 C 80.992188 108.039062 80.992188 107.546875 80.992188 107.054688 C 81.039062 105.984375 81.039062 104.953125 81.039062 103.886719 C 81.039062 103.226562 81.039062 102.523438 81.039062 101.867188 C 81.039062 101.832031 80.992188 101.75 80.992188 101.667969 C 80.992188 101.628906 80.910156 101.582031 80.867188 101.628906 C 80.738281 101.710938 80.65625 101.832031 80.539062 101.914062 C 80.207031 102.160156 79.925781 102.488281 79.597656 102.734375 C 79.183594 103.019531 78.773438 103.347656 78.363281 103.636719 C 78.117188 103.804688 77.914062 103.96875 77.660156 104.132812 C 77.625 104.167969 77.578125 104.214844 77.542969 104.257812 C 77.542969 104.296875 77.585938 104.421875 77.625 104.421875 Z M 77.625 104.421875 " fill-opacity="1" fill-rule="nonzero"/><path fill="#0d274e" d="M 123.515625 107.664062 C 123.515625 107.664062 123.664062 107.71875 123.761719 107.628906 L 123.96875 107.425781 C 124.335938 107.054688 124.792969 106.804688 125.328125 106.6875 C 125.695312 106.605469 126.105469 106.605469 126.519531 106.6875 C 127.300781 106.8125 127.914062 107.390625 128.160156 108.128906 C 128.242188 108.332031 128.28125 108.585938 128.28125 108.832031 C 128.316406 109.242188 128.28125 109.652344 128.199219 110.0625 C 127.953125 111.335938 127.003906 112.367188 125.769531 112.738281 C 125.234375 112.902344 124.65625 112.949219 124.125 112.859375 L 123.878906 112.820312 C 123.84375 112.859375 123.796875 112.902344 123.796875 112.949219 C 123.835938 113.03125 123.835938 113.113281 123.878906 113.230469 L 124.007812 113.359375 C 124.042969 113.359375 124.125 113.394531 124.171875 113.394531 C 124.875 113.480469 125.53125 113.480469 126.1875 113.3125 C 127.628906 113.023438 128.863281 112.082031 129.558594 110.765625 C 130.097656 109.78125 130.214844 108.628906 129.851562 107.5625 C 129.640625 106.902344 129.191406 106.328125 128.570312 106 C 127.75 105.507812 126.71875 105.378906 125.777344 105.671875 C 125.285156 105.789062 124.828125 106.035156 124.417969 106.375 C 124.292969 106.457031 124.207031 106.539062 124.125 106.621094 L 124.042969 106.703125 C 124.007812 106.746094 123.871094 106.800781 123.878906 106.621094 C 123.917969 105.992188 124.007812 104.765625 124.042969 104.070312 C 124.042969 103.988281 124.058594 103.898438 124.082031 103.824219 C 124.121094 103.742188 124.203125 103.660156 124.285156 103.660156 C 124.285156 103.660156 128.519531 103.660156 128.640625 103.660156 C 128.707031 103.660156 128.796875 103.636719 128.804688 103.414062 C 128.886719 102.957031 128.96875 102.546875 129.09375 102.136719 L 129.09375 102.09375 C 129.132812 101.925781 129.058594 101.890625 128.929688 101.890625 C 128.601562 101.972656 128.273438 101.972656 127.945312 101.972656 C 126.75 101.972656 125.515625 101.972656 124.328125 101.972656 C 123.671875 101.972656 123.707031 101.972656 123.671875 102.585938 C 123.589844 103.121094 123.589844 103.609375 123.550781 104.148438 L 123.386719 106.820312 C 123.378906 107.089844 123.347656 107.230469 123.347656 107.441406 C 123.351562 107.546875 123.394531 107.628906 123.515625 107.664062 Z M 123.515625 107.664062 " fill-opacity="1" fill-rule="nonzero"/><path fill="#0d274e" d="M 115.175781 103.722656 C 115.214844 103.804688 115.300781 103.804688 115.339844 103.765625 L 115.796875 103.390625 C 116.078125 103.183594 116.371094 103.019531 116.699219 102.898438 C 117.273438 102.695312 117.851562 102.652344 118.425781 102.816406 C 118.957031 102.945312 119.367188 103.4375 119.410156 103.96875 C 119.53125 104.585938 119.375 105.199219 118.957031 105.65625 C 118.792969 105.859375 118.628906 106.023438 118.425781 106.148438 C 118.097656 106.394531 117.769531 106.558594 117.394531 106.722656 L 116.902344 106.925781 C 116.820312 106.972656 116.773438 107.054688 116.820312 107.136719 C 116.855469 107.171875 116.855469 107.261719 116.902344 107.300781 C 116.945312 107.382812 117.066406 107.417969 117.148438 107.382812 C 117.3125 107.300781 117.476562 107.261719 117.640625 107.21875 C 118.015625 107.136719 118.34375 107.136719 118.710938 107.21875 C 119.367188 107.300781 119.941406 107.753906 120.1875 108.367188 C 120.269531 108.570312 120.316406 108.816406 120.351562 109.027344 C 120.390625 109.355469 120.390625 109.71875 120.351562 110.058594 C 120.269531 110.921875 119.777344 111.699219 119.039062 112.15625 C 118.792969 112.320312 118.5 112.449219 118.214844 112.53125 C 117.476562 112.738281 116.65625 112.777344 115.871094 112.648438 L 115.378906 112.566406 C 115.339844 112.566406 115.339844 112.605469 115.339844 112.648438 C 115.339844 112.730469 115.339844 112.8125 115.339844 112.894531 C 115.339844 112.976562 115.378906 113.097656 115.503906 113.097656 C 115.714844 113.136719 115.914062 113.179688 116.125 113.21875 C 116.902344 113.300781 117.730469 113.21875 118.507812 113.015625 C 119.164062 112.804688 119.824219 112.523438 120.398438 112.148438 C 120.890625 111.773438 121.347656 111.371094 121.675781 110.832031 C 122.25 109.96875 122.378906 108.859375 122.003906 107.875 C 121.839844 107.300781 121.429688 106.804688 120.890625 106.515625 C 120.644531 106.351562 120.316406 106.269531 120.023438 106.1875 C 119.816406 106.140625 119.578125 106.058594 119.367188 106.023438 L 119.328125 105.984375 L 119.328125 105.945312 L 119.695312 105.699219 C 120.023438 105.5 120.269531 105.207031 120.519531 104.921875 C 120.882812 104.429688 121.054688 103.808594 120.964844 103.199219 C 120.929688 102.75 120.675781 102.339844 120.308594 102.085938 C 120.097656 101.964844 119.898438 101.835938 119.652344 101.753906 C 118.992188 101.554688 118.253906 101.507812 117.597656 101.71875 C 116.609375 101.964844 115.742188 102.578125 115.128906 103.398438 C 115.046875 103.519531 115.046875 103.601562 115.175781 103.722656 Z M 115.175781 103.722656 " fill-opacity="1" fill-rule="nonzero"/><path fill="#0d274e" d="M 73.253906 76.898438 L 73.253906 140.921875 C 73.253906 150.410156 80.992188 157.574219 86.199219 160.035156 C 93.1875 163.335938 96.070312 164.597656 100.851562 166.699219 L 103.050781 167.65625 C 103.257812 167.753906 103.503906 167.753906 103.714844 167.65625 L 105.367188 166.9375 C 111.109375 164.414062 112.867188 163.644531 120.503906 160.035156 C 124.277344 158.257812 129.378906 153.996094 131.90625 148.109375 C 132.859375 145.875 133.453125 143.410156 133.453125 140.75 L 133.453125 76.734375 C 133.453125 76.5 133.265625 76.324219 133.039062 76.324219 L 73.671875 76.324219 C 73.4375 76.324219 73.253906 76.5 73.253906 76.898438 Z M 131.90625 120.054688 L 131.90625 125.894531 C 131.84375 125.949219 131.800781 126 131.792969 126.046875 C 131.464844 126.253906 130.515625 126.949219 130.179688 127.152344 L 124.605469 130.902344 L 124.359375 131.050781 C 124.277344 131.105469 124.277344 131.105469 124.179688 130.984375 C 124.082031 130.863281 124.023438 130.691406 123.960938 130.519531 C 123.789062 130.058594 123.722656 129.855469 123.460938 129.4375 C 122.722656 128.109375 121.832031 127.039062 120.503906 126.269531 C 120.242188 126.121094 120.113281 126.121094 120.59375 125.597656 L 126.683594 119.703125 L 131.621094 119.703125 C 131.777344 119.703125 131.910156 119.828125 131.910156 119.992188 L 131.910156 120.054688 Z M 113.242188 142.878906 C 113.097656 142.761719 112.957031 142.746094 112.777344 142.765625 C 112.605469 142.78125 112.433594 142.84375 112.261719 142.902344 L 111 143.597656 L 108.75 144.726562 C 108.203125 144.992188 107.660156 145.082031 107.054688 145.136719 L 106.472656 145.097656 C 106.425781 145.105469 106.382812 145.0625 106.382812 145.0625 C 106.351562 144.917969 106.492188 144.875 106.492188 144.875 C 107.324219 144.402344 108.109375 143.894531 108.945312 143.425781 C 109.355469 143.171875 109.773438 142.910156 110.183594 142.609375 C 110.558594 142.355469 110.878906 142.066406 111.207031 141.820312 C 111.410156 141.625 111.613281 141.429688 111.722656 141.207031 C 111.761719 141.117188 111.753906 141.027344 111.65625 140.953125 C 111.507812 140.789062 111.289062 140.765625 111.117188 140.871094 C 110.917969 141.019531 110.707031 141.125 110.5 141.234375 L 106.292969 143.949219 C 106.046875 144.105469 105.753906 144.261719 105.507812 144.417969 C 104.960938 144.6875 103.878906 144.898438 103.550781 144.679688 C 103.429688 144.605469 103.617188 144.5 103.699219 144.449219 C 104.117188 144.230469 104.535156 144.023438 104.953125 143.804688 C 105.53125 143.441406 105.859375 143.15625 106.171875 142.9375 C 106.621094 142.648438 107 142.304688 107.40625 141.953125 C 108.136719 141.316406 108.773438 140.601562 109.308594 139.851562 C 109.46875 139.667969 109.527344 139.523438 109.640625 139.335938 C 109.675781 139.25 109.722656 139.078125 109.625 139.039062 C 109.480469 138.917969 109.308594 138.933594 109.144531 139.039062 C 108.945312 139.1875 108.734375 139.335938 108.535156 139.488281 L 105.8125 141.863281 C 105.648438 142.011719 105.484375 142.109375 105.328125 142.257812 C 104.925781 142.601562 104.34375 142.933594 103.886719 143.148438 L 102.070312 144.050781 C 101.285156 144.402344 100.933594 144.53125 100.71875 144.597656 C 100.507812 144.664062 100.128906 144.671875 99.867188 144.65625 C 99.777344 144.664062 99.6875 144.628906 99.597656 144.597656 C 99.597656 144.597656 99.546875 144.515625 99.582031 144.472656 C 99.621094 144.382812 99.703125 144.328125 99.738281 144.285156 C 100.066406 144.039062 100.398438 143.785156 100.726562 143.535156 C 101.628906 142.925781 102.488281 142.28125 103.347656 141.585938 C 105.058594 140.203125 106.628906 138.703125 108.054688 137.082031 C 108.367188 136.699219 108.363281 136.691406 108.675781 136.320312 C 109.027344 135.894531 109.558594 135.199219 109.558594 135.199219 C 109.902344 134.765625 109.488281 134.421875 109.125 134.453125 C 109.035156 134.457031 107.53125 134.914062 106.769531 135.207031 C 105.84375 135.59375 105.148438 136.28125 104.066406 136.976562 C 103.757812 137.171875 102.972656 137.664062 102.636719 137.792969 C 101.519531 138.246094 100.703125 137.664062 101.25 137.199219 C 101.25 137.199219 102.601562 135.996094 103.132812 135.558594 C 103.910156 134.960938 105.933594 132.816406 107.949219 131.386719 C 108.585938 130.941406 108.839844 130.851562 109.535156 130.761719 C 112.949219 130.320312 115.757812 129.378906 117.246094 128.371094 C 117.613281 128.117188 117.976562 127.882812 118.296875 127.59375 C 118.464844 127.449219 118.621094 127.300781 118.785156 127.152344 C 118.859375 127.054688 119.039062 127.039062 119.171875 127.113281 C 119.308594 127.144531 119.449219 127.21875 119.539062 127.257812 C 120.503906 127.734375 121.300781 128.378906 121.953125 129.28125 C 122.402344 129.894531 122.773438 130.605469 123.011719 131.328125 C 123.066406 131.410156 123.125 131.539062 123.132812 131.628906 C 123.261719 132.097656 123.261719 132.097656 122.894531 132.351562 C 121.421875 133.449219 120.152344 134.839844 119.15625 136.417969 C 118.703125 137.15625 118.246094 137.949219 117.789062 138.6875 L 115.886719 141.796875 L 115.390625 142.589844 C 114.9375 143.328125 114.367188 143.96875 113.570312 144.304688 C 113.023438 144.53125 112.710938 144.777344 112.15625 144.964844 C 111.820312 145.082031 111.433594 145.203125 111.050781 145.332031 C 110.878906 145.390625 110.109375 145.546875 109.996094 145.34375 C 109.929688 145.234375 110.148438 145.160156 110.230469 145.113281 C 110.855469 144.792969 111.550781 144.304688 112.1875 144.03125 C 112.6875 143.789062 112.851562 143.648438 113.171875 143.402344 C 113.285156 143.207031 113.382812 143 113.242188 142.878906 Z M 95.726562 142.796875 L 93.238281 128.398438 L 112.394531 125.042969 C 112.476562 125.03125 112.5625 125.089844 112.574219 125.195312 L 113.332031 128.683594 C 113.054688 128.757812 112.792969 128.808594 112.582031 128.855469 C 111.804688 128.996094 109.28125 129.386719 108.890625 129.46875 C 108.121094 129.648438 107.808594 129.902344 107.53125 130.066406 C 106.570312 130.65625 104.730469 132.382812 103.8125 133.085938 C 103.527344 133.332031 102.953125 133.957031 102.667969 134.203125 C 101.75 135.050781 100.300781 136.371094 100.105469 136.601562 C 99.621094 137.277344 99.941406 137.941406 100.480469 138.492188 C 101.015625 139.046875 102.011719 138.957031 102.136719 138.941406 C 102.527344 138.90625 102.871094 138.828125 103.25 138.664062 C 103.796875 138.441406 106.136719 136.84375 106.769531 136.445312 L 107.105469 136.238281 C 107.242188 136.140625 107.324219 136.230469 107.195312 136.339844 C 107.082031 136.445312 106.980469 136.566406 106.980469 136.566406 L 106.761719 136.789062 C 106.046875 137.558594 105.285156 138.285156 104.515625 138.964844 C 103.304688 140.085938 101.996094 141.125 100.644531 142.078125 C 100.21875 142.421875 99.753906 142.738281 99.320312 143.082031 L 95.621094 143.761719 C 95.71875 143.523438 95.785156 143.125 95.726562 142.796875 Z M 94.164062 143.722656 C 94.015625 143.933594 93.792969 144.074219 93.539062 144.121094 L 93.394531 144.140625 C 92.871094 144.230469 92.363281 143.878906 92.273438 143.351562 L 89.980469 130.089844 C 90.152344 130.183594 90.332031 130.238281 90.503906 130.238281 C 90.632812 130.238281 90.765625 130.230469 90.902344 130.207031 C 91.328125 130.15625 91.753906 130 92.027344 129.664062 L 94.324219 142.992188 C 94.367188 143.253906 94.316406 143.507812 94.164062 143.722656 Z M 99.632812 108.390625 C 100.269531 108.6875 101.21875 108.832031 102.019531 108.414062 C 102.445312 108.226562 102.726562 107.890625 102.726562 107.425781 C 102.726562 107.226562 102.632812 107.054688 102.445312 106.925781 L 102.027344 106.738281 C 101.882812 106.679688 101.773438 106.46875 101.816406 106.246094 C 101.839844 106.132812 101.898438 105.910156 101.949219 105.804688 C 102.234375 105.082031 102.714844 104.445312 103.355469 103.96875 L 103.378906 103.945312 L 104.761719 105.609375 C 104.84375 105.804688 104.878906 105.992188 104.917969 106.207031 C 104.984375 106.484375 104.886719 106.679688 104.707031 106.769531 C 104.679688 106.792969 104.648438 106.792969 104.625 106.804688 C 104.589844 106.820312 104.347656 106.917969 104.328125 106.941406 C 104.042969 107.105469 103.984375 107.34375 104.074219 107.636719 C 104.164062 107.941406 104.34375 108.179688 104.632812 108.375 C 105.460938 108.855469 106.398438 108.742188 107.128906 108.367188 C 107.21875 108.316406 107.359375 108.234375 107.457031 108.128906 C 107.652344 107.933594 107.757812 107.753906 107.757812 107.472656 C 107.757812 107.375 107.75 107.292969 107.734375 107.210938 C 107.726562 107.15625 107.71875 107.105469 107.71875 107.058594 C 107.71875 106.867188 107.792969 106.695312 107.867188 106.507812 C 107.972656 106.203125 108.175781 105.96875 108.496094 105.804688 C 108.863281 105.625 109.273438 105.574219 109.742188 105.65625 C 109.78125 105.65625 109.8125 105.664062 109.839844 105.664062 L 109.804688 105.738281 C 109.519531 105.859375 109.304688 106.089844 109.101562 106.402344 C 109.054688 106.484375 108.996094 106.539062 108.964844 106.613281 C 108.9375 106.679688 108.90625 106.746094 108.863281 106.835938 C 108.652344 107.292969 108.527344 107.808594 108.480469 108.339844 C 108.457031 108.628906 108.414062 109.039062 108.414062 109.355469 L 108.160156 109.332031 C 106.996094 109.28125 106.039062 109.226562 104.992188 109.210938 C 104.363281 109.203125 103.730469 109.175781 103.109375 109.175781 L 103.003906 109.175781 L 100.054688 109.292969 C 100.054688 109.292969 98.699219 109.324219 98.535156 109.332031 C 98.371094 109.339844 98.351562 109.25 98.34375 109.199219 C 98.320312 109.003906 98.3125 108.808594 98.296875 108.621094 C 98.253906 108.25 98.171875 107.867188 98.089844 107.480469 L 98.035156 107.328125 C 97.96875 107.121094 97.894531 106.890625 97.796875 106.695312 C 97.648438 106.285156 97.339844 105.933594 96.96875 105.730469 C 97.355469 105.664062 97.75 105.707031 98.09375 105.851562 C 98.550781 106.042969 99.023438 106.46875 99.03125 106.890625 C 99.042969 107.269531 98.960938 107.246094 98.960938 107.515625 C 98.960938 107.957031 99.464844 108.308594 99.632812 108.390625 Z M 108.367188 110.921875 C 108.367188 111.230469 108.339844 111.257812 108.078125 111.253906 C 107.816406 111.238281 106.910156 111.140625 106.425781 111.109375 C 104.183594 110.976562 103.078125 110.96875 101.613281 111.019531 C 99.894531 111.082031 98.878906 111.222656 98.878906 111.222656 L 98.550781 111.222656 C 98.445312 111.222656 98.417969 111.019531 98.417969 110.878906 C 98.417969 110.722656 98.425781 110.558594 98.425781 110.421875 C 98.425781 110.355469 98.484375 110.316406 98.550781 110.316406 C 98.617188 110.316406 100.21875 110.234375 100.21875 110.234375 C 100.457031 110.222656 100.703125 110.207031 100.941406 110.183594 C 101.433594 110.144531 101.621094 110.117188 102.636719 110.101562 C 104.175781 110.078125 105.679688 110.117188 106.457031 110.160156 C 107.242188 110.214844 108.183594 110.3125 108.183594 110.3125 C 108.347656 110.3125 108.355469 110.378906 108.355469 110.378906 C 108.367188 110.414062 108.367188 110.839844 108.367188 110.921875 Z M 103.40625 112.269531 C 110.632812 112.269531 112.917969 114.21875 114.78125 115.683594 C 115.132812 115.960938 115.429688 116.265625 115.765625 116.535156 C 115.9375 116.699219 116.101562 116.742188 116.410156 116.640625 C 119.507812 115.578125 123.355469 116.414062 125.308594 118.191406 C 117.335938 118.199219 89.90625 118.199219 81.507812 118.199219 C 83.59375 116.398438 87.449219 115.578125 90.550781 116.640625 C 90.855469 116.722656 91.011719 116.683594 91.191406 116.535156 C 91.527344 116.265625 91.828125 115.960938 92.179688 115.683594 C 93.972656 114.253906 96.175781 112.269531 103.40625 112.269531 Z M 106.835938 79.828125 C 106.835938 79.339844 106.917969 78.871094 107.070312 78.453125 C 107.089844 78.40625 107.113281 78.355469 107.136719 78.292969 C 107.152344 78.25 107.171875 78.207031 107.195312 78.160156 L 107.210938 78.121094 C 107.261719 78.019531 107.332031 77.890625 107.339844 77.867188 L 131.246094 77.867188 C 131.605469 77.867188 131.898438 78.160156 131.898438 78.519531 L 131.898438 117.894531 C 131.898438 118.164062 131.828125 118.199219 131.457031 118.199219 L 127.488281 118.199219 C 127.488281 118.199219 127.40625 118.199219 127.273438 118.199219 C 124.84375 115.449219 120.519531 114.046875 116.519531 115.195312 C 116.402344 115.234375 116.265625 115.203125 116.167969 115.113281 C 116.003906 114.980469 115.863281 114.816406 115.675781 114.679688 C 114.183594 113.523438 112.636719 112.28125 109.527344 111.527344 C 109.519531 111.417969 109.511719 111.320312 109.511719 111.273438 L 109.511719 108.90625 C 109.511719 108.414062 109.59375 107.890625 109.757812 107.410156 C 109.796875 107.226562 109.871094 107.03125 109.96875 106.875 C 109.992188 106.851562 110.019531 106.804688 110.050781 106.769531 C 110.066406 106.746094 110.078125 106.722656 110.09375 106.710938 C 110.132812 106.664062 110.246094 106.632812 110.296875 106.648438 L 110.527344 106.769531 C 110.648438 106.851562 110.738281 106.890625 110.8125 106.933594 C 110.894531 107 111.007812 107 111.105469 107 C 111.425781 107 111.65625 106.777344 111.65625 106.449219 C 111.65625 106.195312 111.65625 105.976562 111.566406 105.707031 C 111.378906 105.101562 110.953125 104.632812 110.417969 104.421875 C 109.757812 104.140625 108.996094 104.109375 108.21875 104.332031 C 107.59375 104.511719 107.039062 104.953125 106.746094 105.492188 C 106.703125 105.550781 106.726562 105.609375 106.695312 105.679688 L 106.695312 100.296875 C 106.769531 100.296875 111.933594 100.292969 111.933594 100.292969 C 112.808594 100.296875 113.464844 100.6875 114.046875 101.039062 C 114.210938 101.164062 114.382812 101.269531 114.554688 101.359375 C 114.617188 101.398438 114.875 101.5625 114.964844 101.5625 C 115.0625 101.5625 115.132812 101.496094 115.144531 101.480469 C 115.226562 101.398438 115.226562 101.300781 115.226562 101.253906 L 115.226562 100.84375 C 115.273438 98.535156 115.21875 94.554688 115.21875 92.984375 L 115.214844 92.9375 C 115.175781 92.820312 115.070312 92.773438 115.019531 92.753906 C 114.964844 92.730469 114.882812 92.714844 114.75 92.789062 C 114.75 92.789062 114.21875 93.199219 114.136719 93.238281 C 113.5625 93.625 112.917969 93.835938 112.1875 93.875 C 111.785156 93.917969 111.371094 93.917969 110.96875 93.917969 L 107.660156 93.917969 C 107.515625 93.917969 107.023438 93.902344 106.875 93.894531 C 106.71875 93.886719 106.710938 93.703125 106.710938 93.542969 L 106.710938 90.40625 C 106.710938 90.234375 106.777344 90.195312 106.917969 90.195312 C 107.0625 90.195312 109.699219 90.195312 109.699219 90.195312 C 110.402344 90.195312 111.117188 90.390625 111.722656 90.75 C 111.933594 90.878906 112.121094 90.972656 112.367188 91.09375 L 112.53125 91.175781 L 112.628906 91.214844 C 112.746094 91.265625 112.90625 91.152344 112.941406 91.003906 C 112.980469 90.890625 112.972656 90.636719 112.972656 90.578125 L 112.964844 83.367188 L 112.964844 82.988281 C 112.964844 82.777344 112.800781 82.734375 112.695312 82.746094 C 112.644531 82.753906 112.476562 82.816406 112.476562 82.816406 C 112.261719 82.898438 112.046875 83.023438 111.835938 83.152344 C 111.296875 83.503906 110.664062 83.621094 110.011719 83.660156 C 109.398438 83.695312 108.773438 83.695312 108.175781 83.695312 C 108.175781 83.695312 107.226562 83.6875 107.015625 83.6875 C 106.808594 83.6875 106.828125 83.601562 106.828125 83.433594 L 106.828125 79.828125 Z M 101.078125 78.054688 C 101.078125 78.054688 101.039062 77.953125 101.039062 77.863281 L 105.714844 77.882812 C 105.710938 77.964844 105.679688 78.109375 105.65625 78.175781 C 105.492188 78.742188 105.402344 79.414062 105.402344 80.410156 C 105.402344 80.410156 105.402344 84.480469 105.402344 84.5625 C 105.402344 84.644531 105.402344 84.773438 105.507812 84.871094 C 105.613281 84.972656 105.761719 84.972656 106.054688 84.972656 L 109.363281 84.972656 C 109.742188 85.011719 110.164062 84.980469 110.632812 84.890625 C 110.886719 84.855469 111.097656 84.808594 111.335938 84.726562 C 111.386719 84.71875 111.425781 84.714844 111.46875 84.707031 C 111.5 84.699219 111.535156 84.691406 111.558594 84.691406 L 111.582031 84.691406 L 111.582031 89.152344 C 111.542969 89.144531 111.515625 89.136719 111.484375 89.128906 C 111.449219 89.121094 111.402344 89.113281 111.359375 89.089844 C 110.804688 88.925781 110.25 88.835938 109.667969 88.835938 L 105.992188 88.835938 L 105.894531 88.84375 C 105.441406 88.882812 105.410156 88.964844 105.410156 89.472656 L 105.410156 94.890625 C 105.410156 95.046875 105.550781 95.160156 105.679688 95.160156 L 109.09375 95.160156 L 111.925781 95.113281 C 112.472656 95.152344 113.03125 95.082031 113.621094 94.902344 C 113.726562 94.875 113.785156 94.851562 113.847656 94.828125 C 113.929688 94.800781 113.964844 94.820312 113.957031 94.890625 C 113.949219 94.957031 113.964844 95.046875 113.964844 95.136719 L 113.964844 99.273438 C 113.957031 99.320312 113.929688 99.320312 113.90625 99.3125 C 113.875 99.304688 113.839844 99.289062 113.800781 99.273438 L 113.742188 99.253906 C 113.195312 99.089844 112.613281 99 112.007812 99 L 106.21875 99 C 106.128906 99 106.023438 98.992188 105.894531 98.992188 C 105.597656 99 105.457031 99.164062 105.441406 99.304688 C 105.417969 99.445312 105.417969 99.589844 105.417969 99.761719 L 105.417969 104.511719 C 105.417969 104.511719 105.34375 104.199219 105.230469 103.96875 C 105.097656 103.691406 104.4375 103.054688 103.976562 102.75 C 103.683594 102.488281 103.191406 102.503906 102.890625 102.726562 C 102.4375 103.035156 102.101562 103.316406 101.667969 103.847656 C 101.601562 103.953125 101.382812 104.273438 101.390625 104.503906 L 101.390625 99.238281 C 101.390625 99.082031 101.210938 98.976562 101.085938 98.976562 L 95.203125 98.976562 C 94.824219 98.976562 94.5 98.976562 94.136719 99.019531 C 93.761719 99.019531 93.386719 99.089844 92.960938 99.230469 C 92.910156 99.246094 92.84375 99.269531 92.84375 99.183594 L 92.84375 94.808594 C 92.878906 94.816406 92.910156 94.820312 92.941406 94.828125 C 92.984375 94.835938 93.023438 94.84375 93.066406 94.867188 C 93.292969 94.941406 93.554688 94.988281 93.777344 95.015625 L 93.867188 95.03125 C 94.0625 95.070312 94.328125 95.121094 94.589844 95.121094 L 100.546875 95.121094 C 100.636719 95.121094 100.734375 95.113281 100.832031 95.097656 C 100.917969 95.089844 101.003906 95.074219 101.085938 95.074219 C 101.25 95.074219 101.390625 94.925781 101.390625 94.769531 L 101.390625 89.144531 C 101.390625 89.046875 101.292969 88.933594 101.195312 88.890625 C 101.113281 88.828125 101.046875 88.828125 101.003906 88.828125 L 97.304688 88.828125 C 96.527344 88.828125 95.792969 88.988281 95.265625 89.121094 L 95.085938 89.160156 L 95.0625 89.160156 L 95.0625 84.683594 L 95.285156 84.71875 C 95.824219 84.886719 96.382812 84.972656 96.929688 84.972656 L 100.578125 84.972656 C 100.746094 84.972656 100.925781 84.972656 101.136719 84.914062 C 101.226562 84.871094 101.375 84.796875 101.375 84.617188 L 101.375 80.273438 C 101.40625 79.601562 101.308594 78.847656 101.078125 78.054688 Z M 74.800781 78.519531 C 74.800781 78.160156 75.089844 77.867188 75.449219 77.867188 L 99.320312 77.867188 C 99.34375 77.890625 99.417969 77.964844 99.441406 78.019531 C 99.46875 78.078125 99.5 78.128906 99.523438 78.199219 C 99.710938 78.652344 99.804688 79.078125 99.804688 79.476562 C 99.84375 79.839844 99.84375 80.207031 99.84375 80.574219 L 99.84375 83.464844 C 99.84375 83.675781 99.820312 83.734375 99.664062 83.734375 L 97.25 83.734375 C 96.878906 83.734375 96.5625 83.6875 96.210938 83.613281 C 95.695312 83.496094 95.210938 83.292969 94.777344 83.015625 C 94.679688 82.957031 94.582031 82.898438 94.496094 82.835938 C 94.398438 82.769531 94.308594 82.710938 94.226562 82.671875 C 94.144531 82.589844 94.046875 82.589844 94 82.589844 C 93.859375 82.589844 93.808594 82.660156 93.785156 82.710938 C 93.730469 82.792969 93.730469 82.890625 93.730469 82.933594 C 93.730469 82.933594 93.730469 90.808594 93.730469 90.855469 C 93.730469 90.890625 93.738281 90.914062 93.738281 90.921875 C 93.808594 91.144531 94.039062 91.101562 94.105469 91.0625 C 94.105469 91.0625 94.242188 91.003906 94.285156 90.964844 L 94.972656 90.601562 C 95.5625 90.265625 96.207031 90.136719 96.832031 90.136719 L 99.785156 90.136719 C 99.890625 90.136719 99.972656 90.128906 99.972656 90.226562 C 100.007812 91.175781 100 93.246094 99.992188 93.738281 C 99.992188 93.8125 99.925781 93.875 99.859375 93.875 L 94.578125 93.875 C 93.949219 93.875 93.269531 93.671875 92.722656 93.320312 C 92.722656 93.320312 91.886719 92.84375 91.871094 92.835938 C 91.828125 92.820312 91.789062 92.8125 91.746094 92.804688 C 91.550781 92.789062 91.476562 92.9375 91.476562 93.074219 L 91.476562 101.039062 C 91.476562 101.1875 91.65625 101.261719 91.746094 101.261719 C 91.796875 101.261719 91.910156 101.261719 91.984375 101.195312 C 92.222656 101.074219 92.476562 100.949219 92.707031 100.792969 C 93.367188 100.441406 93.984375 100.277344 94.613281 100.277344 L 99.589844 100.277344 L 99.976562 100.296875 L 99.976562 105.941406 C 99.972656 105.933594 99.972656 105.917969 99.964844 105.910156 C 99.941406 105.859375 99.910156 105.804688 99.882812 105.730469 C 99.546875 104.960938 98.804688 104.421875 97.921875 104.289062 C 97.371094 104.207031 96.804688 104.25 96.300781 104.414062 C 95.683594 104.59375 95.144531 105.125 94.972656 105.738281 C 94.859375 106.066406 94.867188 106.410156 94.890625 106.558594 L 94.941406 106.730469 C 95.003906 106.890625 95.09375 106.949219 95.226562 107.015625 C 95.367188 107.082031 95.523438 107.089844 95.667969 107.03125 C 95.703125 107.007812 95.75 106.992188 95.800781 106.972656 C 95.855469 106.949219 95.90625 106.925781 95.9375 106.910156 C 96.019531 106.890625 96.078125 106.84375 96.128906 106.820312 C 96.175781 106.792969 96.21875 106.769531 96.25 106.753906 C 96.382812 106.722656 96.429688 106.769531 96.480469 106.84375 C 96.585938 106.949219 96.660156 107.097656 96.742188 107.246094 C 96.847656 107.5 96.980469 107.832031 97.019531 108.160156 C 97.058594 108.398438 97.101562 108.644531 97.101562 108.875 C 97.101562 108.875 97.101562 111.492188 97.101562 111.558594 L 97.101562 111.597656 C 94.054688 112.371094 92.625 113.613281 91.257812 114.6875 C 91.132812 114.792969 91.011719 114.914062 90.894531 115.011719 C 90.722656 115.160156 90.480469 115.210938 90.257812 115.152344 C 86.296875 114.078125 81.914062 115.488281 79.519531 118.207031 L 75.5 118.207031 C 74.859375 118.207031 74.800781 118.042969 74.800781 117.503906 Z M 74.800781 120.195312 C 74.800781 119.828125 74.859375 119.710938 75.195312 119.710938 L 122.558594 119.703125 L 124.746094 119.703125 C 122.835938 121.636719 119.636719 124.738281 119.070312 125.230469 C 117.96875 126.171875 116.84375 127.070312 115.675781 127.75 C 115.398438 127.914062 115.109375 128.054688 114.808594 128.183594 L 114.167969 125.121094 C 114.003906 124.183594 113.105469 123.558594 112.171875 123.714844 L 92.410156 127.128906 L 92.410156 127.136719 C 92.042969 127.1875 91.753906 127.503906 91.738281 127.882812 C 91.714844 128.734375 91.175781 128.929688 90.730469 128.988281 C 90.585938 129.011719 89.953125 129.167969 89.667969 128.308594 C 89.53125 127.898438 89.195312 127.644531 88.777344 127.773438 C 88.433594 127.875 88.21875 128.199219 88.226562 128.542969 C 88.226562 128.550781 88.226562 128.554688 88.226562 128.554688 C 88.226562 128.578125 88.226562 128.601562 88.234375 128.617188 C 88.234375 128.644531 88.234375 128.667969 88.242188 128.699219 L 90.78125 143.425781 C 90.996094 144.65625 91.976562 145.554688 93.1875 145.554688 C 93.328125 145.554688 93.476562 145.539062 93.621094 145.515625 L 93.761719 145.496094 C 93.835938 145.480469 93.972656 145.457031 93.972656 145.457031 L 98.230469 144.6875 C 98.261719 145.046875 98.453125 145.277344 98.5 145.292969 C 98.878906 145.605469 99.335938 145.785156 99.8125 145.785156 C 100.164062 145.792969 100.554688 145.761719 100.898438 145.644531 L 101.234375 145.523438 C 101.449219 145.457031 101.667969 145.488281 101.890625 145.554688 L 102.070312 145.621094 C 102.570312 145.792969 103.058594 145.949219 103.535156 145.90625 L 104.140625 145.851562 C 104.355469 145.832031 104.582031 145.859375 104.769531 145.972656 C 105.269531 146.1875 105.804688 146.316406 106.328125 146.308594 C 106.726562 146.316406 107.160156 146.277344 107.546875 146.195312 C 107.9375 146.113281 108.367188 146.078125 108.765625 146.128906 C 109.691406 146.175781 110.753906 146.332031 111.65625 146.160156 C 112.089844 146.078125 112.515625 145.949219 112.941406 145.824219 L 114.21875 145.398438 C 114.4375 145.328125 114.601562 145.234375 114.808594 145.121094 C 115.511719 144.703125 116.132812 143.941406 116.59375 143.238281 L 116.820312 142.863281 C 118 140.914062 119.070312 138.964844 120.25 137.015625 C 120.785156 136.175781 121.371094 135.421875 122.058594 134.75 C 122.738281 134.070312 123.46875 133.433594 124.296875 132.917969 L 131.539062 127.777344 C 131.644531 127.695312 131.777344 127.605469 131.890625 127.554688 L 131.890625 140.742188 C 131.890625 149.679688 124.679688 156.328125 119.832031 158.621094 C 112.210938 162.222656 109.59375 163.367188 103.855469 165.890625 L 103.617188 165.996094 C 103.453125 166.0625 103.273438 166.0625 103.117188 165.996094 L 101.449219 165.273438 C 96.683594 163.179688 93.808594 161.925781 86.835938 158.628906 C 81.988281 156.335938 74.777344 149.6875 74.777344 140.75 L 74.777344 120.195312 Z M 74.800781 120.195312 " fill-opacity="1" fill-rule="nonzero"/><path fill="#0d274e" d="M 603.683594 83.964844 L 603.730469 84.128906 C 604.347656 84.003906 605.960938 83.964844 606.621094 83.964844 L 621.792969 83.964844 C 621.792969 83.59375 623.078125 81.121094 623.28125 80.699219 L 623.074219 80.492188 C 620.464844 82.464844 616.207031 83.003906 611.664062 83.003906 C 610.550781 83.003906 609.429688 83.003906 608.316406 82.957031 C 608.195312 80.273438 608.234375 76.800781 608.234375 70.351562 L 608.234375 70.308594 C 617.410156 70.308594 617.828125 70.644531 618.402344 72.109375 L 618.613281 71.980469 C 618.449219 71.1875 618.402344 70.679688 618.402344 69.808594 C 618.402344 68.96875 618.441406 68.378906 618.613281 67.589844 L 618.402344 67.542969 C 617.945312 69.007812 617.453125 69.21875 608.234375 69.34375 C 608.234375 63.480469 608.195312 60.796875 608.316406 57.449219 C 609.472656 57.320312 610.585938 57.367188 611.625 57.367188 C 615.800781 57.367188 619.066406 57.996094 621.175781 59.96875 L 621.382812 59.757812 C 621.136719 59.175781 620.390625 56.992188 620.390625 56.492188 L 606.621094 56.492188 C 606 56.492188 604.304688 56.492188 603.730469 56.285156 L 603.683594 56.492188 C 604.511719 56.785156 604.925781 57.375 604.96875 58.25 C 605.097656 60.929688 605.050781 63.734375 605.050781 70.226562 C 605.050781 76.800781 605.097656 79.4375 604.96875 82.164062 C 604.925781 82.875 604.511719 83.503906 603.683594 83.964844 Z M 603.683594 83.964844 " fill-opacity="1" fill-rule="nonzero"/><path fill="#0d274e" d="M 644.410156 49.867188 C 644.410156 50.828125 645.160156 51.5 646.023438 51.5 C 646.972656 51.5 647.675781 50.828125 647.675781 49.867188 C 647.675781 48.984375 646.972656 48.230469 646.023438 48.230469 C 645.160156 48.230469 644.410156 48.984375 644.410156 49.867188 Z M 644.410156 49.867188 " fill-opacity="1" fill-rule="nonzero"/><path fill="#0d274e" d="M 657.933594 70.226562 C 657.933594 61.34375 651.070312 55.648438 643.089844 55.648438 C 635.066406 55.648438 628.207031 61.34375 628.207031 70.226562 C 628.207031 79.109375 635.070312 84.800781 643.089844 84.800781 C 651.070312 84.800781 657.933594 79.101562 657.933594 70.226562 Z M 643.089844 83.539062 C 636.925781 83.539062 631.679688 78.472656 631.679688 70.21875 C 631.679688 61.96875 636.933594 56.894531 643.089844 56.894531 C 649.207031 56.894531 654.414062 61.960938 654.414062 70.21875 C 654.414062 78.472656 649.207031 83.539062 643.089844 83.539062 Z M 643.089844 83.539062 " fill-opacity="1" fill-rule="nonzero"/><path fill="#0d274e" d="M 638.417969 49.867188 C 638.417969 50.828125 639.085938 51.5 640.03125 51.5 C 640.980469 51.5 641.683594 50.828125 641.683594 49.867188 C 641.683594 48.984375 640.980469 48.230469 640.03125 48.230469 C 639.078125 48.230469 638.417969 48.984375 638.417969 49.867188 Z M 638.417969 49.867188 " fill-opacity="1" fill-rule="nonzero"/><path fill="#0d274e" d="M 660.085938 59.796875 L 660.296875 59.960938 C 663.105469 57.996094 666.496094 57.449219 670.425781 57.488281 L 670.425781 70.21875 C 670.425781 76.792969 670.472656 79.429688 670.34375 82.15625 C 670.300781 82.996094 669.890625 83.496094 669.023438 83.957031 L 669.066406 84.121094 C 669.644531 83.996094 671.339844 83.957031 672.003906 83.957031 C 672.667969 83.957031 674.320312 84.003906 674.894531 84.121094 L 674.976562 83.957031 C 674.109375 83.539062 673.691406 82.949219 673.65625 82.15625 C 673.527344 79.4375 673.574219 76.792969 673.574219 70.21875 L 673.574219 57.488281 C 677.539062 57.441406 680.851562 57.90625 683.660156 59.960938 L 683.867188 59.75 C 683.660156 59.203125 682.875 56.820312 682.875 56.484375 L 661.082031 56.484375 C 661.082031 56.820312 660.296875 59.25 660.085938 59.796875 Z M 660.085938 59.796875 " fill-opacity="1" fill-rule="nonzero"/><path fill="#0d274e" d="M 710.691406 56.484375 C 709.824219 56.484375 708.957031 56.441406 708.292969 56.277344 L 708.257812 56.484375 C 709.332031 56.902344 709.707031 57.492188 709.371094 58.242188 C 708.257812 60.921875 707.300781 63.480469 704.328125 69.84375 C 701.890625 75.082031 701.0625 77.21875 699.738281 80.019531 C 698.417969 77.257812 697.960938 76.082031 695.105469 69.84375 C 692.253906 63.480469 690.890625 60.960938 689.773438 58.242188 C 689.441406 57.53125 689.816406 56.941406 690.882812 56.484375 L 690.839844 56.277344 C 690.21875 56.484375 688.03125 56.484375 687.285156 56.484375 C 686.453125 56.484375 684.839844 56.441406 684.054688 56.277344 L 683.972656 56.484375 C 684.757812 56.695312 685.832031 57.742188 686.453125 58.957031 C 687.777344 61.679688 688.6875 63.523438 691.660156 69.851562 C 694.679688 76.261719 697.125 81.621094 698.273438 84.300781 L 698.847656 84.300781 C 699.960938 81.621094 702.40625 76.261719 705.425781 69.851562 C 708.398438 63.53125 709.554688 61.347656 710.878906 58.628906 C 711.5 57.410156 712.246094 56.703125 713.113281 56.492188 L 713.066406 56.285156 C 712.304688 56.441406 711.484375 56.484375 710.691406 56.484375 Z M 710.691406 56.484375 " fill-opacity="1" fill-rule="nonzero"/><path fill="#0d274e" d="M 734.59375 49.867188 C 734.59375 48.984375 733.890625 48.230469 732.941406 48.230469 C 732.074219 48.230469 731.328125 48.984375 731.328125 49.867188 C 731.328125 50.828125 732.074219 51.5 732.941406 51.5 C 733.890625 51.5 734.59375 50.828125 734.59375 49.867188 Z M 734.59375 49.867188 " fill-opacity="1" fill-rule="nonzero"/><path fill="#0d274e" d="M 728.601562 49.867188 C 728.601562 48.984375 727.898438 48.230469 726.949219 48.230469 C 726 48.230469 725.335938 48.984375 725.335938 49.867188 C 725.335938 50.828125 725.992188 51.5 726.949219 51.5 C 727.898438 51.5 728.601562 50.828125 728.601562 49.867188 Z M 728.601562 49.867188 " fill-opacity="1" fill-rule="nonzero"/><path fill="#0d274e" d="M 715.121094 70.226562 C 715.121094 79.109375 721.988281 84.800781 730.007812 84.800781 C 737.984375 84.800781 744.851562 79.109375 744.851562 70.226562 C 744.851562 61.34375 737.984375 55.648438 730.007812 55.648438 C 721.980469 55.648438 715.121094 61.34375 715.121094 70.226562 Z M 730.007812 56.902344 C 736.125 56.902344 741.332031 61.96875 741.332031 70.226562 C 741.332031 78.472656 736.125 83.546875 730.007812 83.546875 C 723.84375 83.546875 718.597656 78.480469 718.597656 70.226562 C 718.597656 61.96875 723.84375 56.902344 730.007812 56.902344 Z M 730.007812 56.902344 " fill-opacity="1" fill-rule="nonzero"/><path fill="#0d274e" d="M 768.917969 76.671875 C 768.917969 71.1875 764.703125 69.300781 760.773438 67.753906 C 757.425781 66.289062 754.324219 65.113281 754.324219 61.722656 C 754.324219 58.703125 756.679688 56.902344 759.824219 56.902344 C 762.761719 56.902344 765.363281 58.03125 767.058594 61.515625 L 767.222656 61.304688 L 766.847656 57.832031 C 765.363281 56.449219 763.210938 55.65625 760.0625 55.65625 C 755.433594 55.65625 751.671875 58.257812 751.671875 63.195312 C 751.671875 67.46875 755.4375 69.058594 759.117188 70.652344 C 762.628906 72.199219 766.019531 73.707031 766.019531 77.609375 C 766.019531 81.125 763.410156 83.601562 759.652344 83.601562 C 756.589844 83.601562 753.324219 81.71875 751.34375 77.816406 L 751.015625 77.980469 L 751.71875 82.046875 C 753.371094 83.59375 756.597656 84.808594 759.535156 84.808594 C 764.488281 84.800781 768.917969 81.703125 768.917969 76.671875 Z M 768.917969 76.671875 " fill-opacity="1" fill-rule="nonzero"/><path fill="#0d274e" d="M 806.664062 80.691406 L 806.457031 80.484375 C 803.644531 82.621094 799.550781 83.039062 794.882812 82.996094 C 794.097656 82.996094 793.269531 82.996094 792.4375 82.949219 C 792.3125 80.265625 792.355469 76.75 792.355469 70.21875 C 792.355469 63.726562 792.320312 60.914062 792.4375 58.242188 C 792.484375 57.359375 792.894531 56.777344 793.722656 56.484375 L 793.679688 56.277344 C 793.140625 56.484375 791.40625 56.484375 790.789062 56.484375 C 790.167969 56.484375 788.472656 56.484375 787.851562 56.277344 L 787.804688 56.484375 C 788.636719 56.777344 789.046875 57.367188 789.089844 58.242188 C 789.21875 60.921875 789.171875 63.726562 789.171875 70.21875 C 789.171875 76.792969 789.21875 79.429688 789.089844 82.15625 C 789.054688 82.867188 788.636719 83.496094 787.804688 83.957031 L 787.851562 84.121094 C 788.472656 83.996094 790.085938 83.957031 790.742188 83.957031 L 805.214844 83.957031 C 805.222656 83.539062 806.464844 81.113281 806.664062 80.691406 Z M 806.664062 80.691406 " fill-opacity="1" fill-rule="nonzero"/><path fill="#0d274e" d="M 807.578125 70.226562 C 807.578125 79.109375 814.441406 84.800781 822.460938 84.800781 C 830.4375 84.800781 837.304688 79.109375 837.304688 70.226562 C 837.304688 61.34375 830.4375 55.648438 822.460938 55.648438 C 814.441406 55.648438 807.578125 61.34375 807.578125 70.226562 Z M 833.792969 70.226562 C 833.792969 78.472656 828.585938 83.546875 822.46875 83.546875 C 816.304688 83.546875 811.058594 78.480469 811.058594 70.226562 C 811.058594 61.976562 816.308594 56.902344 822.46875 56.902344 C 828.578125 56.902344 833.792969 61.96875 833.792969 70.226562 Z M 833.792969 70.226562 " fill-opacity="1" fill-rule="nonzero"/><path fill="#0d274e" d="M 864.179688 83.457031 C 863.972656 83.503906 863.808594 83.539062 863.726562 83.539062 C 862.027344 83.539062 860.460938 80.730469 858.847656 77.757812 C 857.113281 74.785156 855.253906 71.472656 852.765625 70.800781 C 857.269531 70.128906 861.035156 67.78125 861.035156 63.261719 C 861.035156 59.488281 857.769531 56.304688 850.246094 56.304688 C 849.589844 56.304688 845.824219 56.351562 844.457031 56.46875 L 844.457031 56.632812 C 845.242188 56.679688 845.652344 57.179688 845.695312 58.226562 C 845.824219 60.910156 845.777344 63.710938 845.777344 70.203125 C 845.777344 76.777344 845.816406 79.414062 845.695312 82.144531 C 845.652344 82.933594 845.242188 83.523438 844.375 83.945312 L 844.457031 84.109375 C 845.074219 83.980469 846.773438 83.945312 847.390625 83.945312 C 848.050781 83.945312 849.707031 83.988281 850.285156 84.109375 L 850.328125 83.945312 C 849.542969 83.570312 849.125 82.933594 849.089844 82.144531 C 848.960938 79.542969 848.960938 76.824219 848.960938 71.085938 C 849.417969 71.039062 849.707031 71.039062 850.164062 71.039062 C 850.539062 71.039062 850.910156 71.039062 851.277344 71.085938 C 853.265625 71.628906 854.167969 74.222656 855.289062 76.949219 C 856.613281 80.515625 858.097656 84.324219 861.617188 84.324219 C 862.566406 84.324219 863.480469 84.28125 864.261719 83.652344 Z M 850.246094 69.84375 C 849.789062 69.84375 849.417969 69.84375 848.960938 69.800781 C 848.960938 64.269531 848.960938 59.914062 849.089844 57.402344 C 854.503906 57.402344 857.652344 58.785156 857.652344 63.269531 C 857.652344 67.796875 854.757812 69.84375 850.246094 69.84375 Z M 850.246094 69.84375 " fill-opacity="1" fill-rule="nonzero"/><path fill="#0d274e" d="M 869.023438 83.964844 C 867.992188 83.503906 867.617188 82.875 867.910156 82.164062 C 868.695312 80.191406 869.441406 78.4375 870.882812 75.253906 L 884.316406 75.253906 C 885.847656 78.4375 886.671875 80.28125 887.460938 82.164062 C 887.753906 82.875 887.417969 83.503906 886.386719 83.964844 L 886.425781 84.128906 C 887.089844 84.003906 889.195312 83.964844 889.980469 83.964844 C 890.847656 83.964844 892.421875 84.011719 893.246094 84.128906 L 893.289062 83.964844 C 892.460938 83.675781 891.476562 82.710938 890.847656 81.492188 C 889.398438 78.808594 888.53125 76.972656 885.558594 70.597656 C 882.582031 64.1875 880.058594 58.785156 878.980469 56.148438 L 878.40625 56.148438 C 877.25 58.832031 874.851562 64.1875 871.832031 70.597656 C 868.859375 76.925781 867.820312 79.101562 866.371094 81.785156 C 865.75 83.085938 865.003906 83.667969 864.136719 83.964844 L 864.21875 84.128906 C 865.003906 84.003906 865.832031 83.964844 866.617188 83.964844 C 867.445312 83.964844 868.3125 84.011719 868.96875 84.128906 Z M 872.953125 70.597656 C 875.394531 65.324219 876.21875 63.1875 877.539062 60.421875 C 878.863281 63.1875 879.320312 64.359375 882.171875 70.597656 C 882.792969 71.898438 883.332031 73.070312 883.785156 74.117188 L 871.339844 74.117188 C 871.792969 73.070312 872.332031 71.945312 872.953125 70.597656 Z M 872.953125 70.597656 " fill-opacity="1" fill-rule="nonzero"/><path fill="#0d274e" d="M 883.945312 50.121094 L 883.078125 47.902344 C 881.214844 49.363281 878.527344 50.875 876.335938 51.753906 L 876.457031 52.046875 C 878.324219 51.710938 882.046875 50.910156 883.945312 50.121094 Z M 883.945312 50.121094 " fill-opacity="1" fill-rule="nonzero"/><path fill="#0d274e" d="M 921.488281 58.242188 C 921.617188 57.277344 921.898438 56.8125 922.730469 56.484375 L 922.691406 56.277344 C 922.070312 56.441406 921.242188 56.484375 920.621094 56.484375 C 919.964844 56.484375 919.132812 56.441406 918.515625 56.277344 L 918.476562 56.484375 C 919.34375 56.820312 919.636719 57.277344 919.761719 58.242188 C 919.972656 60.921875 920.089844 63.726562 920.089844 70.21875 C 920.089844 75.328125 920.136719 77.085938 920.253906 79.429688 C 916.40625 75.121094 912.648438 70.882812 910.871094 68.835938 C 909.09375 66.824219 905 62.089844 900.203125 56.476562 L 899.535156 56.476562 C 898.25 56.476562 896.808594 56.433594 895.816406 56.269531 L 895.769531 56.476562 C 896.71875 56.851562 897.21875 57.523438 897.257812 58.488281 C 897.382812 61.171875 897.339844 63.726562 897.339844 70.21875 C 897.339844 76.792969 897.296875 79.429688 897.09375 82.15625 C 897.046875 82.949219 896.636719 83.585938 895.808594 83.957031 L 895.851562 84.121094 C 896.472656 83.996094 897.257812 83.957031 897.921875 83.957031 C 898.542969 83.957031 899.453125 84.003906 899.992188 84.121094 L 900.039062 83.957031 C 899.171875 83.496094 898.796875 82.996094 898.753906 82.15625 C 898.542969 79.4375 898.421875 76.753906 898.421875 70.21875 C 898.421875 63.898438 898.339844 62.007812 898.339844 59.242188 C 903.796875 65.5625 907.480469 69.71875 908.765625 71.183594 L 920.546875 84.796875 L 921.292969 84.796875 C 921.167969 82.074219 921.210938 76.792969 921.210938 70.21875 C 921.203125 63.734375 921.285156 60.921875 921.488281 58.242188 Z M 921.488281 58.242188 " fill-opacity="1" fill-rule="nonzero"/><path fill="#0d274e" d="M 930.878906 83.792969 L 930.878906 83.957031 C 932.164062 84.085938 935.511719 84.121094 937.621094 84.121094 C 949.320312 84.121094 954.199219 77.464844 954.199219 69.835938 C 954.199219 60.289062 947.542969 56.304688 937.492188 56.304688 C 936.828125 56.304688 932.15625 56.351562 930.878906 56.46875 L 930.878906 56.632812 C 931.546875 56.679688 932.074219 57.054688 932.121094 58.226562 C 932.246094 60.910156 932.203125 63.710938 932.203125 70.203125 C 932.203125 76.777344 932.246094 79.414062 932.121094 82.144531 C 932.074219 83.332031 931.539062 83.667969 930.878906 83.792969 Z M 935.511719 57.320312 C 936.050781 57.277344 936.625 57.277344 937.125 57.277344 C 947.214844 57.277344 950.6875 62.96875 950.6875 69.84375 C 950.6875 78.347656 946.511719 83.085938 937.417969 83.121094 C 936.796875 83.121094 936.175781 83.121094 935.511719 83.078125 C 935.394531 80.394531 935.429688 77.046875 935.429688 70.554688 L 935.429688 69.425781 C 935.429688 63.898438 935.386719 59.832031 935.511719 57.320312 Z M 935.511719 57.320312 " fill-opacity="1" fill-rule="nonzero"/><path fill="#0d274e" d="M 636.769531 112.792969 C 635.847656 112.792969 634.878906 112.730469 633.957031 112.484375 L 633.898438 112.792969 C 635.183594 113.226562 635.789062 114.089844 635.847656 115.390625 C 635.910156 119.410156 636.035156 126.089844 636.035156 137.410156 C 636.035156 146.875 630.84375 152.070312 622.96875 152.070312 C 614.480469 152.070312 609.652344 147.488281 609.652344 138.03125 C 609.652344 128.445312 609.59375 119.351562 609.773438 115.390625 C 609.832031 114.089844 610.445312 113.222656 611.664062 112.792969 L 611.605469 112.484375 C 610.8125 112.792969 608.242188 112.792969 607.328125 112.792969 C 606.410156 112.792969 603.90625 112.792969 602.996094 112.484375 L 602.9375 112.792969 C 604.160156 113.222656 604.765625 114.089844 604.828125 115.390625 C 605.007812 119.351562 604.945312 128.445312 604.945312 138.03125 C 604.945312 150.097656 612.703125 154.609375 622.167969 154.609375 C 630.714844 154.609375 637.621094 148.917969 637.621094 137.410156 C 637.621094 127.824219 637.621094 119.34375 637.804688 115.390625 C 637.867188 114.089844 638.480469 113.222656 639.636719 112.792969 L 639.578125 112.484375 C 638.785156 112.722656 637.746094 112.792969 636.769531 112.792969 Z M 636.769531 112.792969 " fill-opacity="1" fill-rule="nonzero"/><path fill="#0d274e" d="M 687.386719 112.792969 C 686.410156 112.792969 685.191406 112.730469 684.273438 112.484375 L 684.210938 112.792969 C 685.496094 113.285156 685.921875 113.964844 686.101562 115.390625 C 686.410156 119.351562 686.589844 123.5 686.589844 133.085938 C 686.589844 140.628906 686.648438 143.230469 686.835938 146.699219 C 681.15625 140.324219 675.597656 134.078125 672.976562 131.042969 C 670.351562 128.078125 664.300781 121.085938 657.21875 112.792969 L 656.238281 112.792969 C 654.347656 112.792969 652.210938 112.730469 650.738281 112.484375 L 650.679688 112.792969 C 652.085938 113.351562 652.816406 114.335938 652.875 115.757812 C 653.0625 119.71875 652.996094 123.492188 652.996094 133.078125 C 652.996094 142.789062 652.9375 146.691406 652.628906 150.710938 C 652.570312 151.882812 651.957031 152.808594 650.738281 153.371094 L 650.800781 153.617188 C 651.71875 153.429688 652.875 153.371094 653.855469 153.371094 C 654.773438 153.371094 656.113281 153.429688 656.910156 153.617188 L 656.972656 153.371094 C 655.6875 152.691406 655.140625 151.949219 655.082031 150.710938 C 654.773438 146.691406 654.59375 142.730469 654.59375 133.078125 C 654.59375 123.738281 654.476562 120.949219 654.476562 116.871094 C 662.539062 126.210938 667.96875 132.335938 669.867188 134.503906 L 687.269531 154.609375 L 688.367188 154.609375 C 688.179688 150.589844 688.246094 142.796875 688.246094 133.085938 C 688.246094 123.5 688.367188 119.351562 688.671875 115.390625 C 688.859375 113.972656 689.285156 113.285156 690.503906 112.792969 L 690.445312 112.484375 C 689.53125 112.722656 688.308594 112.792969 687.386719 112.792969 Z M 687.386719 112.792969 " fill-opacity="1" fill-rule="nonzero"/><path fill="#0d274e" d="M 710.167969 112.792969 L 710.109375 112.484375 C 709.316406 112.792969 706.746094 112.792969 705.835938 112.792969 C 704.917969 112.792969 702.414062 112.792969 701.503906 112.484375 L 701.441406 112.792969 C 702.667969 113.226562 703.273438 114.089844 703.332031 115.390625 C 703.519531 119.351562 703.519531 123.5 703.519531 133.085938 C 703.519531 142.796875 703.519531 146.699219 703.332031 150.71875 C 703.273438 151.890625 702.660156 152.816406 701.441406 153.378906 L 701.503906 153.625 C 702.480469 153.4375 704.863281 153.378906 705.835938 153.378906 C 706.8125 153.378906 709.257812 153.4375 710.109375 153.625 L 710.167969 153.378906 C 709.378906 152.945312 708.339844 152.449219 708.277344 150.71875 C 708.09375 146.699219 708.160156 142.796875 708.160156 133.085938 C 708.160156 123.5 708.097656 119.351562 708.277344 115.390625 C 708.339844 114.089844 708.949219 113.222656 710.167969 112.792969 Z M 710.167969 112.792969 " fill-opacity="1" fill-rule="nonzero"/><path fill="#0d274e" d="M 753.28125 112.792969 C 751.996094 112.792969 750.71875 112.730469 749.738281 112.484375 L 749.679688 112.792969 C 751.269531 113.410156 751.816406 114.277344 751.328125 115.390625 C 749.679688 119.351562 748.273438 123.125 743.882812 132.523438 C 740.28125 140.257812 739.054688 143.410156 737.105469 147.554688 C 735.148438 143.476562 734.480469 141.742188 730.269531 132.523438 C 726.054688 123.125 724.035156 119.410156 722.390625 115.390625 C 721.90625 114.335938 722.453125 113.472656 724.042969 112.792969 L 723.984375 112.484375 C 723.066406 112.792969 719.828125 112.792969 718.730469 112.792969 C 717.511719 112.792969 715.128906 112.730469 713.972656 112.484375 L 713.851562 112.792969 C 715.011719 113.097656 716.601562 114.644531 717.511719 116.4375 C 719.464844 120.457031 720.808594 123.175781 725.210938 132.523438 C 729.667969 141.992188 733.269531 149.910156 734.980469 153.871094 L 735.835938 153.871094 C 737.484375 149.910156 741.085938 141.992188 745.539062 132.523438 C 749.933594 123.183594 751.644531 119.964844 753.601562 115.945312 C 754.519531 114.152344 755.617188 113.097656 756.894531 112.792969 L 756.835938 112.484375 C 755.664062 112.722656 754.445312 112.792969 753.28125 112.792969 Z M 753.28125 112.792969 " fill-opacity="1" fill-rule="nonzero"/><path fill="#0d274e" d="M 772.339844 151.949219 C 770.6875 151.949219 769.046875 151.949219 767.394531 151.890625 C 767.207031 147.929688 767.273438 142.796875 767.273438 133.269531 L 767.273438 133.210938 C 780.828125 133.210938 781.441406 133.703125 782.300781 135.871094 L 782.605469 135.683594 C 782.359375 134.511719 782.300781 133.765625 782.300781 132.464844 C 782.300781 131.222656 782.359375 130.363281 782.605469 129.183594 L 782.300781 129.125 C 781.628906 131.289062 780.894531 131.597656 767.273438 131.785156 C 767.273438 123.125 767.214844 119.164062 767.394531 114.21875 C 769.105469 114.03125 770.75 114.097656 772.28125 114.097656 C 778.445312 114.097656 783.269531 115.023438 786.386719 117.933594 L 786.691406 117.625 C 786.328125 116.757812 785.230469 113.546875 785.230469 112.796875 L 764.890625 112.796875 C 763.972656 112.796875 761.46875 112.796875 760.617188 112.492188 L 760.558594 112.796875 C 761.78125 113.230469 762.386719 114.097656 762.449219 115.398438 C 762.632812 119.359375 762.566406 123.503906 762.566406 133.089844 C 762.566406 142.804688 762.628906 146.703125 762.449219 150.722656 C 762.386719 151.777344 761.777344 152.703125 760.558594 153.382812 L 760.617188 153.632812 C 761.535156 153.445312 763.914062 153.382812 764.890625 153.382812 L 787.296875 153.382812 C 787.296875 152.824219 789.1875 149.179688 789.496094 148.558594 L 789.1875 148.25 C 785.339844 151.144531 779.058594 151.949219 772.339844 151.949219 Z M 772.339844 151.949219 " fill-opacity="1" fill-rule="nonzero"/><path fill="#0d274e" d="M 825.097656 152.75 C 822.59375 152.75 820.269531 148.601562 817.894531 144.210938 C 815.332031 139.816406 812.582031 134.929688 808.921875 133.941406 C 815.578125 132.957031 821.136719 129.492188 821.136719 122.8125 C 821.136719 117.246094 816.308594 112.542969 805.199219 112.542969 C 804.222656 112.542969 798.671875 112.605469 796.652344 112.792969 L 796.652344 113.039062 C 797.8125 113.097656 798.421875 113.84375 798.484375 115.390625 C 798.671875 119.351562 798.601562 123.5 798.601562 133.085938 C 798.601562 142.796875 798.664062 146.699219 798.484375 150.71875 C 798.421875 151.890625 797.8125 152.757812 796.535156 153.378906 L 796.652344 153.625 C 797.570312 153.4375 800.074219 153.378906 800.988281 153.378906 C 801.964844 153.378906 804.410156 153.4375 805.261719 153.625 L 805.320312 153.378906 C 804.160156 152.816406 803.550781 151.890625 803.488281 150.71875 C 803.300781 146.882812 803.300781 142.855469 803.300781 134.382812 C 803.976562 134.324219 804.402344 134.324219 805.074219 134.324219 C 805.625 134.324219 806.171875 134.324219 806.722656 134.382812 C 809.652344 135.191406 811 139.023438 812.648438 143.042969 C 814.605469 148.304688 816.804688 153.929688 821.988281 153.929688 C 823.394531 153.929688 824.738281 153.871094 825.898438 152.945312 L 825.777344 152.636719 C 825.464844 152.691406 825.214844 152.75 825.097656 152.75 Z M 805.191406 132.523438 C 804.519531 132.523438 803.976562 132.523438 803.300781 132.464844 C 803.300781 124.296875 803.300781 117.863281 803.488281 114.152344 C 811.492188 114.152344 816.132812 116.191406 816.132812 122.8125 C 816.125 129.492188 811.851562 132.523438 805.191406 132.523438 Z M 805.191406 132.523438 " fill-opacity="1" fill-rule="nonzero"/><path fill="#0d274e" d="M 846.414062 129.429688 C 841.46875 127.265625 836.886719 125.53125 836.886719 120.523438 C 836.886719 116.070312 840.367188 113.410156 845.007812 113.410156 C 849.34375 113.410156 853.191406 115.085938 855.695312 120.21875 L 855.941406 119.910156 L 855.386719 114.777344 C 853.191406 112.738281 850.015625 111.558594 845.375 111.558594 C 838.539062 111.558594 832.980469 115.390625 832.980469 122.691406 C 832.980469 129.003906 838.539062 131.351562 843.96875 133.703125 C 849.164062 135.992188 854.167969 138.21875 854.167969 143.96875 C 854.167969 149.171875 850.320312 152.816406 844.761719 152.816406 C 840.242188 152.816406 835.414062 150.03125 832.488281 144.277344 L 832 144.523438 L 833.039062 150.523438 C 835.484375 152.808594 840.242188 154.601562 844.582031 154.601562 C 851.914062 154.601562 858.441406 150.023438 858.441406 142.601562 C 858.441406 134.503906 852.210938 131.71875 846.414062 129.429688 Z M 846.414062 129.429688 " fill-opacity="1" fill-rule="nonzero"/><path fill="#0d274e" d="M 877.128906 112.792969 L 877.070312 112.484375 C 876.277344 112.792969 873.707031 112.792969 872.796875 112.792969 C 871.875 112.792969 869.375 112.792969 868.460938 112.484375 L 868.402344 112.792969 C 869.628906 113.226562 870.234375 114.089844 870.292969 115.390625 C 870.472656 119.351562 870.472656 123.5 870.472656 133.085938 C 870.472656 142.796875 870.472656 146.699219 870.292969 150.71875 C 870.234375 151.890625 869.621094 152.816406 868.402344 153.378906 L 868.460938 153.625 C 869.441406 153.4375 871.816406 153.378906 872.796875 153.378906 C 873.773438 153.378906 876.21875 153.4375 877.070312 153.625 L 877.128906 153.378906 C 876.335938 152.945312 875.300781 152.449219 875.238281 150.71875 C 875.050781 146.699219 875.121094 142.796875 875.121094 133.085938 C 875.121094 123.5 875.058594 119.351562 875.238281 115.390625 C 875.292969 114.089844 875.902344 113.222656 877.128906 112.792969 Z M 877.128906 112.792969 " fill-opacity="1" fill-rule="nonzero"/><path fill="#0d274e" d="M 884.945312 112.792969 C 884.945312 113.285156 883.785156 116.871094 883.480469 117.675781 L 883.785156 117.925781 C 887.941406 115.019531 892.945312 114.210938 898.746094 114.277344 L 898.746094 133.085938 C 898.746094 142.796875 898.804688 146.699219 898.625 150.71875 C 898.566406 151.957031 897.953125 152.695312 896.667969 153.378906 L 896.726562 153.625 C 897.578125 153.4375 900.089844 153.378906 901.0625 153.378906 C 902.039062 153.378906 904.484375 153.4375 905.335938 153.625 L 905.453125 153.378906 C 904.167969 152.757812 903.5625 151.890625 903.503906 150.71875 C 903.324219 146.699219 903.382812 142.796875 903.382812 133.085938 L 903.382812 114.277344 C 909.25 114.21875 914.128906 114.898438 918.28125 117.925781 L 918.589844 117.617188 C 918.28125 116.8125 917.125 113.285156 917.125 112.792969 Z M 884.945312 112.792969 " fill-opacity="1" fill-rule="nonzero"/><path fill="#0d274e" d="M 957.246094 112.476562 C 956.089844 112.722656 955.171875 112.785156 953.953125 112.785156 C 952.792969 112.785156 951.261719 112.722656 950.222656 112.476562 L 950.164062 112.785156 C 951.816406 113.34375 952.300781 114.203125 951.628906 115.316406 C 948.394531 120.261719 947.234375 121.9375 943.625 126.949219 C 941.976562 129.117188 940.9375 130.722656 939.777344 132.398438 L 936.117188 127.136719 C 931.722656 121.011719 930.253906 118.910156 927.996094 115.136719 C 927.441406 114.152344 927.9375 113.464844 929.707031 112.785156 L 929.648438 112.476562 C 928.796875 112.785156 924.949219 112.785156 923.78125 112.785156 C 922.683594 112.785156 920.121094 112.785156 919.023438 112.476562 L 918.902344 112.785156 C 920.0625 113.089844 921.464844 114.765625 922.632812 116.429688 C 924.402344 118.714844 925.808594 120.941406 930.265625 127.128906 L 935.640625 134.554688 C 935.640625 143.894531 935.640625 146.871094 935.460938 150.703125 C 935.460938 151.941406 934.90625 152.683594 933.628906 153.363281 L 933.6875 153.609375 C 934.542969 153.421875 937.050781 153.363281 938.023438 153.363281 C 939 153.363281 941.445312 153.421875 942.296875 153.609375 L 942.417969 153.363281 C 941.132812 152.742188 940.527344 151.875 940.464844 150.703125 C 940.28125 146.742188 940.347656 144.023438 940.347656 134.25 L 945.480469 127.136719 C 950.121094 120.949219 950.792969 119.648438 953.542969 116.003906 C 954.757812 114.457031 956.164062 113.097656 957.328125 112.785156 Z M 957.246094 112.476562 " fill-opacity="1" fill-rule="nonzero"/></svg>