<svg version="1.1" id="Calque_1" xmlns="http://www.w3.org/2000/svg" xmlns:xlink="http://www.w3.org/1999/xlink" x="0px" y="0px" width="595.28px" height="595.369px" viewBox="0 0 595.28 595.369" enable-background="new 0 0 595.28 595.369" xml:space="preserve">
<g>
	<path fill-rule="evenodd" clip-rule="evenodd" d="M283.381,0.453c96.29-5.155,168.727,34.454,217.748,79.999   c49.302,45.805,89.466,112.948,93.775,203.445c4.595,96.492-34.156,167.323-79.47,217.22   c-23.386,25.749-52.356,47.456-85.297,63.575c-33.709,16.493-72.373,27.664-118.147,30.198   c-93.887,5.2-167.924-32.68-217.219-79.472C43.807,467.044,5.373,404.165,0.467,312.506   c-5.166-96.514,33.281-168.801,78.94-217.749c40.075-42.962,96.218-78.743,169.006-91.126   C259.991,1.662,272.465,1.037,283.381,0.453z M218.215,12.108c-20.088,5.51-37.632,12.619-53.51,20.662   C98.771,66.17,51.215,117.019,22.718,186.413C8.581,220.84-0.966,265.261,2.056,313.036   c5.685,89.874,43.508,155.837,93.775,201.854c48.926,44.792,121.939,83.446,216.689,78.41   c90.873-4.829,154.244-43.008,201.854-93.773c44.976-47.959,84.362-120.83,78.94-216.161   c-5.115-89.931-43.741-156.415-93.775-201.855c-49.678-45.115-119.034-84.12-216.689-79.47   C260.802,3.092,237.636,6.782,218.215,12.108z"/>
	<path fill-rule="evenodd" clip-rule="evenodd" d="M326.294,40.717c6.661,7.999,6.819,22.498,17.485,26.49   c-3.192,2.567-9.285-0.888-14.306,0c-2.275-4.148-4.624-9.198-6.887-14.305c-1.841-4.15-2.538-11.947-9.537-11.125   c-1.063,5.859-2.234,14.318-1.06,20.663c0.899,1.924,4.945,0.705,5.827,2.648c-3.488,2.423-16.022,0.003-22.251-1.06   c0.088-2.914,5.501-0.502,6.356-2.649c1.83-13.358,2.626-27.751,3.18-42.384c-0.487-3.045-6.123-0.94-6.357-4.239   c11.616,1.011,36.057-2.145,38.676,10.596C338.885,32.473,334.724,40.866,326.294,40.717z M314.64,18.996   c-1.197,6.044-1.535,12.945-1.59,20.132C333.451,47.084,332.096,11.496,314.64,18.996z"/>
	<path fill-rule="evenodd" clip-rule="evenodd" d="M283.381,15.287c0.6,3.206,1.915,8.196,1.059,11.126   c-4.324-6.561-12.359-9.162-21.721-5.828c-0.067,7.131,0.882,13.246,2.119,19.073c7.074,1.139,14.602-1.566,15.364-8.477   c2.761,3.638,1.909,13.577,2.649,17.483c-3.098,0.688-3.088-6.01-6.357-6.887c-4.498-0.083-8.967-0.136-11.656,1.589   c1.747,6.729,0.686,16.268,4.238,21.191c3.942,1.255,11.076-0.217,13.775-2.118c3.704-2.61,3.079-7.327,7.418-9.537   c0,4.062,0,8.124,0,12.186c-12.09,1.509-25.782,4.239-37.616,4.239c0.462-2.717,4.625-1.732,5.828-3.709   c-1.065-15.006-2.968-29.173-5.298-42.914c-1.448-1.377-5.038-0.613-6.887-1.589c0.167-2.082,2.675-1.928,3.709-2.119   C260.137,17.12,272.774,17.369,283.381,15.287z"/>
	<path fill-rule="evenodd" clip-rule="evenodd" d="M239.407,21.115c-0.098,2.905-3.403,2.602-4.769,4.238   c-2.663,16.587-1.862,36.637-4.768,52.98c-12.847-12.231-23.058-27.097-35.496-39.735c-2.919-0.491-5.26,1.092-6.358-0.53   c6.276-3.103,15.163-6.356,22.251-6.887c-0.68,2.498-4.559,1.799-5.297,4.239c7.189,9.94,15.473,18.786,23.841,27.549   c-0.533-11.955,3.126-24.965,0.529-35.497c-2.16-1.795-5.606,2.146-6.887-0.53C226.955,23.85,233.284,22.584,239.407,21.115z"/>
	<path fill-rule="evenodd" clip-rule="evenodd" d="M383.514,28.532c-0.51,3.729-1.021,7.458-2.65,10.066   c-3.559-2.621-1.416-4.995-2.647-7.947c-3.544-8.494-16.422-6.142-16.954,1.59c-0.703,10.191,14.825,11.488,17.483,22.781   c4.459,18.94-23.698,25.237-33.378,11.125c1.27-3.675,1.395-8.496,3.709-11.125c1.936,7.112,3.358,15.669,10.597,16.953   c7.572,1.345,12.48-3.727,11.656-10.595c-1.076-8.958-15.766-12.348-17.485-21.722C350.546,21.67,372.618,19.313,383.514,28.532z"/>
	<path fill-rule="evenodd" clip-rule="evenodd" d="M417.951,41.247c-1.902,1.514-3.613-0.702-5.829-0.53   c-5.198,4.892-6.849,12.832-9.534,19.603c-2.726,6.869-6.232,13.516-7.948,20.663c0.377,2.802,4.144,2.215,4.768,4.768   c-2.937,1.863-6.908-1.676-10.596-3.178c-3.456-1.407-9.041-1.641-10.066-5.298c2.528-0.409,3.409,0.829,5.827,0.53   c4.916-6.092,9.325-19.789,13.246-29.669c1.31-3.301,4.307-8.186,3.709-10.596c-0.657-2.639-5.24-2.559-4.769-5.298   c0.428-0.368,1.45-0.825,1.59,0C404.729,35.396,413.064,36.596,417.951,41.247z"/>
	<path fill-rule="evenodd" clip-rule="evenodd" d="M184.308,40.717c0.14,3.32-3.457,2.901-4.238,5.299   c5.449,14.152,12.286,26.918,19.603,39.205c2.941,0.604,4.63-2.13,6.888-0.53c-5.789,4.12-13.781,8.801-20.663,10.066   c0.723-2.632,3.75-2.96,4.768-5.298c-5.936-13.49-12.233-26.62-19.604-38.675c-3.098-0.76-4.784,1.975-6.887,0.529   C169.594,46.489,177.029,43.681,184.308,40.717z"/>
	<path fill-rule="evenodd" clip-rule="evenodd" d="M467.752,63.499c-1.741,5.675-4.684,10.151-9.006,13.246   c2.383-7.992-1.948-14.765-9.007-16.425c-5.896,6.127-11.783,18.551-17.482,28.08c-1.816,3.035-5.565,6.916-5.3,9.537   c0.322,3.181,4.814,3.207,3.709,6.357c-3.787-0.966-6.775-3.877-10.066-5.828c-3.07-1.819-8.07-2.789-9.007-6.888   c2.901-0.429,3.175,1.77,5.829,1.589c9.74-10.744,15.676-25.294,23.84-37.615c-2.282-1.858-4.522-4.306-7.946-4.768   c-4.902-0.661-8.952,3.126-12.716,2.648c1.739-5.324,7.45-6.678,10.066-11.126c2.887-0.249,0.621,3.08,1.591,3.709   c9.432,6.99,20.003,12.841,30.726,18.542C465.415,65.047,465.543,63.233,467.752,63.499z"/>
	<path fill-rule="evenodd" clip-rule="evenodd" d="M154.64,55.552c0.577,2.651-3.539,3.675-3.709,6.357   c-0.196,3.082,4.701,7.209,6.887,10.065c7.078,9.249,16.007,21.111,21.193,29.67c-19.091-1.931-37.354-9.267-56.159-13.245   c3.012,5.705,10.958,15.675,16.954,23.311c4.035,5.138,7.015,9.066,14.304,4.768c-3.91,5.273-9.489,8.877-15.364,12.186   c-0.236-2.544,3.568-3.627,3.708-6.357c0.213-4.137-9.729-15.205-12.186-18.543c-5.011-6.814-9.713-12.616-13.774-16.424   c-3.344-0.694-4.129,3.397-6.887,1.59c4.114-2.883,7.571-9.332,12.715-10.066c2.514-0.359,7.1,2.083,11.126,3.179   c10.883,2.961,24.496,6.047,33.907,9.007c-6.513-9.382-13.013-18.776-21.192-26.491c-2.817,0.363-3.398,2.96-6.887,2.649   C143.137,62.063,148.562,58.481,154.64,55.552z"/>
	<path fill-rule="evenodd" clip-rule="evenodd" d="M284.971,79.393c71.162-5.262,126.924,22.967,162.648,55.629   c37.325,34.125,66.421,81.329,70.993,147.285c4.986,71.926-21.78,124.766-55.63,161.59   c-35.031,38.114-80.541,66.475-146.753,71.522c-71.022,5.417-124.956-23.54-161.59-55.628   c-38.629-33.832-67.374-81.588-72.053-146.226c-5.215-72.023,22.35-125.177,55.099-162.12   c16.838-18.994,36.736-34.627,61.457-47.682C222.732,91.307,252.2,81.816,284.971,79.393z M207.089,101.645   c-25.381,12.456-45.142,27.295-63.047,45.563c-34.552,35.251-62.347,86.74-60.396,156.822   c1.848,66.416,30.514,115.946,66.754,149.935c38.174,35.801,85.677,60.78,156.821,60.396   c65.459-0.353,114.517-31.335,149.935-66.754c33.968-33.97,63.468-88.141,60.397-155.763   C514.499,224.6,488.5,175.229,451.328,141.38c-36.114-32.886-86.855-64.234-156.292-60.928   C260.271,82.108,231.997,89.42,207.089,101.645z"/>
	<path fill-rule="evenodd" clip-rule="evenodd" d="M491.063,86.281c-3.896,10.625-8.319,24.77-12.716,37.086   c-1.514,4.243-4.451,9.004-4.238,12.185c0.183,2.725,3.192,3.869,2.12,6.357c-6.205-4.567-12.243-9.301-16.955-15.364   c2.398-1.596,3.236,2.218,5.828,2.119c3.23-3.658,4.593-9.183,6.358-14.305c-2.389-4.323-6.961-6.46-10.066-10.066   c-4.574,2.666-9.748,4.733-13.245,8.477c-0.206,3.343,4.904,3.742,3.179,6.887c-5.484-3.699-10.538-7.828-14.305-13.245   c2.504-1.163,3.375,1.942,5.828,2.12c6.451,0.465,18.483-8.259,23.841-11.126c3.676-1.968,7.892-3.82,11.655-5.828   C483.003,89.095,487.774,86.07,491.063,86.281z M464.573,102.175c1.877,3.598,5.131,5.817,8.478,7.947   c1.296-5.064,4.944-10.592,4.768-15.364C473.67,97.497,468.795,99.509,464.573,102.175z"/>
	<path fill-rule="evenodd" clip-rule="evenodd" d="M101.129,97.937c-0.031,2.795-2.065,3.586-2.649,5.828   c6.662,10.683,21.2,15.625,28.08,24.9c7.94,10.708-8.919,36.492-24.371,30.198c-4.94-2.012-8.981-7.237-14.304-11.655   c-3.465-2.875-11.761-10.982-14.834-11.125c-3.464-0.162-3.489,3.811-6.888,2.648c1.516-3.497,4.887-6.45,7.417-9.535   c2.346-2.86,4.373-7.342,7.947-7.418c-6.491,7.685,5.602,14.028,11.656,19.073c5.566,4.64,11.92,12.034,18.543,12.186   c9.629,0.219,18.586-13.584,12.186-22.251c-3.246-4.396-8.13-7.429-13.246-11.657c-3.25-2.687-9.967-10.431-14.304-10.595   c-4.364-0.166-3.702,3.712-7.417,3.179c2.607-5.692,7.646-8.954,10.596-14.305C100.396,97.257,100.452,97.907,101.129,97.937z"/>
	<path fill-rule="evenodd" clip-rule="evenodd" d="M522.851,142.439c-0.168-3.621,3.659-6.183,3.709-9.536   c0.129-8.598-14.587-14.31-16.953-3.708c-1.344,6.019,3.409,12.467,3.179,19.603c-0.383,11.894-15.713,19.03-25.96,11.125   c-3.597-2.775-9.144-10.324-8.478-15.363c0.568-4.305,6.901-6.881,10.066-7.948c-6.658,7.607-5.658,24.442,6.358,23.312   c4.191-0.394,5.569-3.177,7.947-6.357c0.594-11.194-5.389-22.654,0.529-29.669c3.563-4.224,13.719-6.051,19.602-1.589   c3.053,2.315,9.091,9.688,8.479,13.775C530.859,139.199,525.313,141.893,522.851,142.439z"/>
	<path fill-rule="evenodd" clip-rule="evenodd" d="M430.138,159.922c7.638,34.452,10.518,74.568,6.356,110.2   c-4.143,35.458-15.021,67.577-27.02,93.775c-25.345,55.323-64.144,98.776-113.908,127.682   c-36.326-22.737-67.3-52.805-90.596-90.066c-22.95-36.708-42.47-75.7-49.802-130.332c-4.722-35.179-1.218-76.023,5.298-110.728   C250.461,160.378,340.899,160.756,430.138,159.922z M248.944,165.221c14.306,23.841,20.288,56.005,20.662,93.775   c1.094,1.203,4.715-0.124,5.298,1.589c7.36,15.599,13.346,32.57,21.723,47.153c6.682-16.806,13.625-33.35,21.191-49.272   c0.932-1.865,4.367-0.411,5.3-1.06c-0.147-38.469,7.364-69.28,22.25-92.715C312.638,164.279,281.486,165.445,248.944,165.221z    M325.765,256.347c37.842-5.78,76.905-10.336,108.609-22.251c-0.971-24.813-3.836-47.731-7.945-69.405c-25.608,0-51.216,0-76.823,0   C333.179,186.762,326.748,218.832,325.765,256.347z M157.817,233.565c32.536,11.262,70.467,17.127,108.61,22.782   c-0.26-37.18-6.818-68.061-21.192-91.126c-26.843,0-53.687,0-80.53,0C159.892,185.486,158.23,208.901,157.817,233.565z    M179.01,342.175c26.936-7.679,56.127-13.1,89.535-14.305c-0.986,8.197-1.211,17.155-2.118,25.43   c3.959-2.511,10.562-4.329,14.304-9.006c1.777-2.219,2.421-6.465,4.239-10.066c1.213-2.404,5.877-11.385,5.828-13.774   c-0.078-3.732-3.823-7.823-5.298-11.126c-1.938-4.335-3.025-8.147-4.769-12.186c-2.311,0.515-3.814,1.836-5.828,2.649   c-1.324-1.502-1.381-4.27-3.708-4.768c-1.153,1.809,1.901,3.178,1.589,5.828c-3.115,0.594-4.543,2.873-7.947,3.179   c-1.483-3.638-3.16-7.083-4.769-10.596c0.324-1.796,3.389-0.851,3.179-3.179c-2.16-0.394-1.824,1.708-4.238,1.06   c-2.032-4.856-4.295-9.479-6.357-14.304c3.249-0.813,5.229-2.896,8.477-3.708c0.979,1.316,0.6,3.991,2.649,4.238   c1.184-1.219-1.316-3.25-1.59-4.769c1.777-1.402,4.932-1.426,5.828-3.709c-0.452-2.021-1.576-3.369-2.119-5.298   c-0.357-1.585,3.364-3.57,1.06-3.708c-37.249-6.901-76.671-11.628-109.14-23.311C157.289,279.48,167.121,311.856,179.01,342.175z    M325.235,259.526c1.717,4.159-1.835,6.762-2.118,10.596c2.311,0.16,3.613,1.33,5.297,2.118c0.23,1.595-3.028,4.32-0.53,4.77   c1.442,1.233,1.164-3.759,2.648-4.239c2.039,1.318,4.879,1.834,6.889,3.179c-1.557,4.448-2.988,9.022-5.298,12.715   c-0.858-0.035-3.328-2.264-3.179,0c-1.146,1.01,3.09,1.118,2.648,3.179c-2.354,3.119-2.691,8.256-5.299,11.125   c-2.553-0.979-5.215-1.848-6.886-3.708c0.396-1.508,1.935-3.628,1.06-4.769c-2.364,0.109-1.082,3.864-3.18,4.239   c-1.441-1.385-3.998-1.653-5.826-2.65c-1.061,4.306-3.525,7.982-5.3,12.186c-1.472,3.488-5.045,9.458-4.769,12.715   c0.26,3.045,5.937,10.518,6.889,12.715c2.514,5.808,4.724,11.354,9.006,14.305c6.331-1.808,9.215,2.262,8.477,6.887   c-0.491,3.088-5.247,5.853-4.768,10.597c0.212,2.109,2.038,2.488,2.12,5.298c-1.052,6.648-10.477,6.393-12.187,0.53   c-7.249,0.271-13.51-6.337-20.132-5.298c-6.349,0.995-4.904,12.145-12.716,10.596c-1.728-0.343-3.094-1.857-3.708-3.708   c2.043-6.498-4.082-10.121-8.477-13.246c-1.486,33.835-8.685,61.956-14.834,91.127c13.734,12.931,28.163,25.17,44.503,35.495   c12.271-6.858,22.986-15.909,33.907-24.899c3.335-2.746,9.934-6.764,10.597-9.537c0.667-2.797-1.805-9.504-2.649-14.305   c-6.201-35.208-10.854-71.767-13.245-108.61c34.225,0.389,62.452,6.776,89.007,14.835c11.415-30.97,20.073-64.695,21.191-105.961   C401.677,248.725,363.229,253.901,325.235,259.526z M319.938,258.996c-9.378,15.348-14.724,34.726-23.312,50.861   c1.214,3.023,1.585,6.891,4.238,8.477c7.149-19.693,16.565-37.121,23.312-57.218C322.982,260.189,322.412,258.64,319.938,258.996z    M285.5,288.135c-4.108-9.236-7.721-18.92-13.246-27.02c-1.306-1.099-4.209,0.712-4.769,2.119   c8.282,20.151,17.322,39.544,25.961,59.337c2.295,0,4.592,0,6.887,0C295.292,311.365,290.595,299.592,285.5,288.135z    M268.017,271.181c-1.062,0.882-1.963,1.923-3.708,2.121c0.073,1.869,1.516,2.369,1.589,4.238c-0.218,1.724-2.52,1.366-3.709,2.12   c-0.464-1.478-1.269-2.617-1.589-4.24c-2.599,0.405-4.626,1.379-5.828,3.18c2.445,3.205,3.111,8.191,5.828,11.125   c0.744-0.846,1.825-1.354,3.179-1.589c0.073,0.986,0.348,1.771,1.06,2.12c1.252-3.961-4.146-4.27-5.828-6.888   c0.945-0.996,1.433-2.452,2.65-3.178c1.012,1.283,2.347,2.243,4.238,2.648c0.597-1.523,0.107-4.13,1.06-5.298   c0.967,0.799,2.97,0.562,3.708,1.589c-0.288,2.362-0.52,4.778-1.059,6.888c2.645,1.24,5.124,2.647,6.888,4.769   c-1.744,0.198-1.069,2.815-3.179,2.649c0.658,1.637,1.306,3.284,2.648,4.238c0.856-1.087,2.549-1.336,3.709-2.12   C275.723,287.493,273.194,278.013,268.017,271.181z M312.521,295.022c1.946,0.172,2.931,1.307,4.768,1.589   c0.583-1.536,0.656-3.583,2.65-3.708c1.054,0.534,2.261,0.916,2.648,2.119c-0.472,1.295-1.235,2.298-1.06,4.239   c2.043,0.074,2.447,1.79,4.767,1.589c0.499-3.741,2.682-5.797,3.18-9.537c-0.792,0.01-2.166-1.968-2.648-0.529   c0.752,0.904,0.987,3.716,0.53,4.238c-1.237,0-2.473,0-3.71,0c-0.591-1.528-0.953-3.285-1.059-5.298   c-2.116,0.533-3.041,2.257-4.77,3.179c-0.452-1.666-2.001-2.236-2.117-4.239c2.431-0.746,3.898-2.458,5.827-3.708   c-0.507-2.32-0.921-4.73-1.06-7.417c1.244-0.168,1.988-0.837,3.708-0.529c0.996,1.298,0.139,4.452,1.589,5.297   c0.447-1.672,2.732-1.506,3.18-3.179c-2.021-0.1-3.486-0.752-3.709-2.648c0.411-1.178,1.112-2.066,1.059-3.709   c-1.477-0.464-2.616-1.267-4.238-1.59C319.225,279.476,315.132,286.507,312.521,295.022z M328.414,285.486   c-0.45-0.098-0.499,0.206-0.53,0.529c-1.396-0.16-1.738,0.733-1.59,2.119c1.398,0.162,1.367-1.105,1.59-2.119   C328.335,286.113,328.384,285.81,328.414,285.486c0.99,0.422,1.94,0.885,3.179,1.059c1.308-3.285,3.027-6.154,3.709-10.066   c-1.87-0.073-2.37-1.517-4.238-1.589c-0.465,1.478-1.269,2.617-1.59,4.238c1.644,0.124,1.654,1.879,2.119,3.179   C331.128,283.961,329.095,284.047,328.414,285.486z M323.117,286.016c-1.957,1.224-4.298,2.062-5.3,4.239   c2.965-0.038,3.234-2.771,5.828-3.178c0.542,2.283-0.001,5.652,2.119,6.357c0.155-2.805-0.919-4.379-1.059-6.888   c1.136-2.219,3.923-2.787,5.297-4.768c-1.963-0.859-3.744,2.452-5.827,3.178c-0.822-2.003,0.156-5.808-2.12-6.357   C322.563,280.918,322.609,283.696,323.117,286.016z M266.427,286.016c-1.26-1.054-3.537-3.855-5.298-2.649   c2.237,1.119,3.968,2.743,5.828,4.238c-0.639,1.833-0.969,3.976-1.06,6.357c2.389-0.26,0.741-4.557,2.119-5.828   c2.229,0.774,3.254,2.75,5.828,3.179c-0.806-2.902-4.664-2.752-5.828-5.298c0.146-1.506,2.015-6.132,0-6.357   C267.273,281.564,268.05,284.989,266.427,286.016z M267.486,296.082c-1.002-0.587-2.502-0.676-3.708-1.059   c0.375-0.392,1.321-2.594-0.53-2.119c-2.583,2.412,2.076,5.79,2.12,9.006c2.438-0.034,3.439-1.506,5.297-2.119   c-0.321-1.622-1.125-2.76-1.589-4.238c0.626-1.494,2.464-1.774,3.709-2.649c-1.449-0.493-2.26-1.626-3.709-2.119   C267.731,291.735,269.603,295.903,267.486,296.082z M292.388,336.877c2.845-4.047,3.363-10.785-1.06-13.775   C289.214,327.746,287.394,334.012,292.388,336.877z M303.514,329.459c0.153-2.272-0.737-3.501-1.591-4.768   c-1.707-0.765-4.443-0.501-6.887-0.53C294.639,329.544,298.782,330.618,303.514,329.459z M180.07,345.354   c7.41,19.845,19.042,38.083,30.198,55.628c9.536,14.995,20.82,30.355,32.848,42.385c1.566,1.564,4.122,4.76,5.298,3.709   c7.564-31.367,15.643-71.406,16.424-109.14c0.035-1.662,1.343-5.978-1.59-6.888C232.547,332.843,204.81,337.599,180.07,345.354z    M293.977,357.009c1.821-0.231,2.97,0.209,4.239,0.53c5.642-8.446,2.636-18.717-1.589-26.491   C292.719,339.067,285.591,349.496,293.977,357.009z M300.334,336.347c2.39,0.613,5.335,0.669,7.418,1.589   c-0.239-3.118-1.353-5.358-3.179-6.888c-1.943,0-3.887,0-5.828,0C298.361,333.728,299.329,335.057,300.334,336.347z    M327.884,332.108c1.434,40.599,8.464,80.188,14.836,117.617c29.144-26.13,52.884-62.26,68.873-103.312   C386.321,339.013,360.106,332.557,327.884,332.108z M289.208,344.294c2.557-4.097,0.664-8.108-1.59-11.126   C284.149,336.301,285.926,342.258,289.208,344.294z M303.514,344.294c4.239,5.116,12.039,11.982,18.542,13.246   c3.456-1.46,2.681-9.653-2.647-8.478c-0.407,2.702,3.383,1.209,3.179,3.708c-9.613,0.056-8.784-14.867-20.664-14.304   C301.85,341.293,302.411,342.963,303.514,344.294z M286.56,355.95c2.34,4.075,3.658,9.37,7.946,9.006   c1.288-0.652,4.82-5.748,1.061-6.358c-1.11,0.18,2.877,2.007,0,2.649c-6.63-4.143-6.246-15.299-11.655-20.663   C280.061,346.094,284.232,351.894,286.56,355.95z M273.315,352.241c1.767,0.528,1.834,2.757,3.708,3.179   c0.921-1.905,2.731-2.919,4.768-3.708c-0.282-2.014-0.796-3.795-1.59-5.298C278.549,348.998,275.023,349.711,273.315,352.241z    M296.626,366.016c9.051,2.078,7.61-10.693,10.595-16.424c-1.219-1.077-2.345-2.247-3.708-3.179   C301.771,353.5,299.017,359.576,296.626,366.016z M305.103,362.836c2.801,0.555,5.37,1.341,8.479,1.59   c0.418-2.76,1.902-4.455,2.119-7.417c-3.206-1.387-4.623-4.562-7.418-6.357C307.255,354.746,306.23,358.844,305.103,362.836z    M271.196,352.771c-3.699-0.04-5.909,6.71-0.531,8.477c1.558-1.165-1.472-4.172,1.061-4.769c2.168,2.044,0.483,7.939,3.708,10.066   c1.551,0.139,1.628-1.197,3.179-1.059C276.073,362.006,275.956,352.821,271.196,352.771z M277.023,358.069   c0.906,2.096,2.359,3.646,2.649,6.358c3.35-0.712,6.036-2.089,7.417-4.769c-1.375-2.511-2.553-5.217-4.77-6.887   C280.578,354.559,277.718,355.231,277.023,358.069z M313.581,372.904c3.479,4.529,10.811-1.914,6.357-5.298   c-1.645,1.259,0,3.046-1.062,4.238c-0.793-0.091-1.955,0.189-2.118-0.529c0.938-4.359,3.903-6.693,3.709-12.185   c-1.674,0.258-1.872-0.956-3.709-0.531C316.349,364.018,312.674,366.17,313.581,372.904z M287.09,362.308   c-3.595,3.466-16.025,5.782-9.537,12.715c4.2,0.314,6.469-1.302,6.887-4.769c-3.221-0.573-1.768,3.53-5.297,2.65   c-0.899-5.298,8.936-4.016,10.596-8.477C288.244,364.331,289.077,361.908,287.09,362.308z M302.453,367.605   c3.174,0.711,5.699,2.073,9.537,2.119c-0.307-1.719,0.361-2.464,0.53-3.708C308.871,365.375,303.158,362.532,302.453,367.605z"/>
	<path fill-rule="evenodd" clip-rule="evenodd" d="M300.334,203.896c3.708-13.099,29.412-10.139,18.543,5.299   c0.704,0.887,1.404,1.775,1.062,3.708c-2.697,2.135-8.446,1.075-7.948-3.179c-4.793,1.898-2.009,8.175-4.238,12.715   c1.292,0.826,3.288,0.95,4.238,2.119c-0.798,3.876,0.89,9.023-3.708,11.126c-2.311,0.014-4.908,0.316-5.829-1.06   c-1.869,3.782-3.549,7.753-6.887,10.065c-3.375-2.099-5.924-5.024-6.358-10.065c-1.832,0.64-3.51,1.435-6.358,1.06   c-4.64-2.311-3.812-7.917-3.708-11.656c1.042-0.9,3.276-0.608,4.238-1.589c0.576-3.402-2.998-2.653-3.179-5.299   c-0.026-1.791,1.234-2.297,2.119-3.178c-0.308-1.987-1.066-3.524-2.648-4.238c-0.538,3.559-5.158,5.493-8.477,3.179   c-0.344-1.933,0.356-2.822,1.059-3.708c-1.127-2.077-2.371-2.787-2.649-4.769c-1.901-13.53,19-10.616,20.663-0.53   c3.679-10.221-7.583-15.902-5.829-24.371c1.151-5.55,8.421-7.488,10.596-13.245c0.353,0,0.707,0,1.06,0   c2.6,4.103,10.778,9.063,11.126,14.835C307.664,188.459,298.284,194.112,300.334,203.896z M286.03,180.585   c-0.805,6.017,3.899,7.543,5.298,12.714c0.871,3.221,0.925,7.021,1.06,10.067c0.17,3.87-1.455,9.143,1.589,10.596   c1.929-7.431-1.219-19.938,1.59-26.49c0.952,3.596,0.529,8.831,0.529,13.775c0,4.337-1.251,11.262,1.59,12.715   c2.746-6.822,0.108-14.568,2.648-21.722c1.796-5.056,6.173-7.279,5.299-12.185c-0.901-5.064-6.965-6.117-9.006-11.125   c-0.588,2.239,1.248,6.897-1.06,7.417c-1.566-1.26,0.506-6.157-1.061-7.417C292.78,174.673,286.765,175.089,286.03,180.585z    M275.434,197.539c-6.744,1.598-3.501,10.838-0.53,12.715c1.789-2.893-2.525-3.671-1.589-7.418c4.324-6.159,11-0.307,12.715,3.709   c1.198,2.807-0.076,8.228,4.769,7.417C289.798,206.515,284.462,195.398,275.434,197.539z M310.931,197.539   c-5.959,1.28-9.411,10.787-10.597,16.424c4.693,1.254,3.394-4.146,4.239-6.357c2.103-5.504,10.918-11.549,13.775-3.18   c-0.451,2.043-3.797,3.351-2.119,5.829C321.684,207.341,321.694,195.225,310.931,197.539z M273.315,211.844   C273.821,209.643,271.729,211.736,273.315,211.844c0.626,1.427,2.762-0.002,3.708,0c0.851-0.916,0.257-3.276,1.589-3.708   c4.776-0.539,3.36,5.117,6.888,5.828c1.12-5.801-3.727-14.982-10.597-11.126c-0.758,3.584,2.448,3.203,2.12,6.358   C276.67,210.96,275.661,212.07,273.315,211.844z M317.817,211.844C319.405,211.736,317.312,209.643,317.817,211.844   c-6.594-0.005-2.082-5.767-1.059-8.477c-6.307-5.463-13.326,5.45-10.597,10.596c2.506-1.731,2.116-6.361,6.888-5.828   c0.38,1.563,0.605,3.28,1.59,4.238C315.57,212.068,317.752,213.014,317.817,211.844z M306.162,218.201   c2.248-0.101,2.536-2.798,0.53-3.179C305.988,216.141,306.953,216.588,306.162,218.201z M282.851,218.201   c-0.169-1.229,0.085-2.035,0.53-2.649C281.434,215.042,281.275,218.154,282.851,218.201z M284.44,218.731   c1.098-0.315,3.481,0.654,3.709-0.53c-1.553-0.449,0.317-1.706,0-2.649c-1.059,0-2.119,0-3.178,0   C284.982,216.8,284.058,217.113,284.44,218.731z M289.208,218.201c2.967,0.387,11.781,2.323,11.656-2.119   c-2.734-1.152-7.532-0.238-11.126-0.53C289.955,216.828,288.771,216.704,289.208,218.201z M302.982,218.731   c0.112-0.641,0.59-0.327,1.061,0c0.228-1.01,1.142-1.331,1.06-2.649c-0.627-0.611-1.873-0.6-3.18-0.53   C301.932,216.957,301.631,218.672,302.982,218.731z M300.334,220.32c-1.114,5.175,4.495,9.701,1.06,12.186   c4.076,3.02,7.887,2.164,9.007-2.12c0.473-1.807-2.13-3.794,0-5.297c-2.746-0.434-5.184-1.173-4.238-5.298   c-6.361,1.592,0.897,9.622,0.53,11.655c-4.24-1.306-4.506-7.96-4.77-11.655C301.836,220.408,301.086,220.365,300.334,220.32z    M280.202,225.619c2.892,1.016,0.676,3.047,0,4.767c1.27,4.294,6.832,5.232,9.537,1.589c-3.54-1.77,2.019-7.263,1.06-11.655   c-3.367-0.998-1.638,3.158-2.119,4.769c-0.927,3.1-2.115,6.923-4.768,5.827c1.918-2.686,4.347-6.437,3.179-10.596   c-0.706,0-1.413,0-2.119,0C286.302,225.008,281.957,224.018,280.202,225.619z M294.506,242.042   c-0.686-6.905,1.389-16.575-1.059-21.722c-0.353,0-0.707,0-1.06,0C294.124,228.206,287.458,237.346,294.506,242.042z    M296.626,242.042c5.451-4.668,2.222-9.583,1.589-15.894c-0.251-2.505,0.786-4.287-0.53-5.828c-0.53,0-1.059,0-1.59,0   C296.448,227.387,295.392,235.859,296.626,242.042z M300.864,231.446C301.212,231.793,300.643,231.224,300.864,231.446   L300.864,231.446z"/>
	<path fill-rule="evenodd" clip-rule="evenodd" d="M530.27,189.592c6.104,3.432,11.798,7.274,18.012,10.596   c-3.223,6.314-7.213,11.86-10.595,18.014c-6.215-3.321-11.908-7.165-18.015-10.596C523.219,201.614,527.056,195.915,530.27,189.592   z"/>
	<path fill-rule="evenodd" clip-rule="evenodd" d="M74.639,209.195c-6.651,2.355-11.598,6.415-18.542,8.476   c-2.943-6.241-6.359-12.007-9.007-18.542c6.097-2.732,12.256-5.405,17.483-9.007C69.212,195.195,71.762,202.358,74.639,209.195z"/>
	<path fill-rule="evenodd" clip-rule="evenodd" d="M196.493,254.758c1.743,6.55,8.738,7.331,9.537,13.774   c0.928,7.495-8.443,12.927-6.887,22.782c2.693-7.708,23.637-13.387,21.192,1.589c-0.322,1.969-1.06,2.636-2.65,4.238   c-0.054,1.644,1.667,1.512,1.061,3.709c-2.92,2.686-7.919,0.335-8.478-2.65c-4.217,2.989-0.928,7.451-3.708,12.187   c0.732,1.386,3.437,0.8,4.238,2.119c0.176,5.18,0.018,10.254-4.769,11.655c-2.342,0.224-3.713-0.525-4.768-1.59   c-1.72,3.933-3.375,7.929-6.888,10.067c-3.418-1.88-5.583-5.014-6.358-9.537c-7.703,3.815-11.389-3.549-10.066-10.596   c0.801-1.319,3.505-0.733,4.239-2.119c0.335-2.984-2.497-2.802-3.179-4.769c-0.11-2.228,2.013-2.226,2.119-4.239   c-0.768-0.998-0.779-2.753-2.119-3.179c-1.848,0.448-1.303,3.291-3.179,3.709c-2.31,0.014-4.908,0.316-5.829-1.059   c-0.419-1.833,0.589-2.237,1.059-3.179c-0.835-2.352-2.34-2.84-2.648-4.769c-2.174-13.606,18.897-10.976,20.662-1.06   c3.314-9.559-6.541-15.427-5.828-22.782c0.653-6.726,7.781-7.949,10.066-14.304C194.375,254.758,195.434,254.758,196.493,254.758z    M184.837,269.062c-0.528,4.672,4.718,8.484,5.829,15.365c1.118,6.927-0.561,12.576,1.589,18.013   c3.447-6.334-1.667-22.111,2.649-27.021c0,4.15,0,9.519,0,14.305c0,4.394-1.27,11.106,1.589,12.715   c2.718-7.169,0.16-16.283,3.179-23.312c1.902-4.43,5.381-6.212,4.768-10.596c-0.743-5.316-6.797-6.549-9.007-11.656   c-0.586,2.239,1.248,6.898-1.059,7.417c-1.566-1.26,0.506-6.158-1.06-7.417C191.851,263.213,185.515,263.078,184.837,269.062z    M175.301,285.486c-6.571,1.023-6.496,10.28-1.059,12.714c0.517-3.696-3.031-3.326-2.12-7.416   c5.626-5.856,11.57,0.668,13.245,5.297c0.921,2.545-0.218,7.533,4.239,6.358C188.699,295.75,184.09,284.117,175.301,285.486z    M212.387,285.486c-8.121-0.358-12.012,10.465-13.244,16.953c4.501,0.906,3.339-4.025,4.239-6.358   c1.936-5.016,9.215-11.752,13.774-4.238c0.544,2.661-4.546,4.75-1.59,6.357C219.995,294.935,220.177,285.83,212.387,285.486z    M173.712,292.374c0.591,2.234,2.839,2.811,2.119,6.357c-0.597,2.118-4.521-0.268-4.239,1.589c1.237,0,2.473,0,3.709,0   c1.289-1.007,0.955-3.636,2.649-4.239c3.909,0.153,3.124,5,6.358,5.828C186.311,295.913,178.09,285.437,173.712,292.374z    M204.971,301.91c2.574-1.487,2.393-5.73,6.357-5.828c1.155,0.964,0.964,3.275,2.12,4.239c1.477,0.551,4.541,0.518,3.179-1.059   c0.089,1.149-1.88,0.239-2.649,0.529c-0.227-1.009-1.141-1.331-1.059-2.649c0.092-2.556,2.556-2.741,2.648-5.298   C209.376,286.07,202.278,297.183,204.971,301.91z M183.248,306.678c0.626,0.61,1.874,0.6,3.179,0.53   c0.705-1.119-0.261-1.566,0.53-3.179C185.236,302.694,182.562,303.949,183.248,306.678z M188.016,306.149   c3.311,1.423,6.413,0.18,11.126,0.529c-0.217-1.277,0.968-1.151,0.53-2.649C197.506,304.442,188.437,302.252,188.016,306.149z    M200.731,306.678c2.357,0.413,3.386-0.499,3.179-2.649c-0.615-0.444-1.42-0.7-2.648-0.53   C200.651,304.125,200.662,305.372,200.731,306.678z M204.971,306.149c1.776,0.363,1.937-0.89,2.119-2.12   c-0.325-0.155-2.04-1.318-2.119,0C206.288,304.108,205.125,305.823,204.971,306.149z M181.659,306.149   c-0.04-0.923,0.119-1.648,0.53-2.12C180.382,303.63,180.122,306.053,181.659,306.149z M182.718,319.394   c1-2.422,6.994-9.493,1.06-10.596c-0.005,1.407,0.201,3.025-0.53,3.709c-1.72-0.308-2.465,0.36-3.708,0.53   c1.671,2.236,0.487,3.236-0.529,5.297c0.729,4.238,7.464,5.797,9.536,1.59c-3.451-1.683,2.229-7.052,1.06-11.656   c-0.707,0-1.413,0-2.119,0C188.546,312.78,186.152,319.525,182.718,319.394z M193.314,329.99c0-7.241,0-14.481,0-21.722   c-0.529,0-1.06,0-1.589,0C192.684,315.3,186.382,325.623,193.314,329.99z M195.434,329.99c4.278-3.575,3.18-7.543,2.119-12.186   c-0.822-3.596,0.679-8.011-1.589-9.537c-0.353,0-0.706,0-1.06,0C195.256,315.333,194.2,323.807,195.434,329.99z M200.202,320.453   c3.783,3.52,7.947,2.267,9.007-2.12c0.464-1.919-2.126-3.741,0-5.297c-4.049,0.694-3.813-2.898-5.298-4.769   c-4.512,3.204,2.298,8.987,1.59,11.656c-3.219-2.172-5.224-6.857-4.238-11.656c-0.707,0-1.413,0-2.12,0   C198.173,313.135,203.523,318.319,200.202,320.453z M188.546,319.394C188.893,319.741,188.324,319.171,188.546,319.394   L188.546,319.394z"/>
	<path fill-rule="evenodd" clip-rule="evenodd" d="M399.407,254.758c1.962,6.775,9.241,8.022,9.537,14.834   c0.3,6.913-9.028,12.382-6.888,22.252c2.085-8.368,22.713-13.96,21.192,1.59c-0.813,1.305-1.53,2.708-2.649,3.708   c-0.054,1.644,1.667,1.512,1.06,3.709c-2.677,2.443-8.402,0.818-8.477-2.65c-4.433,1.898-1.067,8.706-4.238,12.187   c1.2,1.094,3.507,1.083,4.769,2.119c0.221,5.114-0.721,14.738-10.066,10.596c-1.493,4.159-3.177,8.126-7.418,9.537   c-2.306-2.64-4.963-4.927-5.298-9.537c-2.355,0.187-2.752,1.187-4.768,1.06c-5.842-0.369-5.348-6.791-5.828-11.125   c0.93-1.542,3.608-1.336,4.768-2.649c0.343-2.992-2.994-2.305-3.178-4.769c-0.437-2.379,1.519-2.367,2.118-3.709   c-0.607-1.334-0.858-3.027-2.118-3.709c-1.433,2.253-5.575,5.724-9.007,2.65c-0.565-1.439-0.337-2.482,1.06-3.179   c-0.993-1.304-1.657-2.935-2.648-4.238c-1.548-15.639,19.099-9.879,21.19-1.59c2.113-10.418-8.235-15.85-6.356-24.371   c1.185-5.375,8.044-7.005,10.065-12.715C397.289,254.758,398.349,254.758,399.407,254.758z M397.289,264.294   c-1.563-1.086,0.503-5.801-1.061-6.888c-2.151,5.008-7.69,5.94-8.477,11.126c-1.074,7.083,4.771,9.469,5.828,16.954   c0.859,6.091-0.637,11.605,1.589,16.953c3.151-6.561-1.032-20.458,2.12-27.021c1.929,7.607-1.22,20.292,1.59,27.021   c2.767-2.735,1.32-7.27,1.589-11.125c0.234-3.402,0.414-7.897,1.589-11.125c1.16-3.191,3.966-5.303,4.77-7.948   c2.41-7.946-6.174-9.378-8.478-15.364C397.762,259.116,399.595,263.774,397.289,264.294z M372.918,289.194   c-1.627,3.089,1.629,7.438,4.238,9.006c0.185-3.188-2.271-3.734-2.649-6.357c5.749-8.152,16.223,1.084,14.305,10.596   c1.235,0,2.473,0,3.708,0C393.363,292.189,378.247,279.068,372.918,289.194z M414.771,285.486   c-7.547,0.011-12.019,10.688-12.715,16.953c4.605,0.492,3.315-4.488,4.238-6.887c1.786-4.645,4.504-7.588,11.127-6.888   c0.39,1.199,2.019,1.16,2.119,2.649c1.026,3.524-4.267,5.09-1.061,7.417C422.982,293.742,422.479,285.475,414.771,285.486z    M376.097,291.844c1.278,2.77,4.478,6.232,1.06,7.947c-1.256,0.629-2.499-1.519-2.649,0.53c1.235,0,2.473,0,3.709,0   c1.347-0.948,0.702-3.889,2.647-4.239c3.859,0.382,3.208,5.271,6.359,6.358C388.742,296.108,381.905,286.008,376.097,291.844z    M407.884,301.91c2.634-1.43,1.785-6.34,6.888-5.298c0.384,1.205,0.472,2.706,1.06,3.708c1.442,0.542,4.986,0.501,3.71-1.059   c-1.069,1.374-4.083,0.232-3.71-1.589c-0.218-2.868,2.168-3.131,2.12-5.828C413.057,285.766,404.787,296.833,407.884,301.91z    M386.163,306.678c0.625,0.61,1.871,0.6,3.178,0.53c0-1.235,0-2.473,0-3.709C386.941,303.219,385.883,304.278,386.163,306.678z    M390.931,306.149c2.657,1.228,7.588,0.182,11.126,0.529c-0.306-0.932,0.64-3.113-0.529-3.179   C400.856,305.425,390.733,301.673,390.931,306.149z M403.646,306.678c0.883,0,1.767,0,2.648,0c0-1.06,0-2.12,0-3.179   c-0.882,0-1.766,0-2.648,0C403.646,304.559,403.646,305.619,403.646,306.678z M407.884,306.149c2.135,0.517,2.135-3.167,0-2.65   C407.884,304.382,407.884,305.265,407.884,306.149z M383.514,306.149c1.475,0.849,1.465-2.289,0.529-2.12   C383.876,304.745,383.29,305.042,383.514,306.149z M385.634,319.394c0.996-2.278,5.811-8.296,1.589-10.596   c-1.171,0.067-0.226,2.247-0.53,3.178c-1.484,0.283-2.755,0.778-4.239,1.061c-0.105,1.865,1.69,2.958-0.528,5.297   c0.667,4.378,5.634,5.061,9.006,2.649c-2.493-3.186,2.721-8.752,1.061-12.715c-0.531,0-1.061,0-1.59,0   C390.926,313.743,388.788,319.363,385.634,319.394z M396.229,329.99c-0.688-6.907,1.387-16.576-1.06-21.722   c-0.354,0-0.706,0-1.058,0C395.289,317.225,389.281,325.684,396.229,329.99z M398.349,329.99c5.883-5.375,1.674-13.859,0.53-21.722   c-0.354,0-0.708,0-1.061,0C398.17,315.333,397.113,323.807,398.349,329.99z M403.116,320.983c3.211,2.252,8.578,1.969,9.006-2.649   c-1.404-2.533-1.548-2.927,0-5.297c-2.969-0.032-5.106-0.897-4.238-4.769c-6.773,1.643,1.217,9.476,0.529,11.656   c-3.521-1.584-5.512-6.984-4.238-11.656c-0.706,0-1.412,0-2.118,0C400.902,313.853,406.379,318.219,403.116,320.983z"/>
	<path fill-rule="evenodd" clip-rule="evenodd" d="M578.48,284.956c-3.156,0.819-8.412,2.06-11.655,1.06   c4.265-4.094,11.677-6.512,11.655-14.304c-0.017-6.4-4.592-10.156-10.596-9.537c-10.5,1.083-8.26,19.58-16.424,25.431   c-12.658,9.071-27.189-6.349-21.191-22.781c2.972-0.496,7.196-2.185,10.065-1.061c-1.048,4.092-6.764,3.113-8.477,7.417   c-2.704,6.788,3.255,14.856,10.597,12.186c7.65-2.782,5.789-18.956,13.244-24.371C569.562,248.926,587.616,266.407,578.48,284.956z   "/>
	<path fill-rule="evenodd" clip-rule="evenodd" d="M20.599,287.076c-7.119,2.194-15.104,10.51-14.305,20.662   c-3.301-1.561-2.408-7.907-2.119-10.596c0.881-8.181,5.902-16.214,11.126-19.073c1.002-0.939,3.499-0.386,5.297-0.53   c7.232-30.077,54.812-26.601,50.861,10.066c-1.283,11.908-10.282,23.753-25.431,23.841   C31.012,311.532,22.553,301.397,20.599,287.076z M22.188,281.778c-1.814,26.501,49.654,25.892,47.683,0.529   c-0.859-11.053-13.744-17.145-28.08-15.364C31.9,268.171,22.829,272.423,22.188,281.778z"/>
	<path fill-rule="evenodd" clip-rule="evenodd" d="M473.051,266.942c-8.248,4.225-19.025,10.464-20.662,21.722   c-1.232,8.454,2.19,18.451,8.476,18.543c8.649,0.127,8.823-17.418,1.59-20.132c-3.038-0.566-4.208,0.736-6.357,1.059   c13.233-13.691,26.09,13.907,9.536,19.603c-10.664,3.668-20.332-4.468-19.603-16.424c0.94-15.417,15.443-20.198,25.431-24.9   C472.315,266.264,472.373,266.914,473.051,266.942z"/>
	<path fill-rule="evenodd" clip-rule="evenodd" d="M111.195,305.089c0.25,2.045,3.602,0.989,4.768,2.119   c-3.395,2.083-12.684,1.084-16.954,0.53c0.185-1.935,3.418-0.821,4.769-1.589c1.198-8.692,0.205-19.576,0.529-29.139   c-1.895-1.378-3.784,0.913-6.357,0.529c2.425-3.274,9.544-4.518,12.715-5.299C111.01,283.022,109.97,295.188,111.195,305.089z"/>
	<path fill-rule="evenodd" clip-rule="evenodd" d="M134.506,286.016c21.16,0.909,11.373,25.559-3.179,27.021   c-2.144,0.214-8.652,0.947-7.947-4.769c4.833-2.383,5.082,2.212,7.947,2.649c10.462,1.596,14.426-17.459,4.239-20.132   c-3.001-0.788-7.132,0.044-11.126,1.589c1.546-5.631,14.678-6.572,12.715-14.835c-0.786-3.309-4.611-4.144-7.417-3.179   c-3.041,1.045-3.536,4.174-5.828,4.239c0.508-7.699,17.635-9.183,19.073-2.12C144.096,281.943,138.505,283.864,134.506,286.016z"/>
	<path fill-rule="evenodd" clip-rule="evenodd" d="M503.779,272.771c-4.705,9.381-8.988,19.417-13.247,29.669   c-1.215,2.932-2.519,7.321-5.826,8.477c3.858-11.505,9.448-21.279,13.775-32.317c-6.424-1.43-14.45-0.006-21.192,0   c0.065-2.187-0.92-3.318-0.53-5.829C484.671,272.006,495.899,271.81,503.779,272.771z"/>
	<path fill-rule="evenodd" clip-rule="evenodd" d="M532.388,295.552c2.696,0.483,1.054,5.304,2.649,6.887   c13.371,1.64,27.457,2.565,41.854,3.179c3.045-0.488,0.94-6.123,4.238-6.357c0.496,6.362-0.807,15.41-1.591,22.251   c-2.903-0.098-0.865-5.138-2.647-6.358c-12.601-2.41-27.728-2.294-41.325-3.708c-2.593,0.762-2.32,4.391-3.708,6.358   c-3.478-3.685,0.921-13.644,0-20.663C531.709,296.286,532.359,296.229,532.388,295.552z"/>
	<path fill-rule="evenodd" clip-rule="evenodd" d="M63.513,311.976c0.53,0,1.06,0,1.589,0c1.552,6.926,2.586,14.368,3.709,21.722   c-3.652,0.121-2.224-4.84-4.769-5.828c-9.528,3.593-32.564,1.005-39.206,8.477c-7.459,8.392-0.728,24.208,11.656,23.311   c10.612-0.768,23.057-3.928,32.318-6.357c1.512-2.128-0.794-5.997,1.06-6.887c2.797,3.948,3.279,12.917,3.708,17.483   c-3.2-0.156-1.678-5.033-4.238-5.828c-12.734-1.607-23.71,6.144-36.557,4.768c-12.517-1.339-20.089-29.823-6.357-37.086   c10.771-5.696,25.482-1.997,36.557-7.417C63.688,316.742,63.522,314.281,63.513,311.976z"/>
	<path fill-rule="evenodd" clip-rule="evenodd" d="M540.865,327.87c-5.848,2.774-12.983,3.677-12.187,12.186   c0.417,4.448,3.995,8.208,10.067,6.887c7.277-1.583,9.156-15.602,17.482-18.542c19.134-6.759,27.513,19.386,14.835,31.257   c-4.364-0.58-9.725-0.164-11.655-3.179c8.275-1.604,16.315-4.124,15.894-13.245c-0.239-5.188-5.126-9.15-10.597-8.477   c-10.035,1.235-10.998,19.421-24.37,19.602c-13.513,0.184-17.324-15.189-9.536-28.609   C534.383,326.228,538.784,325.888,540.865,327.87z"/>
	<path fill-rule="evenodd" clip-rule="evenodd" d="M526.031,355.95c0.528,0,1.059,0,1.589,0c1.126,2.145-0.747,3.614-0.53,6.357   c12.599,8.24,31.178,10.499,44.502,18.012c-2.769,3.976-8.388,4.375-12.715,5.828c-12.799,4.298-27.161,9.57-40.794,13.775   c4.111,2.537,10.871,3.839,18.015,6.357c5.793,2.043,13.635,6.864,18.012,5.829c3.546-0.839,2.253-5.198,5.828-5.829   c-1.281,6.666-3.663,12.232-5.828,18.015c-2.99-0.584-0.113-3.743-0.529-6.358c-10.942-7.603-26.524-10.562-39.736-15.894   c-3.595,0.113-2.078,5.337-5.827,5.297c0.594-5.94,3.736-9.332,4.769-14.834c14.445-4.981,29.034-9.818,43.975-14.304   c-9.555-4.222-19.699-7.851-30.729-10.596c-3.044,0.666-1.987,5.432-5.3,5.827C520.641,367.825,524.98,362.171,526.031,355.95z"/>
	<path fill-rule="evenodd" clip-rule="evenodd" d="M74.109,365.486c0.53,0,1.06,0,1.589,0c2.196,6.656,6.003,14.452,6.888,20.662   c-3.345,0.166-2.305-4.053-4.769-4.768c-14.343,3.847-27.422,8.957-40.264,14.304c-0.833,2.793,1.868,5.826-0.531,6.888   c-3.177-6.025-6.643-14.521-7.416-21.192c2.987,0.367,2.342,4.367,4.767,5.298c13.987-4.381,27.907-8.827,40.265-14.835   C75.056,369.132,73.896,367.995,74.109,365.486z"/>
	<path fill-rule="evenodd" clip-rule="evenodd" d="M81.526,389.327c3.484,3.011,8.623,8.338,9.007,12.716   c0.478,5.458-5.315,14.751-7.947,21.722c-2.998,7.938-5.775,15.433-7.948,21.192c8.553-4.339,19.537-10.839,27.55-17.484   c0.318-3.32-2.174-3.83-2.119-6.887c3.875,0.222,4.395,5.029,5.828,7.417c1.653,2.757,4.244,4.767,4.768,7.947   c-2.779,1.36-3.733-3.196-5.828-4.238c-15.171,6.728-26.653,17.144-41.854,23.841c1.257-9.43,5.157-18.607,8.477-27.55   c3.326-8.96,7.139-17.544,10.066-26.489c-11.077,6.76-23.207,12.466-32.318,21.192c-0.055,3.055,2.023,3.982,2.119,6.888   c-3.667-0.511-4.808-4.953-6.357-7.418c-1.72-2.734-4.092-5.238-4.769-8.477c3.073-0.844,3.337,3.862,6.357,4.238   c3.735,0.465,16.19-8.542,19.603-10.596c7.306-4.395,13.768-8.21,17.484-12.185C83.259,392.892,81.234,392.268,81.526,389.327z"/>
	<path fill-rule="evenodd" clip-rule="evenodd" d="M297.155,400.454c2.094,6.146,9.169,7.552,10.066,13.774   c1.091,7.556-8.816,13.177-6.888,23.312c2.914-5.939,14.953-12.448,20.134-5.298c1.946,2.688,1.962,8.133-1.591,10.597   c0.162,1.604,1.641,1.893,1.062,4.238c-2.902,1.988-8.159,1.004-7.948-3.18c-4.8,1.782-1.941,8.197-4.238,12.715   c1.006,0.938,3.392,0.494,4.238,1.591c-1.4,1.978,0.556,4.135,0,6.356c-0.996,3.987-4.548,7.082-9.537,4.239   c-1.807,3.668-3.762,7.188-6.357,10.066c-4.007-1.644-6.036-5.265-6.887-10.066c-1.832,0.642-3.51,1.434-6.358,1.061   c-4.33-1.562-3.805-8.298-3.708-11.656c1.163-0.604,2.164-1.368,4.238-1.061c0.744-3.746-2.763-3.242-3.179-5.826   c-0.026-1.793,1.234-2.299,2.119-3.18c-0.308-1.988-1.066-3.523-2.648-4.239c-0.863,1.08-1.114,2.772-2.119,3.71   c-2.42-0.053-5.374,0.428-6.357-1.059c-0.419-1.833,0.588-2.238,1.059-3.181c-0.667-1.629-1.924-2.666-2.649-4.238   c-1.25-15.435,18.806-9.822,21.192-1.59c2.157-10.009-7.241-15.266-6.358-22.782c0.739-6.286,7.917-8.419,10.596-14.304   C295.743,400.454,296.45,400.454,297.155,400.454z M295.566,410.52c-1.566-1.26,0.506-6.158-1.061-7.417   c-1.764,5.7-7.775,6.145-8.476,11.655c-0.587,4.623,3.888,7.665,5.298,12.715c0.781,2.802,0.893,6.088,1.06,9.008   c0.235,4.146-1.487,10.067,1.589,11.655c1.929-7.432-1.219-19.939,1.59-26.491c0.952,3.596,0.529,8.832,0.529,13.774   c0,4.338-1.251,11.266,1.59,12.717c2.777-7.415,0.133-14.485,2.648-21.723c1.849-5.314,6.016-7.862,5.299-12.186   c-0.865-5.216-7.327-6.172-9.006-11.655C296.027,404.975,297.89,409.841,295.566,410.52z M287.09,437.01   c-7.906-11.484-22.417-1.795-12.186,7.418c2.004-3.109-2.621-3.577-1.589-7.418c4.67-6.665,11.648,0.443,13.245,4.767   c0.864,2.34-0.415,7.563,4.239,6.359C289.666,444.234,289.515,440.531,287.09,437.01z M314.109,431.182   c-8.221-0.664-12.611,10.382-13.775,16.954c5.066,0.944,3.487-5.066,4.769-7.947c2.198-4.942,11.325-9.271,13.246-1.59   c-0.451,2.043-3.797,3.351-2.119,5.829C320.965,441.69,321.67,431.792,314.109,431.182z M274.904,438.07   c0.136,2.512,2.581,2.717,2.12,5.826c-0.167,1.608-2.992,2.151-4.239,1.061c0.044,2.181,2.87,1.576,4.239,1.06   c0.851-0.915,0.257-3.276,1.589-3.708c5.093-0.855,3.209,5.268,6.888,5.827C287.386,442.42,280.191,431.497,274.904,438.07z    M317.817,446.017C319.405,445.91,317.312,443.816,317.817,446.017c-6.192-0.202-2.582-5.903-1.059-8.478   c-6.136-5.629-13.254,5.311-10.597,10.067c2.955-0.932,1.856-5.915,6.358-5.298c1.483,0.281,0.979,2.553,1.589,3.708   C315.055,446.013,317.192,447.442,317.817,446.017z M301.923,449.726c0,0.883,0,1.766,0,2.648c0.884,0,1.767,0,2.65,0   c0.425-1.301,0.91-3.056-1.06-3.179C303.425,449.813,302.675,449.771,301.923,449.726z M306.162,452.374   c1.66,0.247,1.494-1.332,2.12-2.119c-1.053-0.008-0.675-1.446-2.12-1.06C306.638,450.746,306.638,450.823,306.162,452.374z    M282.851,452.374c-0.169-1.228,0.085-2.034,0.53-2.648C281.233,449.416,281.699,451.904,282.851,452.374z M284.44,452.904   c1.061,0,2.12,0,3.179,0c-0.382-1.619,0.542-1.931,0.53-3.179c-1.059,0-2.119,0-3.178,0   C284.982,450.974,284.058,451.285,284.44,452.904z M289.208,452.374c2.967,0.387,11.781,2.323,11.656-2.119   c-2.734-1.151-7.532-0.237-11.126-0.529C289.955,451.001,288.771,450.877,289.208,452.374z M296.626,475.686   c6.947-4.811,0.02-12.979,2.119-21.193c-0.678-0.027-0.733-0.679-1.59-0.528C295.119,458.992,296.037,469.794,296.626,475.686z    M301.394,466.679c7.064,5.342,10.172-3.692,8.478-7.947c-2.958,0.133-4.348-1.304-3.709-4.768   c-5.595,1.332-0.658,8.997,1.06,11.125c-3.915,0.755-5.788-6.859-4.769-11.125c-0.706,0-1.413,0-2.119,0   C299.064,459.433,304.822,464.079,301.394,466.679z M280.731,458.731c1.116,2.793,0.773,2.951-0.53,5.298   c0.238,4.191,6.852,5.769,9.007,2.12c-2.905-2.334,3.943-8.856,0.53-11.657c-2.022,3.105-1.332,11.729-5.827,10.597   c1.475-3.129,4.597-6.187,3.179-10.597c-0.706,0-1.413,0-2.119,0C285.7,458.048,283.642,458.816,280.731,458.731z M294.506,476.215   c-0.686-6.905,1.389-16.574-1.059-21.723c-0.353,0-0.707,0-1.06,0C294.08,462.422,287.523,471.455,294.506,476.215z    M289.738,465.62C290.085,465.966,289.516,465.398,289.738,465.62L289.738,465.62z M300.864,465.62   C301.211,465.966,300.643,465.398,300.864,465.62L300.864,465.62z"/>
	<path fill-rule="evenodd" clip-rule="evenodd" d="M512.256,416.347c-11.507-1.616-14.245,5.534-18.015,11.655   c4.041,4.614,9.572,7.735,15.365,10.597c5.314-3.159,8.08-11.199,3.709-16.954c4.547,1.669,10.578,6.349,14.834,10.066   c-7.76-1.873-13.303,1.836-15.364,8.478c4.392,5.145,10.862,8.211,16.953,11.655c8.308-2.688,10.595-15.143,5.299-22.781   c3.379,0.054,6.562,4.683,9.536,6.887c-6.205,11.104-12.688,21.928-20.662,31.259c-1.67-2.327,1.664-3.413,1.059-6.358   c-10.222-9.379-23.143-16.061-34.966-23.84c-3.216-0.08-3.673,4.974-6.357,3.708c5.539-11.414,13.402-20.505,19.603-31.259   C506.31,411.696,510.657,412.646,512.256,416.347z"/>
	<path fill-rule="evenodd" clip-rule="evenodd" d="M99.54,491.579c-2.166,5.411-2.188,11.899,0,16.954   c1.583,3.656,5.13,5.162,5.297,7.947c-10.545-3.619-20.959-20.96-12.186-32.319c-12.693-22.331,5.142-44.411,25.96-40.265   c9.975,1.988,20.635,12.063,22.252,23.312C144.319,491.245,118.073,505.324,99.54,491.579z M93.712,474.097   c-0.322,2.821-0.387,5.822,0.53,8.477c5.999,17.37,34.27,5.892,39.735-9.007c4.563-12.438-1.733-24.801-13.775-24.371   C107.283,449.655,95.221,460.86,93.712,474.097z"/>
	<path fill-rule="evenodd" clip-rule="evenodd" d="M481.527,443.367c1.126,2.34-1.62,3.553-2.119,5.828   c8.965,11.168,21.566,18.699,32.317,28.08c3.504,0.147,3.217-3.494,6.887-3.179c-3.886,6.709-8.863,12.326-14.304,17.482   c-1.523-2.173,1.898-3.876,1.589-6.357c-0.52-4.166-12.698-11.702-15.894-14.305c-6.619-5.391-11.663-10.148-16.425-13.245   c-3.025-0.053-3.814,4.46-6.356,3.178C469.967,455.095,475.982,448.082,481.527,443.367z"/>
	<path fill-rule="evenodd" clip-rule="evenodd" d="M469.342,475.155c-6.011-5.032-18.052-4.641-18.544,4.769   c-0.147,2.842,2.617,7.973,7.418,8.476c6.584,0.691,17.969-7.941,27.021-1.588c4.431,3.11,6.369,9.461,5.827,14.834   c-1.367,13.536-22.994,24.254-25.961,6.888c9.373,5.838,22.469,5.626,22.782-5.297c0.126-4.442-4.138-9.05-8.477-9.538   c-5.835-0.656-13.116,4.057-19.603,3.71c-6.604-0.355-12.437-5.662-12.716-12.717c-0.301-7.562,5.669-14.388,14.834-18.013   C464.203,465.776,470.001,472.522,469.342,475.155z"/>
	<path fill-rule="evenodd" clip-rule="evenodd" d="M165.764,489.461c-1.173,2.962-3.602-1.104-5.827-0.53   c-3.836,2.763-7.582,8.751-11.655,14.834c-3.905,5.83-10.503,13.415-9.537,20.663c1.371,10.286,17.347,15.27,24.371,6.887   c6.504-7.763,11.586-19.308,17.484-27.55c0.028-3.736-4.51-2.908-4.239-6.888c5.652,2.65,11.089,5.513,14.835,10.066   c-2.014,1.355-3.518-1.562-5.828-1.588c-10.458,5.109-15.292,31.909-28.609,33.376c-10.922,1.204-28.119-12.073-24.901-23.313   c3.203-11.183,15.329-21.631,19.073-31.258c0.126-3.48-3.834-2.875-3.708-6.356C153.337,479.662,160.168,485.324,165.764,489.461z"/>
	<path fill-rule="evenodd" clip-rule="evenodd" d="M441.792,496.877c-6.822-5.372-16.638-1.751-21.192,3.709   c2.269,6.209,5.993,10.959,9.538,15.895c4.771-1.407,8.283-4.075,10.595-7.947c0.463-2.257-1.623-4.7,0-6.357   c3.534,4.588,6.627,9.619,9.007,15.363c-3.573-0.015-4.191-3.446-7.419-3.709c-4.08-0.33-7.112,3.241-10.063,5.299   c2.775,6.759,6.424,12.648,11.124,17.483c10.709-0.56,14.535-9.486,13.775-18.542c3.375,1.924,3.883,6.711,5.826,10.065   c-9.55,7.755-20.394,14.218-31.786,20.133c-0.092-3.271,3.387-2.972,3.708-5.828c-6.423-13.005-14.207-24.646-22.251-36.026   c-3.183-0.69-4.68,2.466-6.888,1.059c3.682-4.704,9.776-6.93,14.834-10.064c5.201-3.227,10.146-6.562,14.834-10.067   c0.529,0,1.061,0,1.59,0C438.333,490.519,442.265,493.655,441.792,496.877z"/>
	<path fill-rule="evenodd" clip-rule="evenodd" d="M193.314,506.943c12.276,3.439,21.665,9.771,33.908,13.246   c-0.822,4.299-2.035,8.207-4.769,10.596c-0.178-9.711-6.671-13.109-14.304-15.366c-4.86,3.441-5.62,10.982-8.477,16.427   c2.06,2.625,6.925,5.291,11.126,4.767c3.181-0.396,3.938-3.365,6.887-3.708c-2.263,5.506-4.242,11.298-7.417,15.894   c-2.341-2.095-0.251-4.657-1.059-6.888c-1.466-4.049-6.146-4.849-10.597-6.356c-0.998,4.237-8.521,12.651-7.946,18.012   c0.51,4.767,9.068,8.291,14.834,6.889c4.271-1.039,4.789-4.713,9.006-4.769c-1.032,4.266-3.956,6.642-5.298,10.595   c-9.316-2.717-17.938-6.912-27.02-10.595c-2.474-1.003-6.68-1.447-7.417-4.769c2.509-0.213,3.646,0.947,6.357,0.53   c6.764-11.779,11.381-25.706,16.954-38.676C197.792,509.531,193.205,510.587,193.314,506.943z"/>
	<path fill-rule="evenodd" clip-rule="evenodd" d="M390.401,513.301c-0.06,3.297-4.124,2.586-4.768,5.299   c1.281,6.061,4.457,11.944,7.946,20.662c2.154,5.387,4.506,17.769,10.066,18.543c7.063,0.982,12.462-7.686,13.775-15.364   c3.041,2.078,2.896,7.344,3.708,11.656c-11.787,3.231-22.478,10.358-33.907,12.184c0.875-2.656,4.508-2.556,5.297-5.296   c-5.158-13.209-9.867-26.865-15.894-39.206c-2.786-0.599-4.936,1.434-6.887,0C375.244,517.903,384.239,514.762,390.401,513.301z"/>
	<path fill-rule="evenodd" clip-rule="evenodd" d="M268.017,529.726c-0.398,3.84-1.302,7.174-2.119,10.596   c-3.105-0.889-1.91-3.796-3.179-5.828c-2.752-4.406-8.211-5.565-14.834-6.357c-3.655,3.939-3.598,11.59-4.77,18.014   c2.711,1.837,7.011,3.338,10.597,2.648c3.776-0.726,3.91-4.429,6.887-5.297c-0.571,4.422-1.929,12.514-4.238,16.953   c-1.483-6.641-4.894-11.355-13.775-10.597c-0.785,5.659-5.822,13.132-4.239,19.073c1.112,4.172,8.725,5.788,13.775,4.768   c5.32-1.071,6.087-7.531,10.066-6.888c-1.005,3.938-2.443,7.446-3.708,11.127c-6.52-0.183-12.692-2.383-19.073-3.71   c-5.987-1.245-13.064-1.013-17.484-4.768c1.138-0.98,3.881-0.358,5.828-0.529c5.25-11.882,7.05-27.212,9.537-41.854   c-0.359-2.644-4.848-1.155-5.298-3.709c-0.195-0.9,0.413-1,1.06-1.061C244.607,524.878,256.298,527.315,268.017,529.726z"/>
	<path fill-rule="evenodd" clip-rule="evenodd" d="M365.5,523.897c1.38,2.684,2.596,5.527,3.18,9.007   c-5.893-0.895-6.163-5.448-11.127-6.357c-5.734-1.053-12.125,1.938-14.305,3.708c-14.741,11.957-3.929,49.138,19.074,42.384   c6.747-1.98,7.629-7.84,11.126-14.834c3.19,0.695,1.321,6.447,2.648,9.006c-15.569,16.451-46.511,8.287-49.271-11.654   C323.85,533.668,345.601,522.001,365.5,523.897z"/>
	<path fill-rule="evenodd" clip-rule="evenodd" d="M317.817,533.963c0.347,2.793,1.49,7.158,0.531,9.538   c-5.086-2.647-5.63-9.222-11.656-10.066c-26.333-3.692-31.768,37.205-12.187,45.562c4.406,1.881,10.168,1.43,13.776-0.528   c4.359-2.368,4.804-7.684,10.066-9.537c-0.298,3.588-0.673,7.099-1.59,10.065c-21.912,9.496-46.84-3.296-43.974-25.96   C275.081,534.877,297.421,526.715,317.817,533.963z"/>
</g>
</svg>