<?xml version="1.0" standalone="no"?>
<!DOCTYPE svg PUBLIC "-//W3C//DTD SVG 20010904//EN"
 "http://www.w3.org/TR/2001/REC-SVG-20010904/DTD/svg10.dtd">
<svg version="1.0" xmlns="http://www.w3.org/2000/svg"
 width="2362.000000pt" height="787.000000pt" viewBox="0 0 2362.000000 787.000000"
 preserveAspectRatio="xMidYMid meet">

<g transform="translate(0.000000,787.000000) scale(0.100000,-0.100000)"
fill="#000000" stroke="none">
<path d="M12885 6419 c-60 -94 -111 -175 -113 -180 -2 -5 54 -9 130 -9 l134 0
135 115 c73 63 135 118 136 122 2 6 -229 97 -302 119 -5 2 -59 -73 -120 -167z"/>
<path d="M5036 6148 c-3 -7 -7 -67 -10 -133 -20 -443 -193 -898 -484 -1275
-90 -116 -286 -309 -409 -403 -295 -224 -634 -375 -988 -437 -100 -18 -308
-40 -377 -40 l-28 0 0 -140 0 -140 90 0 c189 0 479 49 688 115 1028 327 1744
1256 1798 2333 l7 132 -142 0 c-105 0 -143 -3 -145 -12z"/>
<path d="M5610 6133 c0 -83 -23 -324 -40 -432 -93 -572 -358 -1104 -760 -1524
-482 -504 -1120 -811 -1820 -876 -63 -6 -145 -11 -182 -11 l-68 0 0 -146 0
-147 128 7 c320 17 603 70 882 164 901 305 1615 999 1949 1893 116 311 191
703 191 995 l0 104 -140 0 -140 0 0 -27z"/>
<path d="M6470 6015 l0 -145 575 0 576 0 -3 143 -3 142 -572 3 -573 2 0 -145z"/>
<path d="M9879 6084 c-192 -34 -323 -125 -392 -273 -29 -61 -32 -74 -32 -171
0 -99 2 -110 32 -171 66 -134 178 -203 459 -284 87 -25 182 -56 209 -69 149
-67 167 -204 37 -268 -39 -19 -62 -23 -142 -22 -58 0 -121 7 -160 18 -89 24
-252 103 -328 160 -34 25 -64 46 -65 46 -2 0 -34 -64 -72 -142 l-68 -141 29
-24 c94 -77 264 -156 422 -195 123 -31 352 -30 465 0 164 45 273 127 334 250
37 75 38 78 38 192 0 110 -1 118 -33 182 -66 134 -173 202 -457 288 -261 79
-325 122 -325 220 0 34 6 47 30 70 90 84 312 58 561 -66 l86 -43 69 145 c57
121 66 147 54 155 -8 6 -51 28 -95 49 -201 97 -448 132 -656 94z"/>
<path d="M14405 6090 c-424 -46 -725 -371 -725 -780 0 -324 185 -605 481 -728
219 -91 492 -81 704 25 68 35 183 115 223 156 l32 33 -101 111 -101 111 -55
-44 c-107 -88 -230 -134 -354 -134 -136 0 -245 46 -336 142 -250 265 -130 701
220 794 61 16 154 18 217 3 73 -16 184 -77 248 -135 l60 -54 101 124 101 124
-52 47 c-167 150 -429 231 -663 205z"/>
<path d="M10790 5935 l0 -145 418 -2 419 -3 -434 -509 -433 -510 0 -118 0
-118 680 0 680 0 0 150 0 150 -437 2 -436 3 426 503 427 504 0 119 0 119 -655
0 -655 0 0 -145z"/>
<path d="M12340 5305 l0 -775 605 0 605 0 0 145 0 145 -427 2 -428 3 0 170 0
170 373 3 372 2 0 145 0 145 -375 0 -375 0 0 165 0 165 418 2 417 3 3 143 3
142 -596 0 -595 0 0 -775z"/>
<path d="M15300 5305 l0 -775 180 0 180 0 0 305 0 305 350 0 350 0 0 -305 0
-305 175 0 175 0 0 775 0 775 -175 0 -175 0 0 -320 0 -320 -350 0 -350 0 0
320 0 320 -180 0 -180 0 0 -775z"/>
<path d="M17040 5305 l0 -775 600 0 600 0 0 145 0 145 -425 0 -425 0 0 175 0
175 375 0 376 0 -3 143 -3 142 -372 3 -373 2 0 165 0 165 415 0 415 0 0 145 0
145 -590 0 -590 0 0 -775z"/>
<path d="M18510 5305 l0 -775 165 0 165 0 2 496 3 497 375 -497 375 -496 157
0 158 0 0 775 0 775 -165 0 -165 0 -2 -492 -3 -492 -370 492 -370 491 -162 0
-163 1 0 -775z"/>
<path d="M20063 6067 c3 -7 131 -246 286 -531 l281 -519 0 -243 0 -244 175 0
175 0 0 253 0 253 261 485 c143 266 270 501 280 522 l19 37 -177 0 -178 -1
-188 -339 c-104 -187 -192 -340 -195 -340 -4 1 -94 154 -200 340 l-193 340
-176 0 c-140 0 -174 -3 -170 -13z"/>
<path d="M21680 5305 l0 -775 175 0 175 0 0 775 0 775 -175 0 -175 0 0 -775z"/>
<path d="M6470 5440 l0 -140 575 0 575 0 0 140 0 140 -575 0 -575 0 0 -140z"/>
<path d="M6470 4865 l0 -145 573 2 572 3 3 143 3 142 -576 0 -575 0 0 -145z"/>
<path d="M6470 4295 l0 -145 575 0 576 0 -3 143 -3 142 -572 3 -573 2 0 -145z"/>
<path d="M11510 4109 c-89 -13 -247 -69 -315 -110 -182 -110 -307 -272 -362
-469 -27 -99 -25 -309 5 -413 41 -143 112 -258 220 -358 118 -109 232 -166
402 -201 226 -47 523 9 742 141 l63 39 3 301 2 301 -155 0 -155 0 0 -206 0
-205 -54 -24 c-178 -78 -371 -73 -509 15 -187 118 -270 351 -203 567 38 120
158 245 283 294 88 34 239 38 335 9 89 -27 169 -67 227 -113 l45 -35 98 123
c54 68 98 126 98 129 0 12 -175 119 -238 145 -160 66 -373 94 -532 70z"/>
<path d="M9460 3335 l0 -775 600 0 600 0 0 145 0 145 -425 0 -425 0 0 170 0
170 375 0 375 0 0 145 0 145 -375 0 -375 0 0 170 0 170 415 0 415 0 0 145 0
145 -590 0 -590 0 0 -775z"/>
<path d="M12371 4088 c6 -13 135 -251 285 -529 l274 -505 0 -247 0 -247 175 0
175 0 0 243 0 242 285 529 c157 292 285 531 285 533 0 2 -80 2 -177 1 l-177
-3 -191 -342 c-104 -189 -192 -343 -195 -343 -3 0 -93 154 -200 343 l-196 342
-177 3 -178 2 12 -22z"/>
<path d="M14007 4103 c-4 -3 -7 -352 -7 -775 l0 -768 605 0 605 0 0 145 0 145
-425 0 -425 0 0 170 0 170 370 0 370 0 0 145 0 145 -370 0 -370 0 0 170 0 170
415 0 416 0 -3 143 -3 142 -586 3 c-322 1 -589 -1 -592 -5z"/>
<path d="M15337 4103 c-4 -3 -7 -71 -7 -150 l0 -143 240 0 240 0 0 -625 0
-625 175 0 175 0 0 625 0 625 235 0 235 0 0 150 0 150 -643 0 c-354 0 -647 -3
-650 -7z"/>
<path d="M16800 3335 l0 -775 600 0 600 0 0 145 0 145 -425 0 -425 0 0 170 0
170 375 0 375 0 0 145 0 145 -375 0 -375 0 0 170 0 170 415 0 415 0 0 145 0
145 -590 0 -590 0 0 -775z"/>
<path d="M18290 3335 l0 -775 155 0 155 0 2 517 3 517 205 -442 205 -442 112
0 113 0 28 58 c16 31 107 226 202 432 95 206 177 379 182 384 4 6 8 -223 8
-507 l0 -517 155 0 155 0 0 775 0 775 -196 -2 -196 -3 -222 -467 c-121 -258
-223 -468 -226 -468 -3 0 -106 212 -229 470 l-224 470 -193 0 -194 0 0 -775z"/>
<path d="M6470 3720 l0 -140 575 0 575 0 0 140 0 140 -575 0 -575 0 0 -140z"/>
<path d="M6470 3145 l0 -145 575 0 575 0 0 145 0 145 -575 0 -575 0 0 -145z"/>
<path d="M1590 2575 l0 -145 2150 0 2150 0 0 145 0 145 -2150 0 -2150 0 0
-145z"/>
<path d="M6470 2575 l0 -145 575 0 576 0 -3 143 -3 142 -572 3 -573 2 0 -145z"/>
<path d="M18825 2153 l-45 -68 32 -3 c29 -3 39 3 75 45 24 26 43 51 43 55 0 4
-13 14 -30 23 l-29 15 -46 -67z"/>
<path d="M18973 2153 l-42 -68 31 -3 c28 -3 38 3 75 45 23 26 42 51 43 55 0 6
-52 38 -62 38 -2 0 -22 -30 -45 -67z"/>
<path d="M6470 2000 l0 -140 575 0 575 0 0 140 0 140 -575 0 -575 0 0 -140z"/>
<path d="M9460 1738 c0 -244 1 -255 24 -303 25 -55 80 -109 135 -133 24 -11
67 -16 131 -16 85 -1 101 2 153 28 38 18 69 43 88 69 52 72 59 116 59 374 l0
233 -40 0 -40 0 0 -222 c0 -238 -6 -282 -47 -337 -68 -89 -239 -96 -326 -13
-53 50 -57 73 -57 333 l0 239 -40 0 -40 0 0 -252z"/>
<path d="M10230 1635 l0 -355 40 0 40 0 2 282 3 282 210 -282 210 -281 43 -1
42 0 0 355 0 355 -40 0 -40 0 -2 -280 -3 -280 -210 280 -210 280 -42 0 -43 0
0 -355z"/>
<path d="M11010 1635 l0 -355 40 0 40 0 0 355 0 355 -40 0 -40 0 0 -355z"/>
<path d="M11197 1948 c9 -24 74 -182 143 -353 l126 -310 43 0 43 0 127 310
c70 171 135 329 144 353 l17 42 -43 0 -43 0 -120 -300 c-65 -165 -121 -300
-124 -300 -3 0 -58 135 -123 300 l-118 300 -45 0 -44 0 17 -42z"/>
<path d="M11930 1635 l0 -355 245 0 245 0 0 40 0 40 -202 2 -203 3 -3 118 -3
117 181 0 180 0 0 40 0 40 -177 2 -178 3 -3 113 -3 112 201 0 200 0 0 40 0 40
-240 0 -240 0 0 -355z"/>
<path d="M12552 1638 l3 -353 37 -3 37 -3 3 113 3 113 116 3 116 3 76 -116 77
-115 46 0 45 0 -76 112 c-42 61 -79 117 -81 123 -3 7 9 18 25 25 42 17 98 81
110 127 16 58 13 143 -8 188 -10 22 -34 55 -54 72 -58 51 -117 63 -309 63
l-168 0 2 -352z m385 252 c55 -25 83 -70 83 -135 0 -70 -25 -115 -80 -142 -39
-20 -59 -23 -177 -23 l-133 0 0 160 0 160 133 0 c108 0 140 -4 174 -20z"/>
<path d="M13351 1977 c-85 -27 -141 -123 -122 -207 17 -76 75 -120 211 -160
137 -41 180 -73 180 -138 0 -70 -93 -121 -195 -107 -58 7 -125 35 -172 71
l-33 25 -17 -35 c-19 -42 -13 -52 52 -91 153 -89 371 -62 432 54 28 54 30 123
4 171 -25 48 -79 82 -193 119 -148 49 -201 96 -181 158 17 51 55 68 151 68 74
0 95 -4 140 -26 l53 -26 15 35 c18 45 10 54 -69 82 -63 22 -197 26 -256 7z"/>
<path d="M13860 1634 l0 -355 38 3 37 3 3 353 2 352 -40 0 -40 0 0 -356z"/>
<path d="M14030 1950 l0 -40 115 0 115 0 0 -315 0 -315 40 0 40 0 0 315 0 315
115 0 115 0 0 40 0 40 -270 0 -270 0 0 -40z"/>
<path d="M14631 1968 c7 -13 67 -118 135 -234 l124 -211 0 -122 0 -121 40 0
40 0 0 122 0 121 122 211 c66 116 128 221 136 234 14 22 14 22 -30 22 l-44 0
-109 -180 c-61 -99 -112 -180 -115 -180 -3 0 -54 81 -115 180 l-110 179 -43 1
c-41 0 -42 -1 -31 -22z"/>
<path d="M15823 1976 c-99 -32 -181 -106 -225 -203 -34 -75 -32 -198 6 -280
93 -203 355 -274 549 -151 60 38 110 102 138 176 30 80 24 197 -14 274 -33 68
-100 131 -175 166 -46 22 -74 27 -147 29 -55 2 -106 -3 -132 -11z m239 -88
c26 -11 67 -42 92 -68 158 -169 46 -439 -190 -458 -87 -7 -155 18 -221 81 -88
83 -112 196 -64 302 66 148 229 209 383 143z"/>
<path d="M16450 1634 l0 -355 38 3 37 3 3 153 3 152 164 0 165 0 0 35 0 35
-165 0 -165 0 0 125 0 125 183 2 182 3 3 38 3 37 -225 0 -226 0 0 -356z"/>
<path d="M17469 1967 c-95 -40 -156 -94 -201 -180 -20 -36 -23 -57 -23 -147 0
-91 3 -112 25 -155 33 -68 108 -141 178 -173 48 -22 71 -26 147 -27 101 0 146
11 223 55 l52 30 0 130 0 130 -35 0 -34 0 -3 -107 -3 -108 -50 -25 c-65 -32
-164 -39 -234 -15 -68 22 -142 91 -171 156 -27 64 -25 162 5 224 40 82 130
146 227 160 57 9 158 -16 212 -52 l40 -26 23 29 23 29 -22 19 c-55 46 -130 70
-228 73 -82 3 -103 0 -151 -20z"/>
<path d="M17933 1983 c2 -5 63 -110 136 -234 l131 -226 0 -121 0 -122 40 0 40
0 0 122 0 121 122 211 c67 116 128 221 136 234 14 22 13 22 -29 22 l-44 0
-110 -180 c-60 -99 -112 -180 -115 -180 -3 1 -54 81 -115 180 l-110 179 -43 1
c-24 0 -41 -3 -39 -7z"/>
<path d="M18789 1975 c-157 -50 -257 -196 -247 -359 9 -137 80 -239 206 -299
61 -29 76 -32 162 -32 88 0 101 3 162 33 44 21 84 51 117 88 158 172 98 453
-117 552 -71 32 -209 41 -283 17z m237 -85 c131 -57 200 -212 155 -344 -17
-49 -92 -130 -146 -159 -58 -31 -193 -31 -251 0 -63 34 -97 66 -128 122 -56
104 -42 223 37 309 89 95 217 124 333 72z"/>
<path d="M19412 1638 l3 -353 37 -3 37 -3 3 113 3 113 116 3 116 3 74 -113 74
-113 49 -3 48 -3 -76 110 c-42 61 -79 117 -82 125 -3 8 7 18 25 26 42 17 98
81 110 127 27 96 7 190 -53 249 -61 62 -113 74 -318 74 l-168 0 2 -352z m388
250 c54 -27 80 -73 80 -138 0 -65 -26 -111 -80 -137 -39 -20 -59 -23 -177 -23
l-133 0 0 160 0 160 133 0 c118 0 138 -3 177 -22z"/>
<path d="M1590 1425 l0 -145 2150 0 2150 0 0 145 0 145 -2150 0 -2150 0 0
-145z"/>
<path d="M6470 1425 l0 -145 575 0 575 0 0 145 0 145 -575 0 -575 0 0 -145z"/>
<path d="M20627 1563 c-4 -3 -7 -69 -7 -145 l0 -138 705 0 705 0 0 145 0 145
-698 0 c-384 0 -702 -3 -705 -7z"/>
</g>
</svg>
