<?xml version="1.0" standalone="no"?>
<!DOCTYPE svg PUBLIC "-//W3C//DTD SVG 20010904//EN"
 "http://www.w3.org/TR/2001/REC-SVG-20010904/DTD/svg10.dtd">
<svg version="1.0" xmlns="http://www.w3.org/2000/svg"
 width="703.000000pt" height="188.000000pt" viewBox="0 0 703.000000 188.000000"
 preserveAspectRatio="xMidYMid meet">

<g transform="translate(0.000000,188.000000) scale(0.100000,-0.100000)"
fill="#000000" stroke="none">
<path d="M2697 1859 c-4 -13 -7 -35 -7 -49 0 -14 -20 -83 -43 -155 -38 -115
-46 -130 -64 -127 -16 2 -25 -6 -39 -38 l-18 -40 -958 0 -958 0 -57 76 c-40
53 -59 88 -62 116 l-6 40 -95 1 -95 1 -3 -38 c-3 -29 -21 -62 -75 -135 -47
-63 -73 -90 -75 -79 -4 20 -24 29 -41 19 -25 -16 -30 -92 -24 -372 5 -211 3
-288 -5 -293 -8 -5 -10 -25 -6 -61 4 -29 3 -101 -1 -159 l-7 -106 -29 0 c-22
0 -29 -5 -29 -20 0 -20 7 -20 3510 -20 3503 0 3510 0 3510 20 0 15 -7 20 -29
20 l-28 0 -6 83 c-4 45 -7 244 -7 442 0 198 -3 382 -6 408 -8 58 -34 79 -57
47 -14 -20 -18 -17 -83 72 -49 67 -70 104 -74 133 l-5 40 -73 -3 c-45 -3 -78
1 -87 8 -11 9 -16 7 -24 -9 -6 -11 -11 -31 -11 -46 0 -15 -23 -57 -57 -105
l-58 -79 -960 -1 -961 0 -13 36 c-14 38 -38 55 -51 34 -10 -16 -100 257 -100
303 0 66 -17 60 -29 -9 -7 -38 -28 -120 -49 -181 -30 -93 -39 -112 -53 -108
-19 6 -49 -29 -49 -57 0 -39 -34 -12 -149 122 -111 129 -121 144 -121 180 0
52 -26 55 -36 5 l-6 -35 -329 0 c-318 0 -329 1 -329 19 0 30 -11 51 -26 51
-10 0 -14 -13 -14 -42 0 -40 -7 -51 -121 -180 -66 -76 -124 -138 -128 -138 -4
0 -15 18 -25 41 -15 34 -22 40 -40 35 -21 -5 -25 3 -64 132 -23 75 -42 148
-43 162 0 14 -4 34 -8 44 -7 18 -8 18 -14 -5z m-99 -449 c4 -66 3 -70 -17 -70
-19 0 -21 5 -21 73 0 41 3 77 7 81 15 15 28 -18 31 -84z m252 4 c0 -67 -2 -74
-20 -74 -18 0 -20 7 -20 61 0 62 14 104 31 94 5 -4 9 -40 9 -81z m1354 70 c3
-9 6 -45 6 -80 0 -57 -2 -64 -20 -64 -18 0 -20 7 -20 73 0 41 3 77 7 80 11 11
20 8 27 -9z m266 -81 c0 -56 -2 -63 -20 -63 -18 0 -20 7 -20 73 0 41 3 77 7
81 16 16 33 -31 33 -91z m-1680 -3 l0 -60 -85 0 -85 0 0 60 0 60 85 0 85 0 0
-60z m1610 0 l0 -60 -85 0 -85 0 0 60 0 60 85 0 85 0 0 -60z m-4272 -58 c3
-77 2 -82 -18 -82 -22 0 -25 22 -13 118 9 80 28 59 31 -36z m186 36 c11 -95 8
-118 -14 -118 -18 0 -20 7 -20 69 0 70 6 101 20 101 4 0 10 -24 14 -52z m180
36 c3 -9 6 -47 6 -85 0 -62 -2 -69 -20 -69 -22 0 -25 23 -14 118 7 52 17 65
28 36z m190 -36 c11 -95 8 -118 -14 -118 -18 0 -20 7 -20 69 0 70 6 101 20
101 4 0 10 -24 14 -52z m2410 27 c9 -13 16 -33 16 -45 0 -18 -6 -20 -65 -20
-58 0 -65 2 -65 20 0 11 10 31 22 45 29 33 70 33 92 0z m230 0 c9 -13 16 -33
16 -45 0 -18 -6 -20 -60 -20 -54 0 -60 2 -60 20 0 36 30 70 60 70 18 0 33 -8
44 -25z m230 0 c9 -13 16 -33 16 -45 0 -18 -6 -20 -60 -20 -54 0 -60 2 -60 20
0 36 30 70 60 70 18 0 33 -8 44 -25z m234 0 c12 -14 22 -34 22 -45 0 -18 -7
-20 -65 -20 -59 0 -65 2 -65 20 0 64 67 92 108 45z m227 5 c3 -11 11 -20 16
-20 5 0 9 -11 9 -25 0 -24 -2 -25 -65 -25 -59 0 -65 2 -65 20 0 12 7 32 16 45
21 33 79 36 89 5z m2357 -26 c4 -21 7 -58 7 -81 1 -39 -1 -43 -24 -43 -28 0
-31 17 -18 118 7 61 25 64 35 6z m182 0 c3 -26 6 -64 6 -85 0 -32 -3 -39 -20
-39 -17 0 -20 7 -20 39 0 55 12 131 20 131 4 0 10 -21 14 -46z m188 0 c4 -21
7 -58 7 -81 1 -39 -1 -43 -24 -43 -28 0 -31 17 -18 118 7 61 25 64 35 6z m182
-6 c11 -95 8 -118 -14 -118 -17 0 -20 7 -20 39 0 55 12 131 20 131 4 0 10 -24
14 -52z m-3954 -13 c0 -23 -4 -25 -45 -25 -41 0 -45 2 -45 25 0 23 4 25 45 25
41 0 45 -2 45 -25z m230 0 c0 -22 -4 -25 -35 -25 -31 0 -35 3 -35 25 0 22 4
25 35 25 31 0 35 -3 35 -25z m230 0 c0 -22 -4 -25 -35 -25 -31 0 -35 3 -35 25
0 22 4 25 35 25 31 0 35 -3 35 -25z m230 0 c0 -22 -4 -25 -35 -25 -31 0 -35 3
-35 25 0 22 4 25 35 25 31 0 35 -3 35 -25z m240 0 c0 -22 -4 -25 -40 -25 -36
0 -40 3 -40 25 0 23 4 25 40 25 36 0 40 -2 40 -25z m250 0 c0 -23 -3 -25 -50
-25 -47 0 -50 2 -50 25 0 23 3 25 50 25 47 0 50 -2 50 -25z m-3960 -65 c0 -33
-3 -40 -20 -40 -17 0 -20 7 -20 40 0 33 3 40 20 40 17 0 20 -7 20 -40z m70 0
c0 -33 -3 -40 -20 -40 -17 0 -20 7 -20 40 0 33 3 40 20 40 17 0 20 -7 20 -40z
m120 0 c0 -33 -3 -40 -20 -40 -17 0 -20 7 -20 40 0 33 3 40 20 40 17 0 20 -7
20 -40z m60 0 c0 -33 -3 -40 -20 -40 -17 0 -20 7 -20 40 0 33 3 40 20 40 17 0
20 -7 20 -40z m120 0 c0 -33 -3 -40 -20 -40 -17 0 -20 7 -20 40 0 33 3 40 20
40 17 0 20 -7 20 -40z m70 0 c0 -33 -3 -40 -20 -40 -17 0 -20 7 -20 40 0 33 3
40 20 40 17 0 20 -7 20 -40z m5810 0 c0 -33 -3 -40 -20 -40 -17 0 -20 7 -20
40 0 33 3 40 20 40 17 0 20 -7 20 -40z m60 0 c0 -33 -3 -40 -20 -40 -17 0 -20
7 -20 40 0 33 3 40 20 40 17 0 20 -7 20 -40z m120 0 c0 -33 -3 -40 -20 -40
-17 0 -20 7 -20 40 0 33 3 40 20 40 17 0 20 -7 20 -40z m60 0 c0 -33 -3 -40
-20 -40 -17 0 -20 7 -20 40 0 33 3 40 20 40 17 0 20 -7 20 -40z m120 0 c0 -29
-4 -40 -15 -40 -11 0 -15 11 -15 40 0 29 4 40 15 40 11 0 15 -11 15 -40z m70
0 c0 -33 -3 -40 -20 -40 -17 0 -20 7 -20 40 0 33 3 40 20 40 17 0 20 -7 20
-40z m-3985 10 c4 -7 -58 -10 -179 -10 -117 0 -186 4 -186 10 0 6 66 10 179
10 109 0 182 -4 186 -10z m1225 0 c0 -7 -207 -10 -600 -10 -393 0 -600 3 -600
10 0 7 207 10 600 10 393 0 600 -3 600 -10z m390 0 c0 -6 -69 -10 -186 -10
-121 0 -183 3 -179 10 4 6 77 10 186 10 113 0 179 -4 179 -10z m-3682 -48 c3
-37 1 -42 -17 -42 -18 0 -21 6 -21 38 0 68 33 71 38 4z m150 0 c3 -37 1 -42
-17 -42 -18 0 -21 6 -21 38 0 68 33 71 38 4z m140 0 c3 -37 1 -42 -17 -42 -18
0 -21 6 -21 38 0 68 33 71 38 4z m150 0 c3 -37 1 -42 -17 -42 -18 0 -21 6 -21
38 0 68 33 71 38 4z m150 0 c3 -37 1 -42 -17 -42 -18 0 -21 6 -21 38 0 68 33
71 38 4z m150 0 c3 -37 1 -42 -17 -42 -18 0 -21 6 -21 38 0 68 33 71 38 4z
m150 0 c3 -37 1 -42 -17 -42 -18 0 -21 6 -21 38 0 68 33 71 38 4z m150 0 c3
-39 1 -42 -22 -42 -23 0 -26 4 -26 38 0 43 7 54 30 50 10 -2 16 -17 18 -46z
m140 0 c3 -37 1 -42 -17 -42 -18 0 -21 6 -21 38 0 68 33 71 38 4z m150 0 c3
-37 1 -42 -17 -42 -18 0 -21 6 -21 38 0 68 33 71 38 4z m150 0 c3 -37 1 -42
-17 -42 -18 0 -21 6 -21 38 0 68 33 71 38 4z m140 0 c3 -37 1 -42 -17 -42 -18
0 -21 6 -21 38 0 68 33 71 38 4z m2180 0 c3 -37 1 -42 -17 -42 -18 0 -21 6
-21 38 0 68 33 71 38 4z m140 36 c7 -7 12 -27 12 -45 0 -29 -3 -33 -25 -33
-22 0 -25 4 -25 38 0 51 13 65 38 40z m150 -36 c3 -37 1 -42 -17 -42 -18 0
-21 6 -21 38 0 68 33 71 38 4z m150 0 c3 -37 1 -42 -17 -42 -18 0 -21 6 -21
38 0 68 33 71 38 4z m150 0 c3 -39 1 -42 -22 -42 -23 0 -26 4 -26 33 0 34 17
60 35 54 5 -2 11 -22 13 -45z m140 36 c7 -7 12 -27 12 -45 0 -29 -3 -33 -25
-33 -22 0 -25 4 -25 38 0 51 13 65 38 40z m160 -36 c3 -39 1 -42 -22 -42 -23
0 -26 4 -26 38 0 43 7 54 30 50 10 -2 16 -17 18 -46z m140 0 c3 -37 1 -42 -17
-42 -18 0 -21 6 -21 38 0 68 33 71 38 4z m150 0 c3 -37 1 -42 -17 -42 -18 0
-21 6 -21 38 0 68 33 71 38 4z m150 0 c3 -37 1 -42 -17 -42 -18 0 -21 6 -21
38 0 68 33 71 38 4z m150 0 c3 -39 1 -42 -22 -42 -23 0 -26 4 -26 38 0 43 7
54 30 50 10 -2 16 -17 18 -46z m140 0 c3 -37 1 -42 -17 -42 -18 0 -21 6 -21
38 0 68 33 71 38 4z m-5478 -7 c0 -31 -3 -35 -25 -35 -22 0 -25 4 -25 35 0 31
3 35 25 35 22 0 25 -4 25 -35z m140 0 c0 -32 -2 -35 -30 -35 -28 0 -30 3 -30
35 0 32 2 35 30 35 28 0 30 -3 30 -35z m150 0 c0 -32 -2 -35 -30 -35 -28 0
-30 3 -30 35 0 32 2 35 30 35 28 0 30 -3 30 -35z m140 0 c0 -31 -3 -35 -25
-35 -22 0 -25 4 -25 35 0 31 3 35 25 35 22 0 25 -4 25 -35z m160 0 c0 -33 -2
-35 -35 -35 -33 0 -35 2 -35 35 0 33 2 35 35 35 33 0 35 -2 35 -35z m140 0 c0
-31 -3 -35 -25 -35 -22 0 -25 4 -25 35 0 31 3 35 25 35 22 0 25 -4 25 -35z
m160 0 c0 -33 -2 -35 -35 -35 -33 0 -35 2 -35 35 0 33 2 35 35 35 33 0 35 -2
35 -35z m140 0 c0 -32 -2 -35 -30 -35 -28 0 -30 3 -30 35 0 32 2 35 30 35 28
0 30 -3 30 -35z m150 0 c0 -32 -2 -35 -30 -35 -28 0 -30 3 -30 35 0 32 2 35
30 35 28 0 30 -3 30 -35z m140 0 c0 -31 -3 -35 -25 -35 -22 0 -25 4 -25 35 0
31 3 35 25 35 22 0 25 -4 25 -35z m150 0 c0 -32 -2 -35 -30 -35 -28 0 -30 3
-30 35 0 32 2 35 30 35 28 0 30 -3 30 -35z m150 0 c0 -32 -2 -35 -30 -35 -28
0 -30 3 -30 35 0 32 2 35 30 35 28 0 30 -3 30 -35z m128 -2 c3 -30 1 -33 -22
-33 -23 0 -26 4 -26 36 0 31 3 35 23 32 17 -2 23 -11 25 -35z m2052 2 c0 -31
-3 -35 -25 -35 -21 0 -25 5 -25 28 0 33 7 42 32 42 14 0 18 -8 18 -35z m140 0
c0 -31 -3 -35 -25 -35 -22 0 -25 4 -25 35 0 31 3 35 25 35 22 0 25 -4 25 -35z
m150 0 c0 -32 -2 -35 -30 -35 -28 0 -30 3 -30 35 0 32 2 35 30 35 28 0 30 -3
30 -35z m150 0 c0 -32 -2 -35 -30 -35 -28 0 -30 3 -30 35 0 32 2 35 30 35 28
0 30 -3 30 -35z m140 0 c0 -31 -3 -35 -25 -35 -22 0 -25 4 -25 35 0 31 3 35
25 35 22 0 25 -4 25 -35z m150 0 c0 -32 -2 -35 -30 -35 -28 0 -30 3 -30 35 0
32 2 35 30 35 28 0 30 -3 30 -35z m150 0 c0 -32 -2 -35 -30 -35 -28 0 -30 3
-30 35 0 32 2 35 30 35 28 0 30 -3 30 -35z m150 0 c0 -32 -2 -35 -30 -35 -28
0 -30 3 -30 35 0 32 2 35 30 35 28 0 30 -3 30 -35z m150 0 c0 -32 -2 -35 -30
-35 -28 0 -30 3 -30 35 0 32 2 35 30 35 28 0 30 -3 30 -35z m150 0 c0 -32 -2
-35 -30 -35 -28 0 -30 3 -30 35 0 32 2 35 30 35 28 0 30 -3 30 -35z m140 0 c0
-31 -3 -35 -25 -35 -22 0 -25 4 -25 35 0 31 3 35 25 35 22 0 25 -4 25 -35z
m150 0 c0 -32 -2 -35 -30 -35 -28 0 -30 3 -30 35 0 32 2 35 30 35 28 0 30 -3
30 -35z m130 0 c0 -28 -4 -35 -20 -35 -16 0 -20 7 -20 35 0 28 4 35 20 35 16
0 20 -7 20 -35z m-3450 5 c0 -6 -58 -10 -155 -10 -97 0 -155 4 -155 10 0 6 58
10 155 10 97 0 155 -4 155 -10z m1280 -10 c0 -20 -7 -20 -630 -20 -623 0 -630
0 -630 20 0 20 7 20 630 20 623 0 630 0 630 -20z m330 10 c0 -6 -58 -10 -155
-10 -97 0 -155 4 -155 10 0 6 58 10 155 10 97 0 155 -4 155 -10z m-4334 -36
c-3 -9 -6 -24 -6 -35 0 -10 -7 -19 -15 -19 -8 0 -15 6 -15 13 0 6 -3 22 -6 35
-5 19 -2 22 21 22 21 0 26 -4 21 -16z m118 -6 c12 -45 8 -48 -50 -48 -54 0
-56 1 -50 23 3 12 6 28 6 35 0 8 16 12 44 12 37 0 45 -4 50 -22z m62 0 c-3
-13 -6 -29 -6 -35 0 -7 -7 -13 -15 -13 -10 0 -15 11 -15 35 0 29 4 35 21 35
17 0 20 -4 15 -22z m124 10 c0 -7 3 -23 6 -35 6 -22 4 -23 -56 -23 -60 0 -62
1 -56 23 3 12 6 28 6 35 0 8 17 12 50 12 33 0 50 -4 50 -12z m60 -23 c0 -24
-5 -35 -15 -35 -8 0 -15 6 -15 13 0 6 -3 22 -6 35 -5 18 -2 22 15 22 17 0 21
-6 21 -35z m124 13 c12 -45 8 -48 -50 -48 -54 0 -56 1 -50 23 3 12 6 28 6 35
0 8 16 12 44 12 37 0 45 -4 50 -22z m62 0 c-3 -13 -6 -29 -6 -35 0 -7 -7 -13
-15 -13 -10 0 -15 11 -15 35 0 29 4 35 21 35 17 0 20 -4 15 -22z m5690 6 c-3
-9 -6 -24 -6 -35 0 -10 -7 -19 -15 -19 -8 0 -15 9 -15 19 0 11 -3 26 -6 35 -5
12 0 16 21 16 21 0 26 -4 21 -16z m118 -6 c12 -45 8 -48 -50 -48 -54 0 -56 1
-50 23 3 12 6 28 6 35 0 8 16 12 44 12 37 0 45 -4 50 -22z m62 0 c-3 -13 -6
-29 -6 -35 0 -7 -7 -13 -15 -13 -10 0 -15 11 -15 35 0 29 4 35 21 35 17 0 20
-4 15 -22z m124 10 c0 -7 3 -23 6 -35 6 -22 4 -23 -50 -23 l-56 0 0 35 0 35
50 0 c33 0 50 -4 50 -12z m66 -4 c-3 -9 -6 -24 -6 -35 0 -10 -7 -19 -15 -19
-8 0 -15 6 -15 13 0 6 -3 22 -6 35 -5 19 -2 22 21 22 21 0 26 -4 21 -16z m118
-6 c12 -45 8 -48 -50 -48 -54 0 -56 1 -50 23 3 12 6 28 6 35 0 8 16 12 44 12
37 0 45 -4 50 -22z m62 0 c-3 -13 -6 -29 -6 -35 0 -7 -7 -13 -15 -13 -10 0
-15 11 -15 35 0 29 4 35 21 35 17 0 20 -4 15 -22z m-4066 -13 l0 -25 -155 0
-155 0 0 25 0 25 155 0 155 0 0 -25z m1610 0 l0 -25 -155 0 -155 0 0 25 0 25
155 0 155 0 0 -25z m-1960 -20 c0 -13 -107 -15 -900 -15 -793 0 -900 2 -900
15 0 13 107 15 900 15 793 0 900 -2 900 -15z m627 -5 c3 -13 14 -20 29 -20 17
0 24 6 24 20 0 19 7 20 90 20 83 0 90 -1 90 -20 0 -15 7 -20 25 -20 18 0 25 5
25 20 0 19 7 20 90 20 83 0 90 -1 90 -20 0 -15 7 -20 24 -20 16 0 27 7 31 20
6 18 15 20 91 20 77 0 84 -2 84 -20 0 -15 7 -20 26 -20 17 0 28 6 31 20 5 18
14 20 88 20 74 0 83 -2 88 -20 7 -28 45 -26 57 3 6 14 9 -46 9 -173 1 -129 -3
-190 -9 -180 -5 8 -10 84 -10 168 0 145 -1 152 -20 152 -19 0 -20 -7 -21 -152
-1 -84 -4 -166 -8 -183 l-6 -30 -80 0 c-97 0 -93 -10 -94 208 -1 146 -2 157
-19 157 -17 0 -19 -13 -25 -162 -4 -90 -9 -173 -13 -185 -6 -21 -12 -23 -84
-23 l-77 0 -7 38 c-3 20 -6 103 -6 185 0 137 -1 147 -19 147 -26 0 -31 -25
-31 -176 0 -72 -3 -146 -6 -163 l-6 -31 -78 0 -77 0 -7 38 c-3 20 -6 104 -6
185 0 148 0 148 -22 145 -23 -3 -23 -6 -29 -183 -3 -99 -7 -181 -8 -182 0 -2
-37 -3 -81 -3 -44 0 -81 1 -81 3 -1 1 -5 83 -8 182 -6 177 -6 180 -28 183 -23
3 -23 3 -23 -145 0 -81 -3 -165 -6 -185 l-7 -38 -78 0 c-44 0 -80 1 -80 3 -1
1 -5 83 -8 182 -6 176 -6 180 -28 183 -22 3 -23 2 -26 -160 l-3 -163 -1 180
c-1 99 1 174 4 168 2 -7 16 -13 29 -13 17 0 24 6 24 20 0 18 7 20 86 20 77 0
86 -2 91 -20z m3173 5 c0 -13 -107 -15 -900 -15 -793 0 -900 2 -900 15 0 13
107 15 900 15 793 0 900 -2 900 -15z m-6180 -220 c0 -158 -2 -185 -15 -185
-13 0 -15 27 -15 185 0 158 2 185 15 185 13 0 15 -27 15 -185z m130 0 l0 -185
-55 0 -55 0 0 185 0 185 55 0 55 0 0 -185z m50 0 c0 -158 -2 -185 -15 -185
-13 0 -15 27 -15 185 0 158 2 185 15 185 13 0 15 -27 15 -185z m140 0 l0 -185
-55 0 -55 0 0 185 0 185 55 0 55 0 0 -185z m50 0 c0 -158 -2 -185 -15 -185
-13 0 -15 27 -15 185 0 158 2 185 15 185 13 0 15 -27 15 -185z m130 0 l0 -185
-55 0 -55 0 0 185 0 185 55 0 55 0 0 -185z m50 0 c0 -158 -2 -185 -15 -185
-13 0 -15 27 -15 185 0 158 2 185 15 185 13 0 15 -27 15 -185z m1830 0 l0
-185 -897 2 -898 3 -3 183 -2 182 900 0 900 0 0 -185z m350 31 c0 -84 3 -168
6 -185 l7 -31 -168 0 -167 0 6 31 c3 17 6 101 6 185 l0 154 155 0 155 0 0
-154z m1610 0 c0 -84 3 -167 6 -184 l6 -31 -167 0 -167 0 6 31 c3 17 6 100 6
184 l0 154 155 0 155 0 0 -154z m1838 -28 l-3 -183 -897 -3 -898 -2 0 185 0
185 900 0 900 0 -2 -182z m62 -3 c0 -158 -2 -185 -15 -185 -13 0 -15 27 -15
185 0 158 2 185 15 185 13 0 15 -27 15 -185z m130 0 l0 -185 -55 0 -55 0 0
185 0 185 55 0 55 0 0 -185z m50 0 c0 -158 -2 -185 -15 -185 -13 0 -15 27 -15
185 0 158 2 185 15 185 13 0 15 -27 15 -185z m140 0 l0 -185 -55 0 -55 0 0
185 0 185 55 0 55 0 0 -185z m50 0 c0 -158 -2 -185 -15 -185 -13 0 -15 27 -15
185 0 158 2 185 15 185 13 0 15 -27 15 -185z m130 0 l0 -185 -55 0 -55 0 0
185 0 185 55 0 55 0 0 -185z m50 0 c0 -158 -2 -185 -15 -185 -13 0 -15 27 -15
185 0 158 2 185 15 185 13 0 15 -27 15 -185z m-6790 -295 c0 -71 -3 -90 -14
-90 -11 0 -15 20 -18 90 -3 80 -1 90 15 90 15 0 17 -11 17 -90z m130 0 l0 -90
-55 0 -55 0 0 90 0 90 55 0 55 0 0 -90z m50 0 c0 -73 -3 -90 -15 -90 -12 0
-15 17 -15 90 0 73 3 90 15 90 12 0 15 -17 15 -90z m140 0 l0 -90 -55 0 -55 0
0 90 0 90 55 0 55 0 0 -90z m50 0 c0 -73 -3 -90 -15 -90 -12 0 -15 17 -15 90
0 73 3 90 15 90 12 0 15 -17 15 -90z m130 0 l0 -90 -55 0 -55 0 0 90 0 90 55
0 55 0 0 -90z m52 0 c-3 -70 -7 -90 -18 -90 -11 0 -14 19 -14 90 0 79 2 90 18
90 15 0 17 -10 14 -90z m1832 74 c3 -9 6 -49 6 -90 l0 -74 -900 0 -900 0 0 90
0 90 894 0 c806 0 894 -2 900 -16z m348 -74 l-3 -90 -154 0 -154 0 -3 90 -3
90 160 0 160 0 -3 -90z m355 72 c-15 -9 -33 -29 -40 -44 -6 -16 -18 -28 -24
-28 -7 0 -13 -4 -13 -10 0 -5 11 -10 25 -10 17 0 25 6 25 18 1 36 48 72 95 72
29 0 85 -49 85 -74 0 -10 9 -16 25 -16 16 0 25 6 25 16 0 25 56 74 85 74 47 0
94 -36 95 -72 0 -24 50 -25 50 -2 0 29 56 74 93 74 40 0 87 -38 87 -70 0 -15
6 -20 25 -20 14 0 25 5 25 10 0 6 -6 10 -14 10 -8 0 -17 11 -20 25 -4 14 -21
34 -39 45 l-32 20 178 0 177 0 0 -73 c0 -41 -3 -108 -6 -150 l-7 -77 -108 0
-109 0 0 25 c0 23 -4 25 -45 25 l-45 0 0 76 c0 84 -10 111 -46 124 -61 24
-101 -38 -91 -141 l5 -59 -49 0 -49 0 0 76 c0 41 -5 84 -11 95 -23 45 -102 39
-120 -8 -5 -13 -9 -56 -9 -94 l0 -69 -45 0 -45 0 0 80 c0 73 -3 83 -25 105
-13 14 -33 25 -45 25 -12 0 -32 -11 -45 -25 -22 -22 -25 -32 -25 -105 l0 -80
-45 0 c-41 0 -45 -2 -45 -25 l0 -25 -109 0 -108 0 -7 77 c-3 42 -6 109 -6 150
l0 73 178 0 c172 -1 176 -1 149 -18z m234 2 c-12 -9 -31 -30 -41 -46 -17 -28
-18 -29 -25 -9 -3 11 -20 32 -36 46 l-31 25 78 0 c75 0 77 -1 55 -16z m220 -9
c-16 -14 -33 -35 -37 -47 -6 -19 -7 -19 -20 8 -8 16 -27 37 -42 47 -27 16 -26
16 51 17 l79 0 -31 -25z m809 -65 l0 -90 -159 0 -160 0 -3 90 -3 90 163 0 162
0 0 -90z m1820 0 l0 -90 -900 0 -900 0 0 74 c0 41 3 81 6 90 6 14 94 16 900
16 l894 0 0 -90z m70 0 c0 -71 -3 -90 -14 -90 -11 0 -15 20 -18 90 -3 80 -1
90 15 90 15 0 17 -11 17 -90z m130 0 l0 -90 -55 0 -55 0 0 90 0 90 55 0 55 0
0 -90z m50 0 c0 -73 -3 -90 -15 -90 -12 0 -15 17 -15 90 0 73 3 90 15 90 12 0
15 -17 15 -90z m140 0 l0 -90 -55 0 -55 0 0 90 0 90 55 0 55 0 0 -90z m50 0
c0 -73 -3 -90 -15 -90 -12 0 -15 17 -15 90 0 73 3 90 15 90 12 0 15 -17 15
-90z m130 0 l0 -90 -55 0 -55 0 0 90 0 90 55 0 55 0 0 -90z m60 0 c0 -83 -1
-90 -20 -90 -19 0 -20 7 -20 90 0 83 1 90 20 90 19 0 20 -7 20 -90z m-4060
-160 l0 -50 -170 0 -170 0 0 43 c0 24 3 47 7 50 3 4 80 7 170 7 l163 0 0 -50z
m1620 0 l0 -50 -170 0 -170 0 0 50 0 50 170 0 170 0 0 -50z m-3790 -5 l0 -45
-310 0 -310 0 0 45 0 45 310 0 310 0 0 -45z m1810 0 l0 -45 -895 0 -895 0 0
45 0 45 895 0 895 0 0 -45z m3790 0 l0 -45 -895 0 -895 0 0 45 0 45 895 0 895
0 0 -45z m640 0 l0 -45 -310 0 -310 0 0 45 0 45 310 0 310 0 0 -45z m-3060
-30 c0 -13 -48 -15 -370 -15 -322 0 -370 2 -370 15 0 13 48 15 370 15 322 0
370 -2 370 -15z"/>
<path d="M2640 1400 c0 -21 4 -30 13 -27 6 2 12 14 12 27 0 13 -6 25 -12 28
-9 2 -13 -7 -13 -28z"/>
<path d="M2694 1416 c-7 -20 2 -46 16 -46 13 0 13 47 0 55 -6 3 -13 -1 -16 -9z"/>
<path d="M2746 1423 c-12 -13 -6 -53 9 -53 9 0 15 9 15 24 0 26 -12 40 -24 29z"/>
<path d="M4254 1415 c-8 -19 2 -45 16 -45 5 0 10 14 10 30 0 31 -16 41 -26 15z"/>
<path d="M4310 1400 c0 -16 5 -30 10 -30 6 0 10 14 10 30 0 17 -4 30 -10 30
-5 0 -10 -13 -10 -30z"/>
<path d="M4360 1400 c0 -16 5 -30 10 -30 6 0 10 14 10 30 0 17 -4 30 -10 30
-5 0 -10 -13 -10 -30z"/>
<path d="M2996 1078 c-12 -17 -16 -50 -16 -140 l0 -118 65 0 65 0 0 130 c0
118 -2 130 -19 140 -34 18 -78 12 -95 -12z"/>
<path d="M3238 1089 c-16 -9 -18 -27 -18 -139 l0 -130 60 0 60 0 0 130 c0 118
-2 130 -19 140 -25 13 -61 12 -83 -1z"/>
<path d="M3468 1089 c-16 -9 -18 -27 -18 -139 l0 -130 60 0 60 0 0 130 c0 118
-2 130 -19 140 -25 13 -61 12 -83 -1z"/>
<path d="M3698 1089 c-16 -9 -18 -27 -18 -139 l0 -130 65 0 65 0 0 118 c0 136
-10 162 -63 162 -18 0 -40 -5 -49 -11z"/>
<path d="M3926 1084 c-13 -12 -16 -40 -16 -140 l0 -124 65 0 65 0 0 123 c0
107 -2 126 -18 140 -23 21 -76 22 -96 1z"/>
<path d="M187 1124 c-4 -4 -7 -31 -7 -61 0 -50 1 -53 25 -53 25 0 26 2 23 57
-2 43 -7 59 -18 61 -9 1 -19 0 -23 -4z"/>
<path d="M193 943 c-8 -3 -13 -25 -13 -59 0 -51 1 -54 25 -54 23 0 25 3 25 49
0 49 -14 72 -37 64z"/>
<path d="M377 1124 c-4 -4 -7 -31 -7 -61 0 -50 1 -53 25 -53 25 0 26 2 23 57
-2 43 -7 59 -18 61 -9 1 -19 0 -23 -4z"/>
<path d="M383 943 c-8 -3 -13 -25 -13 -59 0 -51 1 -54 25 -54 23 0 25 3 25 49
0 49 -14 72 -37 64z"/>
<path d="M557 1124 c-4 -4 -7 -31 -7 -61 0 -50 1 -53 25 -53 25 0 26 2 23 57
-2 43 -7 59 -18 61 -9 1 -19 0 -23 -4z"/>
<path d="M563 943 c-8 -3 -13 -25 -13 -59 0 -51 1 -54 25 -54 23 0 25 3 25 49
0 49 -14 72 -37 64z"/>
<path d="M772 1108 c-7 -7 -12 -31 -12 -55 l0 -43 40 0 40 0 0 43 c0 45 -13
67 -40 67 -9 0 -21 -5 -28 -12z"/>
<path d="M910 1094 c-6 -14 -10 -39 -10 -55 0 -28 2 -29 45 -29 l45 0 0 43 c0
48 -13 67 -47 67 -16 0 -27 -8 -33 -26z"/>
<path d="M1060 1101 c-5 -11 -10 -36 -10 -55 0 -36 0 -36 45 -36 45 0 45 0 45
36 0 48 -16 74 -45 74 -14 0 -29 -8 -35 -19z"/>
<path d="M1212 1108 c-7 -7 -12 -31 -12 -55 l0 -43 45 0 c45 0 45 0 45 36 0
19 -5 44 -10 55 -12 21 -50 25 -68 7z"/>
<path d="M1362 1108 c-7 -7 -12 -31 -12 -55 l0 -43 40 0 40 0 0 43 c0 45 -13
67 -40 67 -9 0 -21 -5 -28 -12z"/>
<path d="M1512 1108 c-7 -7 -12 -31 -12 -55 l0 -43 40 0 40 0 0 43 c0 45 -13
67 -40 67 -9 0 -21 -5 -28 -12z"/>
<path d="M1661 1111 c-7 -5 -16 -29 -18 -55 l-6 -46 47 0 46 0 0 43 c0 59 -29
83 -69 58z"/>
<path d="M1800 1101 c-5 -11 -10 -36 -10 -55 0 -36 0 -36 45 -36 45 0 45 0 45
36 0 48 -16 74 -45 74 -14 0 -29 -8 -35 -19z"/>
<path d="M1952 1108 c-7 -7 -12 -31 -12 -55 l0 -43 45 0 c45 0 45 0 45 36 0
19 -5 44 -10 55 -12 21 -50 25 -68 7z"/>
<path d="M2102 1108 c-7 -7 -12 -31 -12 -55 l0 -43 40 0 40 0 0 49 c0 35 -4
51 -16 55 -24 9 -39 7 -52 -6z"/>
<path d="M2252 1108 c-7 -7 -12 -31 -12 -55 l0 -43 40 0 40 0 0 43 c0 45 -13
67 -40 67 -9 0 -21 -5 -28 -12z"/>
<path d="M2392 1108 c-7 -7 -12 -31 -12 -55 l0 -43 40 0 40 0 0 43 c0 45 -13
67 -40 67 -9 0 -21 -5 -28 -12z"/>
<path d="M778 939 c-13 -7 -18 -23 -18 -59 l0 -50 40 0 40 0 0 50 c0 38 -4 52
-19 60 -23 12 -22 12 -43 -1z"/>
<path d="M926 937 c-11 -8 -20 -31 -23 -60 l-6 -47 47 0 47 0 -3 46 c-4 56
-32 83 -62 61z"/>
<path d="M1071 931 c-14 -14 -21 -34 -21 -61 l0 -40 46 0 45 0 -3 46 c-2 35
-9 50 -25 61 -19 13 -24 12 -42 -6z"/>
<path d="M1221 934 c-16 -12 -21 -26 -21 -60 l0 -44 45 0 c45 0 45 0 45 36 0
64 -31 94 -69 68z"/>
<path d="M1380 942 c-23 -8 -30 -23 -30 -69 l0 -43 40 0 40 0 0 50 c0 51 -18
73 -50 62z"/>
<path d="M1518 939 c-13 -7 -18 -23 -18 -59 l0 -50 40 0 40 0 0 50 c0 38 -4
52 -19 60 -23 12 -22 12 -43 -1z"/>
<path d="M1665 936 c-10 -7 -19 -31 -22 -59 l-6 -47 47 0 46 0 0 43 c0 23 -4
47 -8 53 -12 18 -39 23 -57 10z"/>
<path d="M1811 931 c-14 -14 -21 -34 -21 -61 l0 -40 46 0 45 0 -3 46 c-2 35
-9 50 -25 61 -19 13 -24 12 -42 -6z"/>
<path d="M1961 934 c-16 -12 -21 -26 -21 -60 l0 -44 45 0 c45 0 45 0 45 36 0
64 -31 94 -69 68z"/>
<path d="M2120 942 c-23 -8 -30 -23 -30 -69 l0 -43 40 0 40 0 0 50 c0 51 -18
73 -50 62z"/>
<path d="M2258 939 c-13 -7 -18 -23 -18 -59 l0 -50 40 0 40 0 0 50 c0 38 -4
52 -19 60 -23 12 -22 12 -43 -1z"/>
<path d="M2398 939 c-13 -7 -18 -23 -18 -59 l0 -50 40 0 40 0 0 50 c0 38 -4
52 -19 60 -23 12 -22 12 -43 -1z"/>
<path d="M2600 1061 c0 -48 2 -51 26 -51 24 0 25 2 22 48 -3 40 -6 47 -25 50
-21 3 -23 0 -23 -47z"/>
<path d="M2680 1061 c0 -48 2 -51 26 -51 24 0 25 2 22 48 -3 40 -6 47 -25 50
-21 3 -23 0 -23 -47z"/>
<path d="M2760 1061 c0 -48 2 -51 26 -51 24 0 25 2 22 48 -3 40 -6 47 -25 50
-21 3 -23 0 -23 -47z"/>
<path d="M2600 880 c0 -47 2 -50 25 -50 23 0 25 3 25 50 0 47 -2 50 -25 50
-23 0 -25 -3 -25 -50z"/>
<path d="M2680 880 c0 -47 2 -50 25 -50 23 0 25 3 25 50 0 47 -2 50 -25 50
-23 0 -25 -3 -25 -50z"/>
<path d="M2760 880 c0 -47 2 -50 25 -50 23 0 25 3 25 50 0 47 -2 50 -25 50
-23 0 -25 -3 -25 -50z"/>
<path d="M4217 1104 c-4 -4 -7 -27 -7 -51 0 -39 2 -43 26 -43 24 0 25 2 22 47
-2 34 -8 49 -18 51 -9 1 -19 0 -23 -4z"/>
<path d="M4297 1103 c-4 -3 -7 -26 -7 -50 0 -39 2 -43 25 -43 23 0 25 3 25 50
0 42 -3 50 -18 50 -10 0 -22 -3 -25 -7z"/>
<path d="M4377 1104 c-4 -4 -7 -27 -7 -51 0 -39 2 -43 26 -43 24 0 25 2 22 47
-2 34 -8 49 -18 51 -9 1 -19 0 -23 -4z"/>
<path d="M4210 880 c0 -47 2 -50 25 -50 23 0 25 3 25 50 0 47 -2 50 -25 50
-23 0 -25 -3 -25 -50z"/>
<path d="M4290 880 c0 -47 2 -50 25 -50 23 0 25 3 25 50 0 47 -2 50 -25 50
-23 0 -25 -3 -25 -50z"/>
<path d="M4370 880 c0 -47 2 -50 25 -50 23 0 25 3 25 50 0 47 -2 50 -25 50
-23 0 -25 -3 -25 -50z"/>
<path d="M4562 1108 c-7 -7 -12 -31 -12 -55 l0 -43 40 0 40 0 0 43 c0 45 -13
67 -40 67 -9 0 -21 -5 -28 -12z"/>
<path d="M4700 1094 c-6 -14 -10 -39 -10 -55 0 -28 2 -29 45 -29 l45 0 0 43
c0 48 -13 67 -47 67 -16 0 -27 -8 -33 -26z"/>
<path d="M4850 1101 c-5 -11 -10 -36 -10 -55 0 -36 0 -36 45 -36 45 0 45 0 45
36 0 48 -16 74 -45 74 -14 0 -29 -8 -35 -19z"/>
<path d="M5002 1108 c-7 -7 -12 -31 -12 -55 l0 -43 45 0 c45 0 45 0 45 36 0
19 -5 44 -10 55 -12 21 -50 25 -68 7z"/>
<path d="M5152 1108 c-7 -7 -12 -31 -12 -55 l0 -43 40 0 40 0 0 43 c0 45 -13
67 -40 67 -9 0 -21 -5 -28 -12z"/>
<path d="M5302 1108 c-7 -7 -12 -31 -12 -55 l0 -43 40 0 40 0 0 43 c0 45 -13
67 -40 67 -9 0 -21 -5 -28 -12z"/>
<path d="M5451 1111 c-7 -5 -16 -29 -18 -55 l-6 -46 47 0 46 0 0 43 c0 59 -29
83 -69 58z"/>
<path d="M5590 1101 c-5 -11 -10 -36 -10 -55 0 -36 0 -36 45 -36 45 0 45 0 45
36 0 48 -16 74 -45 74 -14 0 -29 -8 -35 -19z"/>
<path d="M5742 1108 c-7 -7 -12 -31 -12 -55 l0 -43 45 0 c45 0 45 0 45 36 0
19 -5 44 -10 55 -12 21 -50 25 -68 7z"/>
<path d="M5892 1108 c-7 -7 -12 -31 -12 -55 l0 -43 40 0 40 0 0 49 c0 35 -4
51 -16 55 -24 9 -39 7 -52 -6z"/>
<path d="M6042 1108 c-7 -7 -12 -31 -12 -55 l0 -43 40 0 40 0 0 43 c0 45 -13
67 -40 67 -9 0 -21 -5 -28 -12z"/>
<path d="M6182 1108 c-7 -7 -12 -31 -12 -55 l0 -43 40 0 40 0 0 43 c0 45 -13
67 -40 67 -9 0 -21 -5 -28 -12z"/>
<path d="M4567 938 c-12 -6 -17 -22 -17 -58 l0 -50 41 0 40 0 -3 51 c-2 42 -7
53 -24 59 -11 5 -28 4 -37 -2z"/>
<path d="M4716 937 c-11 -8 -20 -31 -23 -60 l-6 -47 47 0 47 0 -3 46 c-4 56
-32 83 -62 61z"/>
<path d="M4861 931 c-14 -14 -21 -34 -21 -61 l0 -40 46 0 45 0 -3 46 c-2 35
-9 50 -25 61 -19 13 -24 12 -42 -6z"/>
<path d="M5011 934 c-16 -12 -21 -26 -21 -60 l0 -44 45 0 c45 0 45 0 45 36 0
64 -31 94 -69 68z"/>
<path d="M5170 942 c-23 -8 -30 -23 -30 -69 l0 -43 40 0 40 0 0 50 c0 51 -18
73 -50 62z"/>
<path d="M5307 938 c-12 -6 -17 -22 -17 -58 l0 -50 41 0 40 0 -3 51 c-2 42 -7
53 -24 59 -11 5 -28 4 -37 -2z"/>
<path d="M5456 937 c-11 -8 -20 -31 -23 -60 l-6 -47 47 0 47 0 -3 46 c-4 56
-32 83 -62 61z"/>
<path d="M5601 931 c-14 -14 -21 -34 -21 -61 l0 -40 46 0 45 0 -3 46 c-2 35
-9 50 -25 61 -19 13 -24 12 -42 -6z"/>
<path d="M5751 934 c-16 -12 -21 -26 -21 -60 l0 -44 45 0 c45 0 45 0 45 36 0
64 -31 94 -69 68z"/>
<path d="M5910 942 c-23 -8 -30 -23 -30 -69 l0 -43 40 0 40 0 0 50 c0 51 -18
73 -50 62z"/>
<path d="M6048 939 c-13 -7 -18 -23 -18 -59 l0 -50 40 0 40 0 0 50 c0 38 -4
52 -19 60 -23 12 -22 12 -43 -1z"/>
<path d="M6187 938 c-12 -6 -17 -22 -17 -58 l0 -50 41 0 40 0 -3 51 c-2 42 -7
53 -24 59 -11 5 -28 4 -37 -2z"/>
<path d="M6427 1124 c-4 -4 -7 -31 -7 -61 0 -50 1 -53 25 -53 25 0 26 2 23 57
-2 43 -7 59 -18 61 -9 1 -19 0 -23 -4z"/>
<path d="M6433 943 c-8 -3 -13 -25 -13 -59 0 -51 1 -54 25 -54 23 0 25 3 25
49 0 49 -14 72 -37 64z"/>
<path d="M6611 1116 c-7 -8 -11 -34 -9 -58 3 -38 6 -43 28 -43 22 0 25 5 28
43 3 40 -10 72 -28 72 -4 0 -13 -6 -19 -14z"/>
<path d="M6607 933 c-4 -3 -7 -28 -7 -55 0 -47 1 -48 30 -48 28 0 30 2 30 39
0 22 -3 46 -6 55 -6 16 -35 22 -47 9z"/>
<path d="M6797 1124 c-4 -4 -7 -31 -7 -61 0 -50 1 -53 25 -53 25 0 26 2 23 57
-2 43 -7 59 -18 61 -9 1 -19 0 -23 -4z"/>
<path d="M6803 943 c-8 -3 -13 -25 -13 -59 0 -51 1 -54 25 -54 23 0 25 3 25
49 0 49 -14 72 -37 64z"/>
<path d="M187 724 c-4 -4 -7 -31 -7 -61 0 -50 1 -53 25 -53 25 0 26 2 23 57
-2 43 -7 59 -18 61 -9 1 -19 0 -23 -4z"/>
<path d="M377 724 c-4 -4 -7 -31 -7 -61 0 -50 1 -53 25 -53 25 0 26 2 23 57
-2 43 -7 59 -18 61 -9 1 -19 0 -23 -4z"/>
<path d="M557 724 c-4 -4 -7 -31 -7 -61 0 -50 1 -53 25 -53 25 0 26 2 23 57
-2 43 -7 59 -18 61 -9 1 -19 0 -23 -4z"/>
<path d="M771 701 c-6 -11 -11 -36 -11 -55 0 -35 1 -36 36 -36 l35 0 -3 53
c-3 45 -6 52 -25 55 -14 2 -26 -4 -32 -17z"/>
<path d="M921 701 c-6 -11 -11 -36 -11 -55 0 -35 1 -36 36 -36 l35 0 -3 53
c-3 45 -6 52 -25 55 -14 2 -26 -4 -32 -17z"/>
<path d="M1072 708 c-7 -7 -12 -31 -12 -55 0 -42 0 -43 35 -43 35 0 35 1 35
43 0 42 -13 67 -35 67 -6 0 -16 -5 -23 -12z"/>
<path d="M1216 704 c-3 -9 -6 -33 -6 -55 0 -38 1 -39 35 -39 33 0 35 2 35 36
0 19 -5 44 -10 55 -13 23 -46 25 -54 3z"/>
<path d="M1367 713 c-4 -3 -7 -28 -7 -55 l0 -48 35 0 c33 0 35 2 35 36 0 19
-5 44 -10 55 -10 19 -40 26 -53 12z"/>
<path d="M1510 695 c-5 -14 -10 -40 -10 -56 0 -27 3 -29 36 -29 l35 0 -3 53
c-3 45 -6 52 -25 55 -17 3 -26 -3 -33 -23z"/>
<path d="M1661 701 c-6 -11 -11 -36 -11 -55 0 -35 1 -36 36 -36 l35 0 -3 53
c-3 45 -6 52 -25 55 -14 2 -26 -4 -32 -17z"/>
<path d="M1812 708 c-7 -7 -12 -31 -12 -55 0 -42 0 -43 35 -43 35 0 35 1 35
43 0 42 -13 67 -35 67 -6 0 -16 -5 -23 -12z"/>
<path d="M1962 708 c-7 -7 -12 -31 -12 -55 0 -42 0 -43 35 -43 35 0 35 1 35
43 0 42 -13 67 -35 67 -6 0 -16 -5 -23 -12z"/>
<path d="M2107 713 c-4 -3 -7 -28 -7 -55 l0 -48 35 0 c33 0 35 2 35 36 0 19
-5 44 -10 55 -10 19 -40 26 -53 12z"/>
<path d="M2250 695 c-5 -14 -10 -40 -10 -56 0 -27 3 -29 36 -29 l35 0 -3 53
c-3 45 -6 52 -25 55 -17 3 -26 -3 -33 -23z"/>
<path d="M2391 701 c-6 -11 -11 -36 -11 -55 0 -35 1 -36 36 -36 l35 0 -3 53
c-3 45 -6 52 -25 55 -14 2 -26 -4 -32 -17z"/>
<path d="M2600 665 c0 -53 1 -56 23 -53 19 3 22 9 22 53 0 44 -3 50 -22 53
-22 3 -23 0 -23 -53z"/>
<path d="M2682 668 c3 -45 6 -53 23 -53 17 0 20 8 23 53 3 50 2 52 -23 52 -25
0 -26 -2 -23 -52z"/>
<path d="M2760 665 c0 -53 1 -56 23 -53 19 3 22 9 22 53 0 44 -3 50 -22 53
-22 3 -23 0 -23 -53z"/>
<path d="M3000 696 c0 -24 3 -26 51 -26 47 0 50 2 47 23 -3 19 -10 22 -50 25
-46 3 -48 2 -48 -22z"/>
<path d="M3930 696 c0 -24 3 -26 51 -26 47 0 50 2 47 23 -3 19 -10 22 -50 25
-46 3 -48 2 -48 -22z"/>
<path d="M3010 580 c0 -28 3 -30 35 -30 32 0 35 2 35 30 0 28 -3 30 -35 30
-32 0 -35 -2 -35 -30z"/>
<path d="M3940 580 c0 -28 2 -30 40 -30 38 0 40 2 40 30 0 28 -2 30 -40 30
-38 0 -40 -2 -40 -30z"/>
<path d="M4212 668 c3 -46 6 -53 26 -56 21 -3 22 0 22 52 0 53 -1 56 -26 56
-24 0 -25 -2 -22 -52z"/>
<path d="M4294 706 c-3 -8 -4 -31 -2 -52 2 -32 7 -40 26 -42 21 -3 22 0 22 52
0 50 -2 56 -20 56 -11 0 -23 -6 -26 -14z"/>
<path d="M4372 668 c3 -46 6 -53 26 -56 21 -3 22 0 22 52 0 53 -1 56 -26 56
-24 0 -25 -2 -22 -52z"/>
<path d="M4561 701 c-6 -11 -11 -36 -11 -55 0 -35 1 -36 36 -36 l35 0 -3 53
c-3 45 -6 52 -25 55 -14 2 -26 -4 -32 -17z"/>
<path d="M4711 701 c-6 -11 -11 -36 -11 -55 0 -35 1 -36 36 -36 l35 0 -3 53
c-3 45 -6 52 -25 55 -14 2 -26 -4 -32 -17z"/>
<path d="M4862 708 c-7 -7 -12 -31 -12 -55 0 -42 0 -43 35 -43 35 0 35 1 35
43 0 42 -13 67 -35 67 -6 0 -16 -5 -23 -12z"/>
<path d="M5006 704 c-3 -9 -6 -33 -6 -55 0 -38 1 -39 35 -39 35 0 35 1 35 43
0 24 -5 48 -12 55 -17 17 -45 15 -52 -4z"/>
<path d="M5157 713 c-4 -3 -7 -28 -7 -55 l0 -48 35 0 c33 0 35 2 35 36 0 19
-5 44 -10 55 -10 19 -40 26 -53 12z"/>
<path d="M5300 695 c-5 -14 -10 -40 -10 -56 0 -27 3 -29 36 -29 l35 0 -3 53
c-3 45 -6 52 -25 55 -17 3 -26 -3 -33 -23z"/>
<path d="M5451 701 c-6 -11 -11 -36 -11 -55 0 -35 1 -36 36 -36 l35 0 -3 53
c-3 45 -6 52 -25 55 -14 2 -26 -4 -32 -17z"/>
<path d="M5602 708 c-7 -7 -12 -31 -12 -55 0 -42 0 -43 35 -43 35 0 35 1 35
43 0 42 -13 67 -35 67 -6 0 -16 -5 -23 -12z"/>
<path d="M5752 708 c-7 -7 -12 -31 -12 -55 0 -42 0 -43 35 -43 35 0 35 1 35
43 0 42 -13 67 -35 67 -6 0 -16 -5 -23 -12z"/>
<path d="M5897 713 c-4 -3 -7 -28 -7 -55 l0 -48 35 0 c33 0 35 2 35 36 0 19
-5 44 -10 55 -10 19 -40 26 -53 12z"/>
<path d="M6040 695 c-5 -14 -10 -40 -10 -56 0 -27 3 -29 36 -29 l35 0 -3 53
c-3 45 -6 52 -25 55 -17 3 -26 -3 -33 -23z"/>
<path d="M6181 701 c-6 -11 -11 -36 -11 -55 0 -35 1 -36 36 -36 l35 0 -3 53
c-3 45 -6 52 -25 55 -14 2 -26 -4 -32 -17z"/>
<path d="M6427 724 c-4 -4 -7 -27 -7 -51 0 -39 2 -43 26 -43 24 0 25 2 22 47
-2 34 -8 49 -18 51 -9 1 -19 0 -23 -4z"/>
<path d="M6606 714 c-3 -9 -6 -31 -6 -50 0 -31 3 -34 30 -34 28 0 30 2 30 38
0 53 -39 86 -54 46z"/>
<path d="M6797 724 c-4 -4 -7 -27 -7 -51 0 -39 2 -43 26 -43 24 0 25 2 22 47
-2 34 -8 49 -18 51 -9 1 -19 0 -23 -4z"/>
<path d="M2600 510 c0 -15 7 -20 25 -20 18 0 25 5 25 20 0 15 -7 20 -25 20
-18 0 -25 -5 -25 -20z"/>
<path d="M2680 510 c0 -15 7 -20 25 -20 18 0 25 5 25 20 0 15 -7 20 -25 20
-18 0 -25 -5 -25 -20z"/>
<path d="M2760 510 c0 -15 7 -20 25 -20 18 0 25 5 25 20 0 15 -7 20 -25 20
-18 0 -25 -5 -25 -20z"/>
<path d="M4210 510 c0 -15 7 -20 25 -20 18 0 25 5 25 20 0 15 -7 20 -25 20
-18 0 -25 -5 -25 -20z"/>
<path d="M4290 510 c0 -15 7 -20 25 -20 18 0 25 5 25 20 0 15 -7 20 -25 20
-18 0 -25 -5 -25 -20z"/>
<path d="M4370 510 c0 -15 7 -20 25 -20 18 0 25 5 25 20 0 15 -7 20 -25 20
-18 0 -25 -5 -25 -20z"/>
<path d="M177 524 c-18 -19 -5 -34 29 -34 28 0 35 3 32 18 -3 17 -48 29 -61
16z"/>
<path d="M367 524 c-18 -19 -5 -34 29 -34 28 0 35 3 32 18 -3 17 -48 29 -61
16z"/>
<path d="M550 510 c0 -16 7 -20 30 -20 23 0 30 4 30 20 0 16 -7 20 -30 20 -23
0 -30 -4 -30 -20z"/>
<path d="M6417 524 c-18 -19 -5 -34 29 -34 28 0 35 3 32 18 -3 17 -48 29 -61
16z"/>
<path d="M6607 523 c-17 -16 -5 -33 23 -33 23 0 30 4 30 20 0 14 -7 20 -23 20
-13 0 -27 -3 -30 -7z"/>
<path d="M6790 510 c0 -16 7 -20 30 -20 23 0 30 4 30 20 0 16 -7 20 -30 20
-23 0 -30 -4 -30 -20z"/>
<path d="M769 344 c-13 -36 -2 -44 22 -15 23 28 24 41 4 41 -9 0 -20 -12 -26
-26z"/>
<path d="M821 344 c-30 -38 -26 -49 9 -24 17 12 30 28 30 36 0 22 -16 17 -39
-12z"/>
<path d="M1310 282 l-85 -3 0 -134 0 -135 98 0 97 0 0 42 0 41 -24 -22 c-28
-27 -90 -39 -111 -21 -9 7 -15 29 -15 52 0 40 1 40 33 36 17 -3 40 -8 50 -13
14 -6 17 -2 17 31 0 30 -3 35 -12 26 -7 -7 -29 -12 -51 -12 -38 0 -38 0 -35
38 3 32 6 37 32 40 31 4 86 -15 86 -29 0 -5 5 -9 10 -9 11 0 14 67 3 72 -5 2
-46 2 -93 0z"/>
<path d="M1825 283 c-70 -17 -107 -131 -71 -218 19 -46 44 -56 126 -53 l70 2
0 68 0 68 -29 0 c-29 0 -30 -1 -19 -30 22 -63 -53 -109 -97 -60 -11 13 -20 41
-22 73 -8 107 64 155 128 85 l29 -32 0 47 c0 47 0 47 -34 47 -19 0 -40 2 -48
4 -7 2 -22 1 -33 -1z"/>
<path d="M2880 282 l-85 -3 0 -134 0 -135 93 0 92 0 0 42 c0 41 -1 42 -15 21
-17 -24 -71 -39 -104 -28 -17 5 -21 14 -21 52 l0 45 33 -4 c17 -3 40 -8 50
-13 14 -6 17 -2 17 29 0 33 -2 36 -19 26 -11 -5 -34 -10 -51 -10 -30 0 -31 2
-28 38 3 32 6 37 32 40 31 4 86 -15 86 -29 0 -5 5 -9 10 -9 11 0 14 67 3 72
-5 2 -46 2 -93 0z"/>
<path d="M3300 241 l0 -44 21 27 c11 14 30 26 41 26 19 0 20 -5 16 -120 l-3
-120 33 0 c30 0 32 2 22 20 -6 12 -10 61 -8 117 3 82 6 98 20 101 9 2 26 -7
37 -19 l21 -23 0 40 0 39 -100 0 -100 0 0 -44z"/>
<path d="M3913 281 c-79 -5 -91 -8 -83 -21 13 -20 13 -206 0 -231 -10 -18 -6
-19 90 -19 l100 0 0 42 0 41 -25 -23 c-17 -16 -37 -24 -67 -24 l-43 -1 -3 48
c-3 45 -2 47 23 47 15 0 35 -5 46 -10 17 -10 19 -7 19 27 0 29 -3 34 -12 25
-7 -7 -27 -12 -46 -12 -32 0 -33 1 -30 38 3 37 3 37 47 36 33 -1 49 -7 63 -24
l18 -22 0 46 c0 25 -1 45 -2 44 -2 -1 -44 -4 -95 -7z"/>
<path d="M5317 260 c-5 -21 -12 -30 -27 -30 -11 0 -20 -7 -20 -15 0 -8 9 -15
20 -15 18 0 20 -7 20 -83 0 -51 -5 -88 -12 -95 -9 -9 -4 -12 26 -12 31 0 37 3
32 16 -3 9 -6 72 -6 140 0 99 -3 124 -14 124 -7 0 -16 -13 -19 -30z"/>
<path d="M5750 240 c1 -37 3 -42 13 -29 24 31 91 52 110 33 7 -7 -48 -169 -69
-201 -20 -31 -18 -33 19 -33 30 0 34 3 34 28 0 33 60 201 80 224 14 15 8 17
-86 20 l-101 3 0 -45z"/>
<path d="M6310 277 c-45 -16 -62 -56 -39 -96 14 -24 14 -29 2 -37 -7 -5 -16
-26 -20 -46 -4 -30 -1 -41 20 -62 34 -34 121 -37 155 -6 27 25 30 85 5 112
-13 14 -14 21 -5 30 18 18 14 73 -5 90 -26 23 -73 29 -113 15z m88 -61 c4 -32
-10 -46 -48 -46 -29 0 -50 16 -50 40 0 27 23 41 60 38 30 -3 35 -7 38 -32z
m-7 -86 c22 -12 26 -59 7 -78 -17 -17 -74 -15 -92 4 -47 46 22 107 85 74z"/>
<path d="M6823 283 l-43 -4 0 -44 0 -43 30 29 c23 24 37 30 62 27 45 -4 50
-38 12 -70 -85 -70 -105 -94 -111 -131 l-6 -37 97 0 96 0 0 53 c-1 52 -1 52
-16 25 -18 -34 -43 -48 -84 -48 -44 0 -51 27 -14 57 94 79 104 90 104 120 0
52 -42 74 -127 66z"/>
<path d="M70 265 c8 -10 11 -51 8 -135 l-3 -120 25 0 25 0 -2 92 c-2 86 -1 91
12 63 7 -16 22 -58 32 -92 14 -51 22 -63 38 -63 16 0 26 18 52 98 l32 97 -2
-98 -2 -97 33 0 c29 0 32 2 22 19 -5 11 -10 63 -10 116 0 53 5 105 10 116 10
17 7 19 -27 19 l-38 0 -34 -108 -34 -107 -36 108 -35 107 -39 0 c-33 0 -38 -2
-27 -15z"/>
<path d="M688 173 c4 -136 15 -157 89 -161 83 -5 93 10 101 151 l7 117 -33 0
c-29 0 -32 -2 -22 -19 17 -32 13 -187 -6 -205 -20 -20 -58 -20 -78 0 -20 19
-23 193 -4 212 9 9 4 12 -22 12 l-35 0 3 -107z"/>
<path d="M2301 193 c49 -88 58 -127 39 -164 -10 -17 -7 -19 23 -19 l34 0 -5
49 c-4 45 0 58 42 135 l47 86 -30 0 c-21 0 -31 -5 -31 -15 0 -18 -42 -105 -50
-105 -8 0 -50 87 -50 105 0 10 -11 15 -34 15 l-34 0 49 -87z"/>
<path d="M4355 145 l0 -135 25 0 25 0 -2 102 -2 103 35 -102 c47 -136 57 -136
106 0 l37 102 0 -91 c1 -57 -3 -94 -11 -102 -9 -9 -4 -12 23 -12 l34 0 0 135
0 135 -32 0 c-31 0 -32 -1 -64 -100 -19 -55 -36 -100 -39 -100 -3 0 -20 45
-39 100 -32 99 -33 100 -64 100 l-32 0 0 -135z"/>
</g>
</svg>
